<svg version="1.1" id="svg2985" xmlns="http://www.w3.org/2000/svg" x="0" y="0" viewBox="-192 293.9 210 255" style="enable-background:new -192 293.9 210 255" xml:space="preserve"><style>.st3{fill:#fff}.st7{fill:#038249}</style><switch><g><filter width="1.217" height="1.215" y="-.108" x="-.109" id="filter3970-5" color-interpolation-filters="sRGB"><feGaussianBlur stdDeviation=".128" id="feGaussianBlur3972-8"/></filter><g id="g4630" transform="matrix(1.0006 0 0 1 -1.376 203.406)" style="enable-background:new"><g id="g3062"><path id="rect4031" d="m-131.2 90.5 46.1.2 68.4-.2c22.9-.1 36.1 15.9 36.1 40.4v154.6c0 12.3-14 27.7-21.4 35.7s-22.1 24.3-33.6 24.3h-113c-22.9 0-41.3-5.6-41.3-30.2l-.3-162.3c0-6.4 17.3-24.3 24.8-32.4 7.4-8 22.7-30.2 34.2-30.1z"/><path id="rect3767" d="M-122.4 103.2h104.5c13.8 0 24.8 11.1 24.9 24.9l.9 152.4c0 2-12.6 32-25.8 32h-104.5c-13.8 0-24.9-11.1-24.9-24.9V128.1c0-13.8 11.1-24.9 24.9-24.9z" style="fill:#005f00"/><path id="rect3861" d="M-137.4 118.1h99.6c13.7 0 24.9 11.2 24.9 24.9v159.5c0 13.8-11.1 24.9-24.9 24.9h-99.6c-13.7 0-24.9-11.2-24.9-24.9V143.1c0-13.8 11.2-25 24.9-25z" style="fill:#cddacd"/><path id="rect3765" class="st3" d="M-147.3 133.1h104.5c13.7 0 24.9 11.2 24.9 24.9v149.5c0 13.8-11.1 24.9-24.9 24.9h-104.5c-13.7 0-24.9-11.2-24.9-24.9V158c0-13.7 11.1-24.9 24.9-24.9z"/><linearGradient id="rect3008_1_" gradientUnits="userSpaceOnUse" x1="-324.883" y1="569.587" x2="-324.883" y2="531.068" gradientTransform="matrix(4.9807 0 0 -4.9841 1515.62 2981.96)"><stop offset="0" style="stop-color:#d0e4cc"/><stop offset="1" style="stop-color:#fbffec"/></linearGradient><path id="rect3008" d="M-157.3 143.1h109.5c11 0 19.9 8.9 19.9 19.9v149.5c0 11-8.9 19.9-19.9 19.9h-109.5c-11 0-19.9-8.9-19.9-19.9V163c0-11 8.9-19.9 19.9-19.9z" style="fill:url(#rect3008_1_)"/><path id="path3932" class="st3" d="M2.2 115.7c0 1.5-1.3 2.8-2.8 2.8s-2.8-1.3-2.8-2.8 1.3-2.8 2.8-2.8 2.8 1.2 2.8 2.8z"/><g id="path3936" style="filter:url(#filter3970-5)"><linearGradient id="SVGID_1_" gradientUnits="userSpaceOnUse" x1="-315.771" y1="590.47" x2="-318.887" y2="587.001" gradientTransform="matrix(7.1013 0 0 -6.6887 2243.616 4061.265)"><stop offset="0" style="stop-color:#fff"/><stop offset="1" style="stop-color:#fff;stop-opacity:0"/></linearGradient><path style="fill:url(#SVGID_1_)" d="m-2.8 114.3-28.8 24.6 8.2 6 25.2-28.3z"/></g><path id="path3882" class="st3" d="M-15 137.6c0 4.8-3.9 8.7-8.7 8.7-4.8 0-8.7-3.9-8.7-8.7 0-4.8 3.9-8.7 8.7-8.7 4.7 0 8.7 3.9 8.7 8.7z"/></g></g><path class="st7" d="M-86.8 468.2v-5.4c-1.7-.6-3.9-1.1-6.5-1.5-.5-4.3-3.7-9.8-9.6-16.6-5.2-5.9-11.4-10.5-18.5-13.7l14.2 14h-.3c-1-.9-2.1-1.6-3.2-2.3-1.6-1-3.2-1.4-4.8-1.4-.3 0-1.2.1-2.7.4-1.5.3-2.3.4-2.4.4-.6 0-2.1-.7-4.4-2.2 1.4-.6 2.6-1.6 3.6-3.1 1-1.4.3-2.9-2.1-4.6-2.6-1.8-6.4-1.3-11.4 1.6-5 2.9-7.6 4.3-8 4.3-.1 0-.7-.1-1.7-.4-1-.3-1.8-.4-2.4-.4-1.8 0-3.9.8-6.2 2.4-4.1 3-7.1 5.6-8.9 7.7-2.5 3.1-7.2 8.8-13.8 17 6.2-.7 12.6-4.7 19.3-12.1 4-4.5 7.7-8.1 11.3-10.8l-25.5 30.3c7.4-2 18.2-9.8 32.4-23.4 5.2-4.7 8.4-7 9.8-7 .8 0 1.9.7 3.3 2-17.9 7.8-30.5 20.4-37.7 37.8 7.6-8.2 15.9-14.4 25-18.6 2.3-1 4.1-1.7 5.4-2.3 8.9-3.7 15.9-6.5 20.9-8.6.9-.4 1.7-.9 2.3-1.6.4-.5 1-.6 1.8-.3s1.3.5 1.7.5c.5 0 1-.3 1.5-.9 3 1.6 5.4 5.3 7.3 11.2-2.6-.5-5.9-.8-10-.8-4.7 0-10 .5-16 1.6s-14.8 5.4-26.4 13.1c-11 7.5-17.7 12.3-20 14.2-2.3 2-3.2 3.4-2.7 4.3.4 1.3 2.1.7 5.3-1.9l4.8-3.7c-6.7 8.5-10.6 18.1-11.8 28.7 9.3-2.1 17.5-12.6 24.6-31.6l-1.8 6c-4 14.6-5 27.9-2.8 39.9 4.8-3.9 7.9-8.2 9.2-12.9 2-7 2.8-15.8 2.5-26.5-.2-6.5-1.3-10.1-3.4-10.8.1-2.2-.5-3.6-1.6-4.3 12-7.3 20.5-10.9 25.3-10.9h2.3c-.5 2.2 0 4.4 1.4 6.6 2 2.9 5.8 7.1 11.5 12.4 5.1 4.9 8.5 12.9 10.2 24 2.9-1.2 4.2-6.3 3.9-15.3-.4-6.7-2.5-12.9-6.5-18.7-2.7-4.1-7-7.3-12.8-9.4 9.8-.1 18.1 1.1 25.1 3.6zM-62.5 484.4c-3.5 2.5-6.3 6.4-8.6 11.9l.3 8.1c1.8.6 3.7.2 5.6-1.2 2.5-1.8 6.2-5.5 11-11 4.3-4.8 11.3-7.9 20.8-9.3-.9-2.9-5.2-4.4-13-4.3-5.6.1-11 2-16.1 5.8z"/><path class="st7" d="M-135.5 475.9c-1.6 3.9-2.5 8.3-2.8 13.4-.6 14.1-1.6 26.6-2.9 37.7 11.5-7.8 17.9-27.4 19.3-58.8-1.3 1.4-2.9 2.6-4.8 3.5 1.1-1.8 1.8-3.7 2.3-5.5-5.1.9-8.8 4.2-11.1 9.7zM-44.7 433.4c-5.3-10.8-9.7-16.8-13.2-18.1-1.3-.5-2.8-.8-4.7-.9-1.3.1-3 .2-5 .4 5.7-2 11.4-3.6 17.2-4.5 9.2-1.5 13.8-2.4 13.9-2.9.1-.5-1.6-.5-5.1-.2-12 1.2-22.5 3-31.4 5.5l.1 3.7 2.8-.8c-.1.9.1 1.5.6 1.8 1 .6 1.6 1.4 1.9 2.5 1.9 7.2 7.2 15.7 15.8 25.6 4.3 4.8 11.1 7.8 20.4 9-3.7-3.2-8.2-10.3-13.3-21.1zM-73 477c0-21-.4-39-1.1-53.8l-12.8 1c.7 14.2 1.1 32.2 1.2 53.8l12.7-1zM-71.7 533.4c0-21-.4-39.3-1.1-54.9l-12.8 1.1c.7 14.9 1.1 32.8 1.1 53.8h12.8z"/><path d="m-46.4 352.3-21.2 26.1v4.4h20.2v4c0 1.4-.2 2.3-.7 2.7-.6.7-2.4 1-5.4 1.1v3.1h17.1v-3.1c-2.3-.1-3.8-.3-4.5-.4-1.1-.4-1.6-1.5-1.6-3.4v-4h7.6v-4.1h-7.6v-26.5h-3.9zm-1.1 26.5h-15.4l15.4-19.4v19.4z" style="fill:#bf3718"/><path class="st7" d="M-74.2 421.5c0-21-.4-39-1.1-53.8l-12.8 1c.7 14.2 1.1 32.2 1.2 53.8l12.7-1zM-88.4 349.6c.1 5.5.1 11.4.1 17.6l12.7-1c0-5.9 0-11.4-.1-16.6h-12.7z"/><g><path d="M-160.7 361c.4-.2.7-.2.8-.2 2.6 0 7.6 4.2 7.6 6.4 0 1 0 1-2.2 3.4-1.7 2.1-2.6 3.1-2.6 3.2 0 .2.2.3.5.3.7 0 4.4-1.4 7.2-2.9.9-.4 1.6-.6 2-.6 1.6 0 3.7 2.8 3.7 4.8 0 1.3-.9 1.8-3.7 1.9-5.7 1.2-8.8 2.3-11.5 4.1 4.1 3.4 4.8 4.2 4.8 6.3 0 1 0 1-.7 7.5-1.7 8.3-1.7 8.3-2.2 8.8-.2.2-.5.3-.6.3-1 0-4.5-5.3-4.5-6.8 0-.5.5-2 1.2-4.3.5-1.5.9-3.4.9-5.6 0-3.2-.5-3.9-2.6-4.2-2.7.9-3.8 1.5-5.5 2.5-1 .6-2 1.1-2.6 1.1-1.1 0-1.9-2.8-1.9-6.6 0-1.2.4-1.6 1.7-2 2.9-.9 3.2-1.1 5.9-4.1 3.3-3.6 5.1-6.9 5.1-9.1 0-.9-.2-1.9-1.2-4l.4-.2zm20.5-3.9c.1-1.9 1.6-3.5 3.4-3.5 1.9 0 3.1.9 4.8 3.2 1.4 2 2.1 3.7 2.1 5.1 0 1.5-.7 3.1-3 6.7-1.4 2.2-2.3 3.9-2.3 4.2 0 .1.1.2.2.2s.2-.1.5-.2c.2-.1.9-.3 2.1-.7 2-.6 3.9-1.2 5.8-1.8 6.6-1.2 6.6-1.2 7.1-1.2 3.1 0 6.9 3.2 6.9 5.9 0 .8-.9 1.4-1.9 1.4-.6 0-1.6-.1-2.7-.2-1-.2-2-.2-3-.2-2.2 0-4 .2-8 1.2 1.9 1.6 2.7 2.9 2.7 4.1 0 .5-.2 1.4-.5 2.7-.4.9-.6 3.7-.7 6.7-.3 14.7-.8 17.5-3.4 22.3-1.1 2.1-2.3 3.7-2.8 3.7-.4 0-.7-.7-.7-1.6 0-.5.2-1.2.2-2.1 1-6.2 1.6-16.1 1.6-26.1 0-5-.2-5.5-3-5.9-.6.2-1.2.3-1.4.4l-1.3.8c-1 .6-1.9 1.2-3 1.7-.8.5-1.2.7-1.5.7-.9 0-1.6-1.4-1.6-3 0-2.9.1-3.1 2.3-5.6 1.6-2 2-2.7 3.6-8 1.5-5 1.9-6.9 1.9-8.8 0-1.1-.8-2.1-1.6-2.1-.2 0-.9.2-2.3.4l-.5-.4z" style="fill:#2a3b92"/></g></g></switch></svg>