<svg version="1.1" id="svg2985" xmlns="http://www.w3.org/2000/svg" x="0" y="0" viewBox="-192 293.9 210 255" style="enable-background:new -192 293.9 210 255" xml:space="preserve"><style>.st3{fill:#fff}.st8{fill:#bf3718}</style><switch><g><filter width="1.217" height="1.215" y="-.108" x="-.109" id="filter3970-5" color-interpolation-filters="sRGB"><feGaussianBlur stdDeviation=".128" id="feGaussianBlur3972-8"/></filter><g id="g4630" transform="matrix(1.0006 0 0 1 -1.376 203.406)" style="enable-background:new"><g id="g3062"><path id="rect4031" d="m-131.2 90.5 46.1.2 68.4-.2c22.9-.1 36.1 15.9 36.1 40.4v154.6c0 12.3-14 27.7-21.4 35.7s-22.1 24.3-33.6 24.3h-113c-22.9 0-41.3-5.6-41.3-30.2l-.3-162.3c0-6.4 17.3-24.3 24.8-32.4 7.4-8 22.7-30.2 34.2-30.1z"/><path id="rect3767" d="M-122.4 103.2h104.5c13.8 0 24.8 11.1 24.9 24.9l.9 152.4c0 2-12.6 32-25.8 32h-104.5c-13.8 0-24.9-11.1-24.9-24.9V128.1c0-13.8 11.1-24.9 24.9-24.9z" style="fill:#005f00"/><path id="rect3861" d="M-137.4 118.1h99.6c13.7 0 24.9 11.2 24.9 24.9v159.5c0 13.8-11.1 24.9-24.9 24.9h-99.6c-13.7 0-24.9-11.2-24.9-24.9V143.1c0-13.8 11.2-25 24.9-25z" style="fill:#cddacd"/><path id="rect3765" class="st3" d="M-147.3 133.1h104.5c13.7 0 24.9 11.2 24.9 24.9v149.5c0 13.8-11.1 24.9-24.9 24.9h-104.5c-13.7 0-24.9-11.2-24.9-24.9V158c0-13.7 11.1-24.9 24.9-24.9z"/><linearGradient id="rect3008_1_" gradientUnits="userSpaceOnUse" x1="-324.883" y1="569.587" x2="-324.883" y2="531.068" gradientTransform="matrix(4.9807 0 0 -4.9841 1515.62 2981.96)"><stop offset="0" style="stop-color:#d0e4cc"/><stop offset="1" style="stop-color:#fbffec"/></linearGradient><path id="rect3008" d="M-157.3 143.1h109.5c11 0 19.9 8.9 19.9 19.9v149.5c0 11-8.9 19.9-19.9 19.9h-109.5c-11 0-19.9-8.9-19.9-19.9V163c0-11 8.9-19.9 19.9-19.9z" style="fill:url(#rect3008_1_)"/><path id="path3932" class="st3" d="M2.2 115.7c0 1.5-1.3 2.8-2.8 2.8s-2.8-1.3-2.8-2.8 1.3-2.8 2.8-2.8 2.8 1.2 2.8 2.8z"/><g id="path3936" style="filter:url(#filter3970-5)"><linearGradient id="SVGID_1_" gradientUnits="userSpaceOnUse" x1="-315.771" y1="590.47" x2="-318.887" y2="587.001" gradientTransform="matrix(7.1013 0 0 -6.6887 2243.616 4061.265)"><stop offset="0" style="stop-color:#fff"/><stop offset="1" style="stop-color:#fff;stop-opacity:0"/></linearGradient><path style="fill:url(#SVGID_1_)" d="m-2.8 114.3-28.8 24.6 8.2 6 25.2-28.3z"/></g><path id="path3882" class="st3" d="M-15 137.6c0 4.8-3.9 8.7-8.7 8.7-4.8 0-8.7-3.9-8.7-8.7 0-4.8 3.9-8.7 8.7-8.7 4.7 0 8.7 3.9 8.7 8.7z"/></g></g><path d="m-167 363.6.5.1.9.5c.3.2.6.2.9.2.9 0 4.4-1.1 8.6-2.7-.5-4-.5-4.1-2.6-6-.6-.7-.9-1.1-.9-1.8l.2-.3c.5-.1 1-.2 1.2-.2 1.7 0 4 .6 5 1.3 1 .7 1.6 1.5 1.6 2l-.1 2.4c0 .3.1.7.2 1.5 1.1-.2 2-.4 2.3-.5 1.9-.3 3.1-.6 3.3-.6 3.8-.5 4.6-.7 5.1-1.2.6-.7 1.2-3 1.2-4.5 0-.5-.2-1.3-.5-2.1-.7-1.9-.7-2-.7-2.8l.1-.2c.2-.1.4-.1.4-.1.5 0 4.1 1.2 5 1.7 1.6.8 2.4 1.6 2.4 2.4 0 .2-.1.5-.3.9-.7 1.7-.9 2.3-1.6 3.7 4.7-.9 6.4-1.2 8.7-1.2 3 0 5.4 1.3 5.4 3 0 .9-.8 1.3-3.3 1.7-7.2 1-7.2 1-12.6 1.2l-1.2 1.7c-1.2 1.9-1.5 2.1-3.2 3.7 1.6.5 1.8.6 3.3 1 .6-.2 1.1-.4 1.2-.5l1.6-1.1c1.2-.8 5.9-2 7.7-2 2.7 0 6.4 2.8 6.4 4.9 0 .3-.2.9-.4 1.8-.5 1.6-.9 4-.9 6.8s.1 2.9.8 15.9c.7 9.2.7 9.2.7 10.7 0 5.7-2 12-3.8 12-.5 0-1-.4-2-1.6-1.6-1.8-2-2.3-3.2-3.3-1.4-1.2-2.2-1.9-4.4-4.1l.1-.3c1.2.2 2.3.5 2.6.5 1.3.3 2.5.5 3.2.5 1.8 0 2.3-1.6 2.3-6.9s-.3-13.4-.8-20.2c-4.3 1.1-4.5 1.1-8 1.2-2.5.2-3 .3-3.4 1.2 1.4.9 2 1.5 2 1.8 0 .4-.5.8-1.2 1-.2.1-.2.1-2 .3-.8.1-1.2.2-2.4.7v1.5c3.6-.8 5.4-1.2 5.9-1.2 2 0 4.8 1.6 4.8 2.7 0 .5 0 .5-1.1 2.3-1.7 4.4-1.7 4.4-2.2 5.1-.2.2-.7.6-.9.6l-3-.2c-.1 0-.5.1-.9.2-.5.2-1.4.5-2.5.7-.2 1.6-.2 3.1-.2 3.7-.1 5.1-.2 6.3-1.2 8-.3.5-.5.8-.8.8-.4 0-.6-.3-1.6-1.6-.6-.8-2-2.3-3.8-4.4l.2-.2c.9.2 1.7.3 2.3.3 1.1 0 1.1 0 1.3-5.5-2.3.5-2.5.5-4.6 1.7-.5.2-.9.4-1.1.4-.7 0-1.7-.9-2.1-1.7-.9-2-1.7-5.7-1.7-7.1 0-.6.2-1 .7-1.6h.2c.5.9.7 1.1 1.2 1.8 3-2.2 3.2-2.3 7.6-3.9v-1.5c-1.6.5-2 .5-3.3 1.2-.6.2-1 .4-1.3.4-.6 0-1.2-.4-2.8-1.8l-.1-.2c.5-.4.7-.6.9-.7.5-.2 1.8-.7 3.9-1.4.4-.1 1.5-.5 2.6-1-.5-1.2-.6-1.2-1.6-2-.6.2-.8.3-1.3.8-.3 1.5-.6 1.7-2.3 1.7-1.6 1.3-2.3 1.9-3.7 3-.9.6-1.6 1-2.2 1s-1.7-.9-2.5-1.9c-.4-.5-.7-.9-.9-.9-.2 0-.4.6-.4 1.4.1.8 0 2.3-.2 4.6-.2 1.8-.2 3.3-.2 4.4V408c0 3.2-.5 5.2-1.2 5.2-1.4 0-3-4.8-3-9 0-1.2.1-2.7.3-4.6.8-7.6.9-10.2.9-13.3 0-1.6-.1-3.3-.2-4.8-.1-1.2-.2-2.4-.2-3.1 0-1.7.4-2.6 1.8-3.8l.2-.1c.1.2.2.4.2.5.1.5.2.6.5.6.2 0 .4-.2.6-.5 1.3-2 1.3-2 3.9-3.1 4.6-2 5.3-2.2 6.6-2.2 2.1 0 4 1.4 4 3 0 .8 0 .8-.9 3.2-.3.8-.5 2.1-.5 4.4l.2.2c.9-.5 1.7-1.1 2-1.3.7-.5 1.2-.9 1.4-1 .1 0 .2-.1.5-.2-.2 1.2-.2 1.3-1.6 3.2-.2.3-.4.5-.4.6 0 .4.1.4 2.2 1 .9.2 1.3.6 2.1 1.7h1.6c-1-2.2-1.4-3.6-1.4-5V373c0-2.9-.9-4.6-2.5-4.6-.5 0-.9.2-1.5.4-.9.3-1.6.5-2 .5-.1 0-.2 0-.5-.1l-.1-.4c4.1-3.1 4.8-4 5.6-6.9-1.8-.4-2.2-.4-2.9-.4-.9 0-1.5.2-3.1 1.2-1.8 1.1-3 1.9-3.6 2.2-.5 3.4-.9 4.1-1.7 4.1-.6 0-1.2-.6-2.1-2.5-2 .5-2.1.5-6.7 2.7-1 .5-2 .8-2.5.8-1.4 0-3.2-2.9-3.2-5.1 0-.2.1-.6.2-1.1l.5-.2zm15.5 16.8c-1.6.9-2.9 1.7-3.4 2-1.6 1.1-1.8 1.1-3.6 1.5l-.1-.4c1.5-1.2 2-1.9 2-2.5 0-.5-.4-1.1-1-1.6-1.2-.9-1.2-.9-1.9-1.4l.1-.2c.9-.5 2.3-.8 4.6-.8 1.4 0 2 .2 3.2 1.4.1-1 .2-1.5.2-2 0-2.1-.2-2.7-1-2.7-.4 0-1.4.3-2.8 1-.6.2-1.1.4-1.2.5l-2.3.2c-.9.1-1.4 1.2-1.4 2.7 0 .4 0 .4.3 3.8.2 3 .2 3 .3 3.4.3.5.8.8 1.4.8 2 0 3.4-.6 6.6-2.9v-2.8zm-2.6 22.3c1.2 1.7 1.7 2.3 2 2.3s2-.8 2.8-1.2l.1.4c-.2.4-.3.6-.4.7l-1.5 2.7c-1.1 2.2-1.2 2.3-1.6 2.3-.1 0-.1 0-1.4-1.3-.9-.9-1.1-1.5-1.1-2.7 0-.9.2-1.6.7-2.8l.4-.4zm6.3-8.7c-.5.2-1.1.3-1.8.5-1.3.2-1.9.8-1.9 2 0 1.7.7 3.3 1.5 3.3.5 0 3.3-.7 3.9-1 .9-.4 1.1-.8 1.1-1.9-.9.5-1.6.7-2 .7-.5 0-.8-.2-2.1-.8-.5-.2-.5-.2-.6-.6l.1-.3c2.2-.6 3.7-1.2 4.7-1.6v-1c-.5.1-.9.1-.9.2l-2 .5zm6.5 3.4c1-.2 2-.4 2.4-.5 1.2-.2 1.7-.5 2-1.1.5-.8 1.1-2.9 1.1-3.4 0-.6-.6-1.2-1.3-1.2-.4 0-1 .1-1.7.3-.5.2-1.4.4-2.6.6l.2 1.2c.3-.1.7-.1.9-.2.5-.2.9-.2 1-.2.9 0 1.6.8 1.6 1.6 0 .5-.2.8-.5.9-.2.1-.2.1-1.6.1-.5 0-.7.1-1.6.3l.1 1.6zm2.3 2.9h1c.8 0 2.8.5 4.3 1s2.4 2 2.4 3.6c0 .9-.6 1.7-1.4 1.7-.9 0-1.6-.5-3.5-2.6l-1-1.2c-.5-.5-1.2-1.3-2.2-2.4l.4-.1zm12.3-24.5c0-.3-.1-.4-.2-.4-.2 0-.4.1-.6.2-.6.2-5.3.8-6.3.8-.6 0-1.5-.1-2.8-.2-.2 1.6-.2 1.9-.2 3.8 2.4-.1 2.4-.1 5.5-.6.9-.2 1.5-.2 2-.2.2 0 1.1.1 2.8.2-.1-1.1-.2-1.7-.2-2.5-.1-.3-.1-.7 0-1.1zm-9.8-2.3c1.2-.2 2.4-.3 2.9-.4 1.8-.4 3.2-.5 3.8-.5.7 0 1.6.2 3 .9v-2.3c0-1.6-.5-2.3-1.7-2.3-.6 0-1.5.1-2.3.3-1.2.3-2 .5-2.6.5h-1.7c-.4 0-.7.1-1.2.3v.4c-.2 2.3-.2 2.3-.2 2.7v.4z" style="fill:#2a3b92"/><path class="st8" d="M-43.2 438.6c-7.7-9.8-16.7-14.7-27-14.7-7.1 0-12.6 3.5-16.6 10.4-3.6-15.4-9.3-23.1-17.1-23.2-7.8.1-13.6 7.8-17.1 23.2-4-7-9.5-10.4-16.6-10.4-10.3 0-19.3 4.9-27 14.7-7.2 9.1-10.8 18.9-10.8 29.3 0 8.9 3.1 17.8 9.2 26.5 6.8 9.7 14.6 14.5 23.3 14.5 5.3 0 9.4-2.7 12.1-8.2 2.3-5.1 4.7-10.1 7-15.1 3.3-6.9 6.2-10.3 8.7-10.3 1.8 0 2.7 1.3 2.6 3.9.4 3.1 1 4.5 2.3 5.1.6.3.5 1.3.7 2 .7-.5 1.6-.8 2.7-.8h.1c-.1-1.4-.6-4.2-1.5-8.4-1-4.2-3.3-6.3-6.9-6.3-4.5 0-8.2 2.9-11.1 8.7-2.2 5.1-4.4 10.1-6.6 15.1-2.7 4.9-6.2 7.4-10.3 7.4-7.1 0-13.3-4-18.5-12-4.7-7.3-7-14.8-7-22.5 0-8.7 3-16.7 9-24.1 6.2-7.7 13.5-11.5 22-11.5 5.2 0 9.1 2 11.8 5.9 2.6 3.7 5.1 8.3 7.7 13.7 3.1 6.5 6 11.1 8.8 13.8 1.3 1.2 2.5 1.7 3.4 1.4 1-.3 1.2-1.1.7-2.3-1.5-3.4-3.6-8-6.5-13.8-2.9-5.9-4.3-9.9-4.3-12 0-2.4.8-5.4 2.4-8.8 1.6-3.5 3.3-6.2 5.1-8.2 1.8-2 3.4-3 4.8-3s3 1 4.8 3c1.8 2 3.5 4.7 5.1 8.2 1.6 3.5 2.4 6.4 2.4 8.8 0 2.1-1.4 6.1-4.3 12s-5.1 10.5-6.5 13.8c-.5 1.2-.3 2 .7 2.3 1 .3 2.1-.2 3.4-1.4 2.8-2.7 5.7-7.3 8.8-13.8 2.6-5.4 5.1-10 7.7-13.7 2.6-4 6.6-5.9 11.8-5.9 8.4 0 15.7 3.8 22 11.5 6 7.3 9 15.3 9 24.1 0 7.7-2.3 15.2-7 22.5-5.2 8-11.4 12-18.5 12-4.2 0-7.6-2.5-10.3-7.4-2.2-5-4.4-10-6.6-15.1-2.9-5.8-6.6-8.7-11.1-8.7-3.6 0-5.9 2.1-6.9 6.3-.9 4.2-1.5 7-1.5 8.4 1.2 0 2.2.4 3 1 0 0 .1-1.5.5-1.7.7-.3 1.8-3.4 2.3-5.6-.1-2.6.8-3.9 2.6-3.9 2.5 0 5.4 3.4 8.7 10.3 2.3 5 4.7 10 7 15.1 2.7 5.5 6.7 8.2 12.1 8.2 8.7 0 16.5-4.8 23.3-14.5 6.2-8.7 9.2-17.5 9.2-26.5-.4-10.5-4-20.3-11.2-29.3zM-49.6 373.9l-2 1.6c-6.7 5.1-10.6 10.2-11.9 15.3v2.5h27.9l1.3-12.1h-3.3c-.8 5-2.7 7.5-5.7 7.5h-15.1c1.2-3.9 4.3-7.3 9.1-10.1l2.4-1.3c4.2-2.3 7.1-4.3 8.7-5.9 2-2 3-4.7 3-7.9 0-4.2-1.9-7.5-5.6-9.7-2.4-1.2-5.2-1.9-8.3-1.9-4.2 0-7.7 1.2-10.2 3.6-2.1 2.1-3.2 4.4-3.2 7.1 0 3.2 1.4 4.8 4.3 4.8 2.5 0 3.7-1.2 3.7-3.5 0-2.2-1-3.4-2.9-3.6 1.2-3.1 3.8-4.6 7.9-4.6 5.3 0 7.9 2.5 7.9 7.4.2 3.1-2.5 6.7-8 10.8z"/><path d="M-86 512.7c-2.2 4.9-4.3 7.4-6.3 7.4-1.2 0-1.8-.6-1.8-1.8 0-1.5 1.3-3.4 3.8-5.4 2.6-2.1 3.8-4.5 3.8-7.3 0-1.4-.5-2.8-1.4-4.3-.9-1.5-2.5-2.7-4.7-3.6 1.4.1 2.7-.3 4-1 1.5-1 2.3-2.1 2.3-3.5 0-1.8-1.1-4.4-3.3-8-2.2-3.6-2.1-5.6.3-6-.4-.7-1.1-1.3-2.1-1.9-1.7-.8-3.1-.1-4.2 2 0-.1-.4.4-.6.7.1-.2.2-.3.4-.5-.4.5-.6 1.1-1 1.6-.9 2-2.3 3.8-4.5 4.2v.3h-5.5v-.2c-.2 0-.5-.1-.7-.1-1-.2-1.8-.8-2.5-1.5-.6-.5-1.2-1.2-1.5-2-.2-.4-.3-.8-.4-1.1l-.3-.6c-.2-.3-.3-.5-.4-.8-1.1-2.1-2.5-2.7-4.1-1.9-1 .6-1.6 1.2-2.1 1.9 2.4.4 2.5 2.5.3 6-2.2 3.6-3.3 6.3-3.3 8 0 1.4.8 2.6 2.3 3.5 1.2.7 2.6 1.1 4 1-2.2.9-3.8 2.1-4.7 3.6-.9 1.5-1.4 2.9-1.4 4.3 0 2.8 1.3 5.2 3.8 7.3 2.6 2.1 3.8 3.9 3.8 5.4 0 1.2-.6 1.8-1.8 1.8-2 0-4.1-2.5-6.3-7.4-1.8-4.1-3.3-9.6-4.5-16.5-1.2 5.1-1.9 8.6-1.9 10.3 0 4.9 1 9.4 3 13.6 2.6 5.5 6.2 8.2 10.9 8.2 3.3 0 6.8-1.4 10.4-4.2 3.7 2.8 7.1 4.2 10.4 4.2 4.7 0 8.3-2.7 10.9-8.2 2-4.2 3-8.7 3-13.6 0-1.8-.6-5.2-1.9-10.3-.9 6.8-2.4 12.3-4.2 16.4zm-9.7-20.6c.3-1.8.1-4.4-.4-7.7 1.8 3.2 2.7 6 2.7 8.3 1.3-.2 1.8-1.2 1.3-3.1-.3-1.1-.6-2.2-1-3.4-.4-1.1-.7-1.9-.9-2.4-.3-.9-.3-1.6.1-2.3 3 6.2 4.5 9.9 4.4 11.3-.1 1.2-.8 2-2.1 2.6-1.2.5-3 .6-5.3.2.6-1.4 1-2.7 1.2-3.5zm-20.6 3.4c-1.2-.5-1.9-1.4-2.1-2.6-.1-1.4 1.4-5.2 4.4-11.3.4.7.4 1.4.1 2.3-.2.4-.5 1.2-.9 2.4-.4 1.1-.8 2.3-1 3.4-.4 1.8 0 2.9 1.3 3.1.1-2.3 1-5.1 2.7-8.3-.6 3.3-.7 5.9-.4 7.7.1.9.5 2.1 1.2 3.6-2.3.3-4 .3-5.3-.3zm22.3 29.9c-3.4.1-6.7-2-10-6.3-3.3 4.2-6.6 6.3-10 6.3-3.3-.1-5.8-2-7.5-5.5 1.9 2 3.8 3 5.8 3 3.4 0 5.2-1.2 5.2-3.7 0-2.3-1.2-4.7-3.6-7.2s-3.6-4.6-3.6-6.3c0-1.8 1.2-3.6 3.5-5.4 2.3-1.8 5-2.7 7.9-2.7-1.4-.8-2.4-2-3-3.7-.8-2.5-.7-4.3.2-5.4 1 6.2 2.5 9.2 4.4 9-1-2.8-1.6-5.9-1.9-9.4h5.1c-.2 3.5-.8 6.7-1.9 9.4 1.9.2 3.4-2.8 4.4-9 1 1.1 1 2.9.2 5.4-.6 1.7-1.6 2.9-3 3.7 2.9.1 5.6 1 7.9 2.7 2.3 1.8 3.5 3.6 3.5 5.4 0 1.7-1.2 3.8-3.6 6.3s-3.6 4.9-3.6 7.2c0 2.5 1.7 3.7 5.2 3.7 2 0 3.9-1 5.8-3-1.6 3.5-4.1 5.3-7.4 5.5z" style="fill:#038249"/></g></switch></svg>