<svg version="1.1" id="svg2985" xmlns="http://www.w3.org/2000/svg" x="0" y="0" viewBox="-192 293.9 210 255" style="enable-background:new -192 293.9 210 255" xml:space="preserve"><style>.st3{fill:#fff}.st7{fill:#038249}.st8{fill:#bf3718}</style><switch><g><filter height="1.215" width="1.217" id="filter3970-5" x="-.109" y="-.108" color-interpolation-filters="sRGB"><feGaussianBlur stdDeviation=".128" id="feGaussianBlur3972-8"/></filter><g id="g4630" transform="matrix(1.0006 0 0 1 -1.376 203.406)" style="enable-background:new"><g id="g3062"><path id="rect4031" d="m-131.2 90.5 46.1.2 68.4-.2c22.9-.1 36.1 15.9 36.1 40.4v154.6c0 12.3-14 27.7-21.4 35.7s-22.1 24.3-33.6 24.3h-113c-22.9 0-41.3-5.6-41.3-30.2l-.3-162.3c0-6.4 17.3-24.3 24.8-32.4 7.4-8 22.7-30.2 34.2-30.1z"/><path id="rect3767" d="M-122.4 103.2h104.5c13.8 0 24.8 11.1 24.9 24.9l.9 152.4c0 2-12.6 32-25.8 32h-104.5c-13.8 0-24.9-11.1-24.9-24.9V128.1c0-13.8 11.1-24.9 24.9-24.9z" style="fill:#005f00"/><path id="rect3861" d="M-137.4 118.1h99.6c13.7 0 24.9 11.2 24.9 24.9v159.5c0 13.8-11.1 24.9-24.9 24.9h-99.6c-13.7 0-24.9-11.2-24.9-24.9V143.1c0-13.8 11.2-25 24.9-25z" style="fill:#cddacd"/><path id="rect3765" class="st3" d="M-147.3 133.1h104.5c13.7 0 24.9 11.2 24.9 24.9v149.5c0 13.8-11.1 24.9-24.9 24.9h-104.5c-13.7 0-24.9-11.2-24.9-24.9V158c0-13.7 11.1-24.9 24.9-24.9z"/><linearGradient id="rect3008_1_" gradientUnits="userSpaceOnUse" x1="-324.883" y1="569.587" x2="-324.883" y2="531.068" gradientTransform="matrix(4.9807 0 0 -4.9841 1515.62 2981.96)"><stop offset="0" style="stop-color:#d0e4cc"/><stop offset="1" style="stop-color:#fbffec"/></linearGradient><path id="rect3008" d="M-157.3 143.1h109.5c11 0 19.9 8.9 19.9 19.9v149.5c0 11-8.9 19.9-19.9 19.9h-109.5c-11 0-19.9-8.9-19.9-19.9V163c0-11 8.9-19.9 19.9-19.9z" style="fill:url(#rect3008_1_)"/><path id="path3932" class="st3" d="M2.2 115.7c0 1.5-1.3 2.8-2.8 2.8s-2.8-1.3-2.8-2.8 1.3-2.8 2.8-2.8 2.8 1.2 2.8 2.8z"/><g id="path3936" style="filter:url(#filter3970-5)"><linearGradient id="SVGID_1_" gradientUnits="userSpaceOnUse" x1="-315.771" y1="590.47" x2="-318.887" y2="587.001" gradientTransform="matrix(7.1013 0 0 -6.6887 2243.616 4061.265)"><stop offset="0" style="stop-color:#fff"/><stop offset="1" style="stop-color:#fff;stop-opacity:0"/></linearGradient><path style="fill:url(#SVGID_1_)" d="m-2.8 114.3-28.8 24.6 8.2 6 25.2-28.3z"/></g><path id="path3882" class="st3" d="M-15 137.6c0 4.8-3.9 8.7-8.7 8.7-4.8 0-8.7-3.9-8.7-8.7 0-4.8 3.9-8.7 8.7-8.7 4.7 0 8.7 3.9 8.7 8.7z"/></g></g><path class="st7" d="M-101.1 385.3c-1.7 1.7-2.5 3.8-2.5 6.1 0 2.4.8 4.5 2.5 6.2 1.7 1.7 3.7 2.6 6.2 2.6 2.3 0 4.4-.9 6.1-2.6 1.7-1.7 2.6-3.8 2.6-6.2 0-2.3-.9-4.4-2.6-6.1-1.7-1.7-3.8-2.6-6.1-2.6-2.5 0-4.5.9-6.2 2.6zm10.4 6.1c0 1.2-.4 2.3-1.3 3.1-.8.8-1.9 1.3-3 1.3-1.2 0-2.3-.4-3.1-1.3-.8-.8-1.3-1.9-1.3-3.1 0-1.2.4-2.2 1.3-3 .8-.8 1.9-1.3 3.1-1.3 1.2 0 2.2.4 3 1.3.9.9 1.3 1.9 1.3 3zM-119 448.7l-7.5.5c-1.9.1-3.1 1.4-3.3 2.6.1.1 11.4-.8 11.4-.8 0 .1.5-.8.8-1.2-.1 0-1.2-.9-1.4-1.1zM-136.2 452.1c.8-.3 1.3-.5 2.1-.8-.6-.6-1.3-1.9-1.4-1.5l-25.4 1.5c-.2.4-.5.7-.8 1.1-.8.8-1.7 1.2-2.7 1.3-1.1.1-2-.3-2.8-1-.8-.8-1.2-1.7-1.3-2.8-.1-1 .2-2 .9-2.8.7-.8 1.6-1.3 2.7-1.4 1-.1 2 .3 2.9 1.1.4.3.7.6.9.9l26-1.6s.1-1 .2-1.3c-.2-.3-.9-1-1-1.2l-22.9 1.4c-.1-.1-.3-.3-.4-.3-1.5-1.2-3.4-1.8-5.6-1.6-2.3.1-4.1.9-5.4 2.3-1.3 1.4-1.9 3-1.8 4.8.1 1.8.8 3.3 2.3 4.5 1.5 1.2 3.3 1.8 5.6 1.6 2.2-.1 4-.9 5.5-2.3.2-.2.4-.4.4-.5l20.9-1.3c.3-.1.8-.1 1.1-.1zM-91.9 499.3c-.2-3.7-.3-6.9-.2-9.6 2.8 15 6.7 26.1 11.8 33.2-6.5-17.4-10-30.4-10.5-38.8-.5-6.4-1-11.8-1.3-15.9-.6-6.9-.9-12.4-1-16.6-.1-.1-.1-.7-.2-.8-.6.2-2.3.3-2.5.3 0 .1-.1.9 0 .9 0 6.2.3 12.3.8 18.1.5 5.8.6 10.6.2 14.4-.4 3.8-.3 7.7.1 11.7-5.6-14.9-8.9-29.5-9.9-43.8 0 0 .1-.9 0-1-.2 0-1.7-.1-2.1-.2-.1.1-.2 1-.1 1 .3 8.4 1.3 17.4 3.1 26.9 2.9 15.2 7 29 12.3 41.5-2.6-10.1-5.3-21.1-8.3-32.8 1.9 6.3 3.6 11.1 4.9 14.3.4 6.3 3.4 15.3 9 26.9-4.1-11-6.4-18.7-6.8-23.3 1 2.9 3.6 9.6 7.9 20.3-1.1-8.1-3.4-17-7.2-26.7zM-33.6 441.7c-.1-1.8-1-3.3-2.6-4.6-1.7-1.2-3.5-1.7-5.5-1.6-2.3.1-4.1.9-5.4 2.3l-.4.4s-28.7 1.7-28.6 1.7c-1.8-.1-3.8 2.7-2.3 2.7l33.5-2.1c.1-.4.3-.7.5-1 .7-.9 1.6-1.4 2.7-1.4 1-.1 2 .3 2.9 1 .9.8 1.4 1.7 1.4 2.7.1 1.1-.3 2.1-1.1 2.9-.8.8-1.7 1.3-2.7 1.4-1.1.1-2-.3-2.7-1-.4-.3-.6-.6-.8-1l-37.7 2.3c-1 .5-2.4 1.9-3.3 2.5l38.5-2.4c.3.2.5.4.7.5 1.5 1.2 3.3 1.8 5.6 1.6 2-.1 3.8-.9 5.3-2.3 1.5-1.1 2.2-2.7 2-4.6zM-75.5 403.4c-.1-.2-.5-1.5-.6-1.6-.4-.6-.9-1.5-1-2.3-.4 2.5-2.3 5.2-5.6 7.7-4.4 3.2-12.1 4.4-23.1 3.6l-3.4-.2s-1.1.2-1.5 1.6c-.2 1.2.3 2.3 1.1 2.7 1.2.2 2.2.4 3 .4.7 2.1.3 6.9-1.3 14.4-.7 3.4-2.4 6.8-4.9 10.2 4.1-2.2 6.9-6.5 8.5-13 1-4.5 1.3-8.2.9-11.3 1 .1 1.9.1 2.7.2.3 1.8.4 4.5.4 8.3 0 4.7-1.9 10.5-5.7 17.6 5.6-3.7 8.6-10.4 8.8-19.9 0-2.4-.1-4.1-.2-4.9l-.2-1.1h3c.3 2 .4 4.8.4 8.3 0 6.7-2 12.5-5.9 17.6 1-.5 2.2-1.4 3.5-2.5 4-3.4 6.2-9.9 6.4-19.2 0-1.4-.1-2.9-.4-4.6 1-.1 1.9-.3 2.7-.4.3.7.5 2.4.8 4.9.5 9.1-1.5 16.1-6.2 21.1 2.3-1.2 4.1-2.9 5.5-4.8 2.9-4.1 4.2-10 4.2-17.7 0-.5-.2-2.1-.5-4.7 1.2-.4 2.3-1 3.2-1.6.4 2.2.5 4.6.5 7.1 0 6.6-1.6 12.7-4.9 18.3 2.5-2.1 4.5-4.8 6-8 1.3-2.9 2-7.3 2-13 0-1-.3-3.3-.9-6.9 1.6-1.7 2.5-3.4 2.7-5.1-.1.2.1-.8 0-1.2z"/><g><path class="st8" d="M-92.1 522.2c-1.3-3.2-3.3-8.2-5.8-14.8-5.1-12.9-8.9-32.4-11.1-56.5l-2.9-.4c1 21.2 4.7 40.7 11.1 56.8 2.6 6.7 4.8 11.7 6.6 15.2 2.6 5.1 4.7 8.2 6.4 9.1-1.6-3.1-3-6.2-4.3-9.4zM-96.6 483.9c0-11.2-.7-23-1.9-33.1-2.1.2-4-.1-4-.1 1.1 12.4 3.1 24.4 5.9 33.2zM-91.3 450c.2 20.7 1.3 35.9 3.2 43.6 2.2 9.2 4.5 15.6 6.9 19-5.2-21.1-7.7-42.9-7.6-63.3-1 .3-1.7.4-2.5.7z"/></g><g><path d="M-59.1 386.6c-2.3 0-4.7.8-7.1 2.3-2.3 1.5-4.5 3.3-6.4 5.4v-.1c-.8 1.2-2.4 3-2.9 3.8-.4.6-1.8 2.9-2.3 3.9 1.2.7 2.2 2.9 2.2 2.8 1.3 1.7 2 5.4 2.1 11.2-.1 6.1-1 11.2-2.7 15.3-1.9 4.4-4.2 7.9-7 10.5-2.4 2.2-7.8 3.5-16.3 4h-1.1c-1.9 0-4.5-.2-7.7-.7-5.6-.8-9.2-1.9-10.5-3.3-.7-.8-.8-1.6-.3-2.4 2.9-4.7 5.2-9.7 7-15.1 1.1-3.5 2-6.6 2.6-9.3.3-2 .4-4.3.4-4.3.2-4.1.4-5.7.4-11.7 0-.3-.3-2.7-.8-3.7-.8-1.3-2.6-2.2-3.5-2.6-1.4-.6-3.4-1-5.9-1.1-2.4-.1-5.6.4-9.6 1.6-9 2.6-13.5 10.1-13.5 22.7 0 7.5 1.8 16.8 5.5 27.8l.8 2.4c.3 1.3.3 2.8-.4 4.4l-.5.8-.5.7c-3 2.9-8.9 6.5-15.6 9.5-5.1 2.3-11.3 4.4-18.8 6.5-4.2 1.2-4.5 1.9-.8 2 15.9 0 30.3-6.1 43.3-18.2 0 0 1.5-1.6 2.6-2.6 1.1-1.1 2.1-2.2 3.2-3.4.1-.1.3-.3.4-.3l.7-.1c.5.2 1.1.8 1.9 1.9.3.4.8 1.5 1.1 2.4l.3.8c.4 2.1.6 5.4.6 8.6.1 17.5 5 36.2 14.5 56 3.3 6.4 7 11.5 11.1 15.3-1.9-3.1-5.6-11.4-11.2-25-5.9-14-9-28.4-9.3-43.2 0-4.1-.4-7.8-1.1-11.2 4.4 1.4 10.6 1.5 14.4 1.4 1.8-.1 7.4-.1 12.4-2.3-.7 23.3 2.9 47.1 10.7 71.4-6-32.8-8.4-56.9-7.3-72.4 0 0 1.3-1.1 2-1.8l.2-.1c1.5-1.3 2.8-3 3.7-4.3l1.9-2.7c7.3-2.8 12.2-6.8 14.6-12 6.1-12.7 9.1-23.6 9.1-32.5-.1-6-2.3-9-6.6-9zm-62.6 47.8c-2.6 5.3-5.9 9.7-10.1 13 .9-1.2.4-4.4-1.4-9.7-1.8-5.3-2.7-9-2.7-10.9 3.1 1.9 5.5 5.1 7.4 9.4.9-6.2-1.9-10.8-8.2-13.6-.3-3.4-.4-5.5-.4-6.5.1-3 .3-4.9.8-5.6 7.9 7.4 11.9 13.5 11.9 18.3.4 0 .7-1 1-2.9 1-6.2-2.9-12.4-11.9-18.8 1-3.7 2.4-6 4.1-7.1 4.2 3.6 7.5 7.7 10 12.3 1.2 2.4 2.2 5 2.7 7.8l.1-7.1c.1-4.1-3.1-9.1-9.4-15.1 1.3-1.1 3.4-1.8 6.4-2.2 2.5-.3 5.3.2 8.3 1.4-.2 13.8-3 26.2-8.6 37.3zm57.5-9.6c-1.8 5-5.4 8.8-10.8 11.3 2.9-6.2 5.3-10.8 5.4-21.8 0-3.1-1.5-10-2.6-12.7 5.6-6.5 9.4-9.9 11.4-10.1 2-.2 3.1.6 3.1 2.4 0 9.7-2.1 19.9-6.5 30.9z" style="fill:#2a3b92"/></g><g><path class="st8" d="M-113.2 387.3c.1 1.5.1 3.3.1 5.4-.1 0-.3 4.5-.2 4.5 0 4.5-.3 8.9-.9 13.1 1.7.2 4.2.4 5.1.4.6-4 .8-9.3.7-15.9-.1-5.3-.3-9.2-.8-11.9-.2-1.2-.3-2.5-.1-3.6.2-1.4 1-2.1 2.4-2.1h.5c6.8 0 12.3.9 16.6 2.7 8.4 3.5 12.6 9.9 12.6 19.1 0 1.1-.3 2.1-.9 3.2.7-.4 2.8-2.2 3.6-3.2 1.3-1.5 1.8-3.5 1.8-4.7-.1-7.5-4.1-13.3-11.8-17.4 2.1-.1 3.9-.4 5.4-.9 8.3-2.9 16.7-10.1 25.3-21.9-11.7 9.2-20.3 13.7-25.8 13.7-4.8 0-9.7-2.2-14.5-6.6-4.2-4-9.1-6-14.7-6-9 0-13.5 3.6-13.5 10.8-.1 3.8.7 6.6 2.5 8.2 3.3 3.7 1.9 5.6-4.1 5.7-2.9 0-5.8-.3-8.7-1 3.8 4 9.6 6 17.2 6 1.4.2 2.1.9 2.2 2.4zm5.4-25.8c4.2 0 7.5 1.2 9.9 3.7 2.4 2.5 5.5 4.4 9.2 5.8-7 1.1-14.1 1.2-21.4.3-2.6-.4-4-1.9-4-4.5.1-3.5 2.2-5.3 6.3-5.3z"/></g></g></switch></svg>