<?xml version="1.0" encoding="utf-8"?>
<svg xmlns="http://www.w3.org/2000/svg" xml:space="preserve" id="svg2985" x="0" y="0" enable-background="new -192 293.9 210 255" version="1.1" viewBox="-192 293.9 210 255">
  <style>
    .st3{fill:#fff}.st7{fill:#038249}.st8{fill:#d37f11}
  </style>
  <switch>
    <g>
      <filter id="filter3970-5" width="1.2171124" height="1.2150326" x="-.10855621" y="-.10751629" color-interpolation-filters="sRGB">
        <feGaussianBlur id="feGaussianBlur3972-8" stdDeviation=".12800763"/>
      </filter>
      <g id="g4630" transform="matrix(1.0006 0 0 1 -1.3758072 203.40625)">
        <g id="g3062">
          <path id="rect4031" d="m-131.2 90.5 46.1.2 68.4-.2c22.9-.1 36.1 15.9 36.1 40.4v154.6c0 12.3-14 27.7-21.4 35.7s-22.1 24.3-33.6 24.3h-113c-22.9 0-41.3-5.6-41.3-30.2l-.3-162.3c0-6.4 17.3-24.3 24.8-32.4 7.4-8 22.7-30.2 34.2-30.1z"/>
          <path id="rect3767" fill="#005f00" d="M-122.4 103.2h104.5c13.8 0 24.8 11.1 24.9 24.9l.9 152.4c0 2-12.6 32-25.8 32h-104.5c-13.8 0-24.9-11.1-24.9-24.9V128.1c0-13.8 11.1-24.9 24.9-24.9z"/>
          <path id="rect3861" fill="#cddacd" d="M-137.4 118.1h99.6c13.7 0 24.9 11.2 24.9 24.9v159.5c0 13.8-11.1 24.9-24.9 24.9h-99.6c-13.7 0-24.9-11.2-24.9-24.9V143.1c0-13.8 11.2-25 24.9-25z"/>
          <path id="rect3765" d="M-147.3 133.1h104.5c13.7 0 24.9 11.2 24.9 24.9v149.5c0 13.8-11.1 24.9-24.9 24.9h-104.5c-13.7 0-24.9-11.2-24.9-24.9V158c0-13.7 11.1-24.9 24.9-24.9z" class="st3"/>
          <linearGradient id="rect3008_1_" x1="-324.8826" x2="-324.8826" y1="569.5873" y2="531.0685" gradientTransform="matrix(4.9807 0 0 -4.9841 1515.6201 2981.9607)" gradientUnits="userSpaceOnUse">
            <stop offset="0" stop-color="#d0e4cc"/>
            <stop offset="1" stop-color="#fbffec"/>
          </linearGradient>
          <path id="rect3008" fill="url(#rect3008_1_)" d="M-157.3 143.1h109.5c11 0 19.9 8.9 19.9 19.9v149.5c0 11-8.9 19.9-19.9 19.9h-109.5c-11 0-19.9-8.9-19.9-19.9V163c0-11 8.9-19.9 19.9-19.9z"/>
          <path id="path3932" d="M2.2 115.7c0 1.5-1.3 2.8-2.8 2.8s-2.8-1.3-2.8-2.8 1.3-2.8 2.8-2.8 2.8 1.2 2.8 2.8z" class="st3"/>
          <g id="path3936" filter="url(#filter3970-5)">
            <linearGradient id="SVGID_1_" x1="-315.7709" x2="-318.8866" y1="590.4699" y2="587.0007" gradientTransform="matrix(7.1013 0 0 -6.6887 2243.616 4061.2654)" gradientUnits="userSpaceOnUse">
              <stop offset="0" stop-color="#fff"/>
              <stop offset="1" stop-color="#fff" stop-opacity="0"/>
            </linearGradient>
            <path fill="url(#SVGID_1_)" d="m-2.8 114.3-28.8 24.6 8.2 6 25.2-28.3z"/>
          </g>
          <path id="path3882" d="M-15 137.6c0 4.8-3.9 8.7-8.7 8.7-4.8 0-8.7-3.9-8.7-8.7 0-4.8 3.9-8.7 8.7-8.7 4.7 0 8.7 3.9 8.7 8.7z" class="st3"/>
        </g>
      </g>
      <path d="M-80 470.6c.5-14.9-1.2-33.7-5.3-56.5-.4 26.2-1.5 47.9-3.1 65.1-1.9 18.9-5.7 36.9-11.4 53.9H-89c5.6-21.4 8.6-42.3 9-62.5z" class="st7"/>
      <path d="M-128.3 533.3h5.9c1.8-37.9 3.6-61.8 5.5-71.7 1.9-9.9 3.4-17 4.5-21.5 1-4.5-.3-7.3-4-8.5 0-5.1-6.7-9.3-20-12.5-.7-2.3-1.4-4.5-2.3-6.6-2.2 1-4.1 2.1-5.7 3.5l-8.8-7.5c-2.6 3.5-4.2 7.3-4.8 11.4-6.4 1.2-10.9 2.7-13.5 4.5 1.9 5.3 4.7 9 8.2 11.3-2.3 3.5-3.5 8.7-3.5 15.5 5.2.1 9.5-.2 12.9-.8 1.8 3.9 5.4 7.3 10.9 10.3.8-3.7 2-7.2 3.5-10.5 2.8 1.8 4.7 2.6 5.7 2.6-.1-2.6-.3-5.2-.5-8 3.1-.8 7.1-2.4 12-4.7 3.7-3.1 4.7-2.1 3.1 3-5.2 16.3-8.2 46.3-9.1 90.2zm-13-87.8c-1.6 3.4-2.8 6.8-3.5 10.1-2.9-1.4-5.3-4.2-7.5-8.3-3.7.9-7.4 1.3-11 1.3 0-5.3 1.5-9.7 4.4-13.2-5.3-4-7.9-7.2-7.9-9.7 3.8-1.5 7.6-2.3 11.3-2.5 1.2-4.1 2.3-7.2 3.3-9.3l7.8 7 3.5-2.2c.6 1.3.9 3.7.9 7-3.2-1.2-6.2-1.8-8.8-1.8-4.1 0-6.2 3.2-6.2 9.4 0 6.9 2.5 10.3 7.5 10.3 2.1 0 5.1-.7 8.8-2.2.4 1.4.8 3.3 1.1 5.8l-3.7-1.7zm-3.1-12.1c-.1 5.4-1.2 8.1-3.5 8.1-2.6 0-4-2.7-4-8.1 0-4.8 1.2-7.3 3.5-7.3 2.7 0 4 2.5 4 7.3zm9.3 7.7c0-1.8-.6-4.8-1.8-8.8.6-3.5.9-6.3.9-8.3 9.4 2.3 14.1 4.8 14.1 7.5-.1 2.2-4.5 5.4-13.2 9.6z" class="st8"/>
      <path d="M-167.8 496.8c2.2-.7 4.4-1.5 6.7-2.4 1.4 2.1 3.6 4.8 6.7 8 1.9 2.1 4.7 2.9 8.3 2.5 2.6 2.1 4.5 5.5 5.7 10.3 1.5 6.2 2.6 12.2 3.4 18h5.2c-2.3-17.2-5.9-27.5-10.8-30.8 2-2.9 2.9-8.2 2.6-15.8 1.8-1 3.5-2.1 5.1-3.3-1.3-1.5-2.7-2.6-4.3-3.5l4.3-8.6c-3.6-1.1-7.2-1.4-10.8-.9-2.5-4.5-4.8-7.6-6.9-9.2-4 2.7-6.5 5.7-7.6 9-3.5-1-8.1-.6-13.8 1 1.1 4 2.3 7.3 3.5 9.7-2.9 2.3-4.9 5.9-6.2 10.8 3.3-.3 6.5-.3 9.7.1-.7 2.6-1 4.3-.8 5.1zm20.9 3.8c-1.9.5-5.6-2-11.2-7.7 1.6-.5 4-1.6 7-3.4 3.1-.4 5.6-.9 7.3-1.4.2 7.7-.8 11.9-3.1 12.5zm-14.5-17.2c-.6-2 1.4-3.7 5.9-5.1 4.1-1.2 6.4-.8 7 1 .5 2-1.2 3.6-5.3 4.7-4.5 1.3-7.1 1.1-7.6-.6zm-11.1 5.7c.5-2.6 2.3-5.2 5.3-7.8-1.6-2.6-2.8-5.3-3.6-8 4.5-1.3 8.5-1.3 12.2.1 2.1-5 4.2-7.8 6.3-8.3 2 2.6 3.6 5.2 4.7 8 3.7 0 6.6.1 8.7.2l-4.2 7.7 2.6 2.2c-1 .7-2.9 1.5-5.7 2.4.2-2.8 0-5.2-.5-7.1-.9-3.1-4-4-9.3-2.5-5.8 1.8-8.1 4.5-7 8.2.5 1.6 1.8 3.7 4 6.3-1.1.6-2.7 1.3-4.7 2.1l.8-3.2c-3.6-.5-6.7-.6-9.6-.3z" class="st8"/>
      <path d="M-99.1 515.9c4.7-18.3 7.7-34.9 9-49.8 1.3-20.6-.9-41.2-6.6-62 1 29.4.3 53.2-2.3 71.2-2.1 13.6-5.2 27.9-9.2 43.2.3-1.6.9-6 1.8-13.2.9-7.2 2.1-15.1 3.7-23.8 1.6-8.7 2.7-19 3.2-31 1-19.3-3.5-37.6-13.5-54.9 5.5 21.1 6.3 45.3 2.3 72.5-2.7 15.7-5.1 37.5-7.1 65.1h14.7c.7-4.2 2.1-10 4-17.3z" class="st7"/>
      <path d="M-31 466.7c-1.1-5.9-3.2-10.2-6.2-12.9 1.5-2.9 2.9-6.7 4.3-11.4-6.2-2-11.2-2.4-15.1-1.3-1-3.9-3.6-7.4-7.8-10.7-2.5 1.9-5.2 5.6-8 11-3.9-.7-7.8-.3-11.8 1l4.3 10.2c-1.8 1-3.4 2.4-4.8 4.2 1.6 1.4 3.4 2.7 5.4 4-.7 9-.2 15.1 1.4 18.1-6.4 5.3-11.2 23.4-14.6 54.4h5.7c.9-11.9 3.1-24.8 6.6-38.7 1.6-6.1 3.8-10.1 6.7-12.2 4 .4 7-.5 9.2-3 3.5-3.8 6.1-7 7.7-9.6 2.4 1.1 4.8 2.1 7 2.9.4-1 .1-2.9-.7-5.9 3.6-.4 7.1-.5 10.7-.1zm-32.7 10.6c-2.4-.8-3.3-5.8-2.6-14.9 1.8.6 4.4 1.1 7.8 1.6 3.3 2.2 5.7 3.6 7.4 4.1-6.3 6.8-10.5 9.8-12.6 9.2zm8.2-19.7c-4.3-1.4-6.2-3.3-5.5-5.6.7-2.2 3.3-2.6 7.6-1.2 5 1.5 7.1 3.6 6.3 6-.6 2-3.4 2.2-8.4.8zm10.1 6.2.5 3.8c-2.1-1-3.8-1.8-4.9-2.5 2.4-3 4-5.5 4.6-7.5 1.4-4.5-1.1-7.7-7.4-9.7-5.7-1.8-9.1-.9-10.2 2.9-.8 2.4-1.1 5.2-1 8.5-3-1-5.1-1.9-6.2-2.7l3.1-2.6-4.2-9.1c2.2-.2 5.3-.3 9.3-.3 1.3-3.2 3.2-6.4 5.6-9.4 2.2.7 4.4 4 6.5 9.9 4-1.7 8.4-1.8 13.2-.2-1 3.3-2.5 6.5-4.4 9.7 3.2 3.1 5.1 6.1 5.5 9.1-3.1-.4-6.5-.3-10 .1z" class="st8"/>
      <path fill="#bf3718" d="M-98.4 399.1c.6.9 1.1 1.2 1.8 1.2 1.7 0 4.8-2.3 10.1-7.2 3.7-3.5 5.5-5.5 13.2-15.7-1.3-.7-2.1-.9-4.8-.9-1.3 0-2.4.1-3.4.4-.6.1-1.2.2-1.5.2-.4 0-.6-.2-1-.5v-.3c.2-.8.5-1.2 1.9-1.9 2.7-1.4 4.1-1.9 5.5-1.9.6 0 1.6.1 3 .3.6.1 1.6.2 3 .2 4.7-6 6.9-9.8 6.9-11.2 0-.8-1.5-1.6-3-1.6-1.1 0-2.2.9-4.6 3.7-1.3 1.6-3.4 3.6-6.1 6.1-2.3 2.1-2.8 2.4-3.7 2.4-1 0-2.3-2-2.3-3.5 0-.6 0-.9.5-2.8.2-1.1.5-1.3 2.6-2.4 2-1.1 2.1-1.2 5.3-5.1 2.3-3 2.5-3.2 2.5-3.8 0-.2-.2-.6-.5-1.2-.7-1.2-1.1-2.3-1.1-3.2 0 0 0-.1.1-.3h.3c.9.3 1.4.5 1.7.6l2.8.9c3.4 1.4 4.6 2.7 4.8 4.8 4.6.9 5.1 1.1 6.3 1.9 1.6.9 2.9 3.2 2.9 4.9 0 1.2 0 1.2-3.2 4.1-.5.5-1.6 1.8-3 3.7-.5.5-1.6 2.2-3 3.9 7.9 5.5 15.7 9.8 21.8 12 7.4 2.3 8.3 3 10.8 7.3v.3c-.7 1.1-.7 1.2-2.3 1.3l-5.9.2c-3.3 0-5.8-1-9.5-3.7-1.4-1.1-4.5-3.6-9.6-7.9-4.2-3.5-5.1-4.1-8.7-5.7-12.1 13.7-14.4 16.1-18.6 19.1-4.4 3.2-8 5-10.2 5-1.2 0-2.4-1.6-2.4-3.1 0-.4.2-.6.5-1.1h.1zm25.1-12.3c1-.2 1.9-.2 2.4-.2 4.3 0 9.2 3.7 9.2 6.9 0 1-.6 2.3-1.3 2.9-.3.2-.5.3-.6.3l-5.5.3-2 .6-1.5.1v-.3c.4-.5.8-1 .9-1.1 2-2.3 2.2-2.6 2.1-2.9 0-.3-.3-.9-.9-1.4-1.5-1.5-2.2-2.8-2.9-4.8l.1-.4zm.8 14.4c1.6 1.5 2.3 1.9 4.4 2.4 4.2.9 4.5 1.1 6.3 2.8 2.5 2.3 4.1 4.7 4.1 6 0 .9-1.1 1.4-3 1.4-2.3 0-2.3 0-8.2-3-2-1-2.9-2.1-3.6-4.3-.5-1.7-1-3.5-1-4.1 0-.3.2-.7.5-1.2h.5z"/>
      <path fill="#2a3b92" d="m-152.4 352.3-21.2 26.1v4.4h20.2v4c0 1.4-.2 2.3-.7 2.7-.6.7-2.4 1-5.4 1.1v3.1h17.1v-3.1c-2.3-.1-3.8-.3-4.5-.4-1.1-.4-1.6-1.5-1.6-3.4v-4h7.6v-4.1h-7.6v-26.5h-3.9zm-1.1 26.5h-15.4l15.4-19.4v19.4z"/>
      <path d="M-116.4 431.6v-.1h-.1c0 .1 0 .1-.1.2 0 .3-.1.6-.2.9 0 .3 0 .5-.1.8 0 .3-.1.5-.2.8-.1 1.1-.6 2.1-1.3 2.8-.3.5-.7 1-1.2 1.4 1.2-.2 1.3 1.4.3 4.7-5.1 16.2-8.1 46.2-9 90.1h5.9c1.8-37.9 3.6-61.8 5.5-71.7 1.9-9.9 3.4-17 4.5-21.5 1-4.4-.3-7.2-4-8.4zm-26.1 70.9-.3.3c-.7 1.1-1.9 1.9-3.6 2v.1h.3c2.6 2.1 4.5 5.5 5.7 10.3 1.5 6.2 2.6 12.2 3.4 18h5.2c-2.2-17.1-5.8-27.4-10.7-30.7zm74.5-22.4c-.6-.4-1.1-1-1.5-1.7.1.2.1.3.2.5-6.4 5.3-11.2 23.4-14.6 54.4h5.7c.9-11.9 3.1-24.8 6.6-38.7 1.6-6.1 3.8-10.1 6.7-12.2-.2-.1-.5-.3-.7-.5-1-.3-1.8-.9-2.4-1.8z" class="st7"/>
    </g>
  </switch>
</svg>