<?xml version="1.0" encoding="utf-8"?>
<!DOCTYPE svg PUBLIC "-//W3C//DTD SVG 1.1//EN" "http://www.w3.org/Graphics/SVG/1.1/DTD/svg11.dtd" [
	<!ENTITY ns_extend "http://ns.adobe.com/Extensibility/1.0/">
	<!ENTITY ns_ai "http://ns.adobe.com/AdobeIllustrator/10.0/">
	<!ENTITY ns_graphs "http://ns.adobe.com/Graphs/1.0/">
	<!ENTITY ns_vars "http://ns.adobe.com/Variables/1.0/">
	<!ENTITY ns_imrep "http://ns.adobe.com/ImageReplacement/1.0/">
	<!ENTITY ns_sfw "http://ns.adobe.com/SaveForWeb/1.0/">
	<!ENTITY ns_custom "http://ns.adobe.com/GenericCustomNamespace/1.0/">
	<!ENTITY ns_adobe_xpath "http://ns.adobe.com/XPath/1.0/">
]>
<svg xmlns="http://www.w3.org/2000/svg" xml:space="preserve" id="svg2985" x="0" y="0" enable-background="new -192 293.9 210 255" version="1.1" viewBox="-192 293.9 210 255">
  <style>
    .st3{fill:#fff}
  </style>
  <switch>
    <g>
      <filter id="filter3970-5" width="1.2171124" height="1.2150326" x="-.10855621" y="-.10751629" color-interpolation-filters="sRGB">
        <feGaussianBlur id="feGaussianBlur3972-8" stdDeviation=".12800763"/>
      </filter>
      <g id="g4630" transform="matrix(1.0006 0 0 1 -1.3758072 203.40625)">
        <g id="g3062">
          <path id="rect4031" d="m-131.2 90.5 46.1.2 68.4-.2c22.9-.1 36.1 15.9 36.1 40.4v154.6c0 12.3-14 27.7-21.4 35.7s-22.1 24.3-33.6 24.3h-113c-22.9 0-41.3-5.6-41.3-30.2l-.3-162.3c0-6.4 17.3-24.3 24.8-32.4 7.4-8 22.7-30.2 34.2-30.1z"/>
          <path id="rect3767" fill="#005f00" d="M-122.4 103.2h104.5c13.8 0 24.8 11.1 24.9 24.9l.9 152.4c0 2-12.6 32-25.8 32h-104.5c-13.8 0-24.9-11.1-24.9-24.9V128.1c0-13.8 11.1-24.9 24.9-24.9z"/>
          <path id="rect3861" fill="#cddacd" d="M-137.4 118.1h99.6c13.7 0 24.9 11.2 24.9 24.9v159.5c0 13.8-11.1 24.9-24.9 24.9h-99.6c-13.7 0-24.9-11.2-24.9-24.9V143.1c0-13.8 11.2-25 24.9-25z"/>
          <path id="rect3765" d="M-147.3 133.1h104.5c13.7 0 24.9 11.2 24.9 24.9v149.5c0 13.8-11.1 24.9-24.9 24.9h-104.5c-13.7 0-24.9-11.2-24.9-24.9V158c0-13.7 11.1-24.9 24.9-24.9z" class="st3"/>
          <linearGradient id="rect3008_1_" x1="-324.8826" x2="-324.8826" y1="569.5873" y2="531.0685" gradientTransform="matrix(4.9807 0 0 -4.9841 1515.6201 2981.9607)" gradientUnits="userSpaceOnUse">
            <stop offset="0" stop-color="#d0e4cc"/>
            <stop offset="1" stop-color="#fbffec"/>
          </linearGradient>
          <path id="rect3008" fill="url(#rect3008_1_)" d="M-157.3 143.1h109.5c11 0 19.9 8.9 19.9 19.9v149.5c0 11-8.9 19.9-19.9 19.9h-109.5c-11 0-19.9-8.9-19.9-19.9V163c0-11 8.9-19.9 19.9-19.9z"/>
          <path id="path3932" d="M2.2 115.7c0 1.5-1.3 2.8-2.8 2.8s-2.8-1.3-2.8-2.8 1.3-2.8 2.8-2.8 2.8 1.2 2.8 2.8z" class="st3"/>
          <g id="path3936" filter="url(#filter3970-5)">
            <linearGradient id="SVGID_1_" x1="-315.7709" x2="-318.8866" y1="590.4699" y2="587.0007" gradientTransform="matrix(7.1013 0 0 -6.6887 2243.616 4061.2654)" gradientUnits="userSpaceOnUse">
              <stop offset="0" stop-color="#fff"/>
              <stop offset="1" stop-color="#fff" stop-opacity="0"/>
            </linearGradient>
            <path fill="url(#SVGID_1_)" d="m-2.8 114.3-28.8 24.6 8.2 6 25.2-28.3z"/>
          </g>
          <path id="path3882" d="M-15 137.6c0 4.8-3.9 8.7-8.7 8.7-4.8 0-8.7-3.9-8.7-8.7 0-4.8 3.9-8.7 8.7-8.7 4.7 0 8.7 3.9 8.7 8.7z" class="st3"/>
        </g>
      </g>
      <path fill="#038249" stroke="#038249" stroke-miterlimit="10" stroke-width="2" d="M-128.8 455.2c3.2-.8 4.8-1.9 4.8-3.2 0-1.2-1.6-2.2-4.8-3.1-3.2-.9-6.9-1.4-11.3-1.4s-8.1.5-11.3 1.4c-3.1.9-4.7 2-4.7 3.1 0 1.3 1.6 2.4 4.7 3.2.2.1.5.1.9.2v28.8c-.4.1-.7.1-.9.2-3.1 1-4.7 2-4.7 3.2 0 1.3 1.6 2.4 4.7 3.2.2.1.5.1.9.2v28.8c-.4.1-.7.1-.9.2-3.1.9-4.7 1.9-4.7 3.2 0 1.3 1.6 2.4 4.7 3.2 3.1.8 6.9 1.2 11.3 1.2 4.3 0 8.1-.4 11.3-1.2 3.2-.8 4.8-1.9 4.8-3.2 0-1.2-1.6-2.3-4.8-3.2-.4-.1-.9-.3-1.3-.3v-28.6c.4-.1.9-.3 1.3-.3 3.2-.8 4.8-1.9 4.8-3.2 0-1.2-1.6-2.2-4.8-3.2-.4-.1-.9-.2-1.3-.3v-28.6c.4-.2.9-.3 1.3-.3zm-4.4 69.3c-2 .4-4.2.6-6.8.6-2.6 0-4.9-.2-6.8-.6-1.9-.4-2.8-.9-2.8-1.6 0-.6 1-1.1 2.9-1.6.7-.1 1.5-.3 2.4-.4v-29c1.3.1 2.7.1 4.3.1s3 0 4.5-.1V521c.8.1 1.6.2 2.3.3 2 .5 3 1.1 3 1.6 0 .7-1 1.2-3 1.6zm0-35.3c-2 .4-4.2.6-6.8.6-2.6 0-4.9-.2-6.8-.6-1.9-.4-2.8-.9-2.8-1.6 0-.6.9-1.1 2.8-1.6s4.1-.7 6.8-.7c2.6 0 4.8.2 6.8.7 2 .5 3 1 3 1.6 0 .6-1 1.2-3 1.6zm0-35.6c-.7.2-1.5.4-2.3.4v29.2c-1.5-.1-3-.2-4.5-.2s-3 0-4.3.1V454c-.9-.1-1.7-.2-2.4-.4-1.9-.4-2.9-.9-2.9-1.5s.9-1.1 2.8-1.6 4.1-.7 6.8-.7c2.6 0 4.8.2 6.8.7 2 .5 3 1 3 1.6 0 .6-1 1.1-3 1.5zm40.4-90.7c3.2-.8 4.8-1.9 4.8-3.2 0-1.2-1.6-2.2-4.8-3.1-3.2-.9-6.9-1.4-11.3-1.4s-8.1.5-11.3 1.4c-3.1.9-4.7 2-4.7 3.1 0 1.3 1.6 2.4 4.7 3.2.2.1.5.1.9.2v28.8c-.4.1-.7.1-.9.2-3.1 1-4.7 2-4.7 3.2 0 1.3 1.6 2.4 4.7 3.2.2.1.5.1.9.2v28.8c-.4.1-.7.1-.9.2-3.1.9-4.7 1.9-4.7 3.2 0 1.3 1.6 2.4 4.7 3.2 3.1.8 6.9 1.2 11.3 1.2 4.3 0 8.1-.4 11.3-1.2 3.2-.8 4.8-1.9 4.8-3.2 0-1.2-1.6-2.3-4.8-3.2-.4-.1-.9-.3-1.3-.3v-28.6c.4-.1.9-.3 1.3-.3 3.2-.8 4.8-1.9 4.8-3.2 0-1.2-1.6-2.2-4.8-3.2-.4-.1-.9-.2-1.3-.3v-28.6c.4-.1.8-.3 1.3-.3zm-4.4 69.3c-2 .4-4.2.6-6.8.6-2.6 0-4.9-.2-6.8-.6-1.9-.4-2.8-.9-2.8-1.6 0-.6 1-1.1 2.9-1.6.7-.1 1.5-.3 2.4-.4v-29c1.3.1 2.7.1 4.3.1s3 0 4.5-.1v29.1c.8.1 1.6.2 2.3.3 2 .5 3 1.1 3 1.6-.1.7-1.1 1.2-3 1.6zm0-35.3c-2 .4-4.2.6-6.8.6-2.6 0-4.9-.2-6.8-.6-1.9-.4-2.8-.9-2.8-1.6 0-.6.9-1.1 2.8-1.6s4.1-.7 6.8-.7c2.6 0 4.8.2 6.8.7 2 .5 3 1 3 1.6-.1.6-1.1 1.2-3 1.6zm0-35.6c-.7.2-1.5.4-2.3.4V391c-1.5-.1-3-.2-4.5-.2s-3 0-4.3.1v-29.1c-.9-.1-1.7-.2-2.4-.4-1.9-.4-2.9-.9-2.9-1.5s.9-1.1 2.8-1.6 4.1-.7 6.8-.7c2.6 0 4.8.2 6.8.7 2 .5 3 1 3 1.6-.1.6-1.1 1.1-3 1.4zm40.3 93.9c3.2-.8 4.8-1.9 4.8-3.2 0-1.2-1.6-2.2-4.8-3.1-3.2-.9-6.9-1.4-11.3-1.4s-8.1.5-11.3 1.4c-3.1.9-4.7 2-4.7 3.1 0 1.3 1.6 2.4 4.7 3.2.2.1.5.1.9.2v28.8c-.4.1-.7.1-.9.2-3.1 1-4.7 2-4.7 3.2 0 1.3 1.6 2.4 4.7 3.2.2.1.5.1.9.2v28.8c-.4.1-.7.1-.9.2-3.1.9-4.7 1.9-4.7 3.2 0 1.3 1.6 2.4 4.7 3.2 3.1.8 6.9 1.2 11.3 1.2 4.3 0 8.1-.4 11.3-1.2 3.2-.8 4.8-1.9 4.8-3.2 0-1.2-1.6-2.3-4.8-3.2-.4-.1-.9-.3-1.3-.3v-28.6c.4-.1.9-.3 1.3-.3 3.2-.8 4.8-1.9 4.8-3.2 0-1.2-1.6-2.2-4.8-3.2-.4-.1-.9-.2-1.3-.3v-28.6c.4-.2.9-.3 1.3-.3zm-4.4 69.3c-2 .4-4.2.6-6.8.6-2.6 0-4.9-.2-6.8-.6-1.9-.4-2.8-.9-2.8-1.6 0-.6 1-1.1 2.9-1.6.7-.1 1.5-.3 2.4-.4v-29c1.3.1 2.7.1 4.3.1s3 0 4.5-.1V521c.8.1 1.6.2 2.3.3 2 .5 3 1.1 3 1.6 0 .7-1 1.2-3 1.6zm0-35.3c-2 .4-4.2.6-6.8.6-2.6 0-4.9-.2-6.8-.6-1.9-.4-2.8-.9-2.8-1.6 0-.6.9-1.1 2.8-1.6s4.1-.7 6.8-.7c2.6 0 4.8.2 6.8.7 2 .5 3 1 3 1.6 0 .6-1 1.2-3 1.6zm0-35.6c-.7.2-1.5.4-2.3.4v29.2c-1.5-.1-3-.2-4.5-.2s-3 0-4.3.1V454c-.9-.1-1.7-.2-2.4-.4-1.9-.4-2.9-.9-2.9-1.5s.9-1.1 2.8-1.6 4.1-.7 6.8-.7c2.6 0 4.8.2 6.8.7 2 .5 3 1 3 1.6 0 .6-1 1.1-3 1.5z"/>
    </g>
  </switch>
</svg>