<svg version="1.1" id="svg2985" xmlns="http://www.w3.org/2000/svg" x="0" y="0" viewBox="-192 293.9 210 255" style="enable-background:new -192 293.9 210 255" xml:space="preserve"><style>.st0{enable-background:new}.st3{fill:#fff}</style><switch><g><filter width="1.217" height="1.215" y="-.108" x="-.109" id="filter3970-5" color-interpolation-filters="sRGB"><feGaussianBlur stdDeviation=".128" id="feGaussianBlur3972-8"/></filter><g id="g4630" transform="matrix(1.0006 0 0 1 -1.376 203.406)" class="st0"><g id="g3062"><path id="rect4031" d="m-131.2 90.5 46.1.2 68.4-.2c22.9-.1 36.1 15.9 36.1 40.4v154.6c0 12.3-14 27.7-21.4 35.7s-22.1 24.3-33.6 24.3h-113c-22.9 0-41.3-5.6-41.3-30.2l-.3-162.3c0-6.4 17.3-24.3 24.8-32.4 7.4-8 22.7-30.2 34.2-30.1z"/><path id="rect3767" d="M-122.4 103.2h104.5c13.8 0 24.8 11.1 24.9 24.9l.9 152.4c0 2-12.6 32-25.8 32h-104.5c-13.8 0-24.9-11.1-24.9-24.9V128.1c0-13.8 11.1-24.9 24.9-24.9z" style="fill:#005f00"/><path id="rect3861" d="M-137.4 118.1h99.6c13.7 0 24.9 11.2 24.9 24.9v159.5c0 13.8-11.1 24.9-24.9 24.9h-99.6c-13.7 0-24.9-11.2-24.9-24.9V143.1c0-13.8 11.2-25 24.9-25z" style="fill:#cddacd"/><path id="rect3765" class="st3" d="M-147.3 133.1h104.5c13.7 0 24.9 11.2 24.9 24.9v149.5c0 13.8-11.1 24.9-24.9 24.9h-104.5c-13.7 0-24.9-11.2-24.9-24.9V158c0-13.7 11.1-24.9 24.9-24.9z"/><linearGradient id="rect3008_1_" gradientUnits="userSpaceOnUse" x1="-324.883" y1="569.587" x2="-324.883" y2="531.068" gradientTransform="matrix(4.9807 0 0 -4.9841 1515.62 2981.96)"><stop offset="0" style="stop-color:#d0e4cc"/><stop offset="1" style="stop-color:#fbffec"/></linearGradient><path id="rect3008" d="M-157.3 143.1h109.5c11 0 19.9 8.9 19.9 19.9v149.5c0 11-8.9 19.9-19.9 19.9h-109.5c-11 0-19.9-8.9-19.9-19.9V163c0-11 8.9-19.9 19.9-19.9z" style="fill:url(#rect3008_1_)"/><path id="path3932" class="st3" d="M2.2 115.7c0 1.5-1.3 2.8-2.8 2.8s-2.8-1.3-2.8-2.8 1.3-2.8 2.8-2.8 2.8 1.2 2.8 2.8z"/><g id="path3936" style="filter:url(#filter3970-5)"><linearGradient id="SVGID_1_" gradientUnits="userSpaceOnUse" x1="-315.771" y1="590.47" x2="-318.887" y2="587.001" gradientTransform="matrix(7.1013 0 0 -6.6887 2243.616 4061.265)"><stop offset="0" style="stop-color:#fff"/><stop offset="1" style="stop-color:#fff;stop-opacity:0"/></linearGradient><path style="fill:url(#SVGID_1_)" d="m-2.8 114.3-28.8 24.6 8.2 6 25.2-28.3z"/></g><path id="path3882" class="st3" d="M-15 137.6c0 4.8-3.9 8.7-8.7 8.7-4.8 0-8.7-3.9-8.7-8.7 0-4.8 3.9-8.7 8.7-8.7 4.7 0 8.7 3.9 8.7 8.7z"/><g id="g3383" transform="matrix(.99247 0 0 1 -.326 -201.684)" class="st0"><g id="g3897" transform="matrix(4.25073 0 0 4.26397 13.116 4.295)"><g id="g3911" transform="translate(0 4)"><path id="path3899" d="M-21.1 98.5a6.7 6.7 0 1 1-6.7-6.7c3.7 0 6.7 2.9 6.7 6.7z" style="fill:#bf3718"/><g id="g3901" transform="rotate(-45 17.625 29.531)"><path id="path3903" class="st3" d="M-63.6 46.1s-1.2 1-2.7 1c-1.5 0-2.7-1-2.7-1s1.2-1 2.7-1c1.5 0 2.7 1 2.7 1z"/><path id="path3905" class="st3" d="M-62.9 46.1s1.2-1 2.7-1c1.5 0 2.7 1 2.7 1s-1.2 1-2.7 1-2.7-1-2.7-1z"/><path id="path3907" class="st3" d="M-63.3 46.5s1 1.2 1 2.7c0 1.5-1 2.7-1 2.7s-1-1.2-1-2.7c0-1.5 1-2.7 1-2.7z"/><path id="path3909" class="st3" d="M-63.3 45.8s-1-1.2-1-2.7c0-1.5 1-2.7 1-2.7s1 1.2 1 2.7c0 1.4-1 2.7-1 2.7z"/></g></g></g><g id="g3977" transform="matrix(4.25073 0 0 4.26397 -21.958 -48.947)"><g id="g3979" transform="translate(0 4)"><path id="path3981" d="M-21.1 98.5a6.7 6.7 0 1 1-6.7-6.7c3.7 0 6.7 2.9 6.7 6.7z" style="fill:#2a3b92"/><g id="g3983" transform="rotate(-45 17.625 29.531)"><path id="path3985" class="st3" d="M-63.6 46.1s-1.2 1-2.7 1c-1.5 0-2.7-1-2.7-1s1.2-1 2.7-1c1.5 0 2.7 1 2.7 1z"/><path id="path3987" class="st3" d="M-62.9 46.1s1.2-1 2.7-1 2.7 1 2.7 1-1.2 1-2.7 1-2.7-1-2.7-1z"/><path id="path3989" class="st3" d="M-63.3 46.5s1 1.2 1 2.7-1 2.7-1 2.7-1-1.2-1-2.7 1-2.7 1-2.7z"/><path id="path3991" class="st3" d="M-63.3 45.8s-1-1.2-1-2.7c0-1.5 1-2.7 1-2.7s1 1.2 1 2.7c0 1.4-1 2.7-1 2.7z"/></g></g></g><g id="g3993" transform="matrix(4.25073 0 0 4.26397 52.845 54.112)"><g id="g3995" transform="translate(0 4)"><path id="path3997" d="M-21.1 98.5a6.7 6.7 0 1 1-6.7-6.7c3.7 0 6.7 2.9 6.7 6.7z" style="fill:#038249"/><g id="g3999" transform="rotate(-45 17.625 29.531)"><path id="path4001" class="st3" d="M-63.6 46.1s-1.2 1-2.7 1c-1.5 0-2.7-1-2.7-1s1.2-1 2.7-1c1.5 0 2.7 1 2.7 1z"/><path id="path4003" class="st3" d="M-62.9 46.1s1.2-1 2.7-1c1.5 0 2.7 1 2.7 1s-1.2 1-2.7 1c-1.5 0-2.7-1-2.7-1z"/><path id="path4005" class="st3" d="M-63.3 46.5s1 1.2 1 2.7c0 1.5-1 2.7-1 2.7s-1-1.2-1-2.7c0-1.5 1-2.7 1-2.7z"/><path id="path4007" class="st3" d="M-63.3 45.8s-1-1.2-1-2.7c0-1.5 1-2.7 1-2.7s1 1.2 1 2.7c0 1.4-1 2.7-1 2.7z"/></g></g></g></g></g></g></g></switch></svg>