<svg version="1.1" id="svg2985" xmlns="http://www.w3.org/2000/svg" x="0" y="0" viewBox="-192 293.9 210 255" style="enable-background:new -192 293.9 210 255" xml:space="preserve"><style>.st3{fill:#fff}.st7{fill:#038249;stroke:#038249;stroke-width:2;stroke-miterlimit:10}</style><switch><g><filter width="1.217" height="1.215" color-interpolation-filters="sRGB" id="filter3970-5" x="-.109" y="-.108"><feGaussianBlur stdDeviation=".128" id="feGaussianBlur3972-8"/></filter><g id="g4630" transform="matrix(1.0006 0 0 1 -1.376 203.406)" style="enable-background:new"><g id="g3062"><path id="rect4031" d="m-131.2 90.5 46.1.2 68.4-.2c22.9-.1 36.1 15.9 36.1 40.4v154.6c0 12.3-14 27.7-21.4 35.7s-22.1 24.3-33.6 24.3h-113c-22.9 0-41.3-5.6-41.3-30.2l-.3-162.3c0-6.4 17.3-24.3 24.8-32.4 7.4-8 22.7-30.2 34.2-30.1z"/><path id="rect3767" d="M-122.4 103.2h104.5c13.8 0 24.8 11.1 24.9 24.9l.9 152.4c0 2-12.6 32-25.8 32h-104.5c-13.8 0-24.9-11.1-24.9-24.9V128.1c0-13.8 11.1-24.9 24.9-24.9z" style="fill:#005f00"/><path id="rect3861" d="M-137.4 118.1h99.6c13.7 0 24.9 11.2 24.9 24.9v159.5c0 13.8-11.1 24.9-24.9 24.9h-99.6c-13.7 0-24.9-11.2-24.9-24.9V143.1c0-13.8 11.2-25 24.9-25z" style="fill:#cddacd"/><path id="rect3765" class="st3" d="M-147.3 133.1h104.5c13.7 0 24.9 11.2 24.9 24.9v149.5c0 13.8-11.1 24.9-24.9 24.9h-104.5c-13.7 0-24.9-11.2-24.9-24.9V158c0-13.7 11.1-24.9 24.9-24.9z"/><linearGradient id="rect3008_1_" gradientUnits="userSpaceOnUse" x1="-324.883" y1="569.587" x2="-324.883" y2="531.068" gradientTransform="matrix(4.9807 0 0 -4.9841 1515.62 2981.96)"><stop offset="0" style="stop-color:#d0e4cc"/><stop offset="1" style="stop-color:#fbffec"/></linearGradient><path id="rect3008" d="M-157.3 143.1h109.5c11 0 19.9 8.9 19.9 19.9v149.5c0 11-8.9 19.9-19.9 19.9h-109.5c-11 0-19.9-8.9-19.9-19.9V163c0-11 8.9-19.9 19.9-19.9z" style="fill:url(#rect3008_1_)"/><path id="path3932" class="st3" d="M2.2 115.7c0 1.5-1.3 2.8-2.8 2.8s-2.8-1.3-2.8-2.8 1.3-2.8 2.8-2.8 2.8 1.2 2.8 2.8z"/><g id="path3936" style="filter:url(#filter3970-5)"><linearGradient id="SVGID_1_" gradientUnits="userSpaceOnUse" x1="-315.771" y1="590.47" x2="-318.887" y2="587.001" gradientTransform="matrix(7.1013 0 0 -6.6887 2243.616 4061.265)"><stop offset="0" style="stop-color:#fff"/><stop offset="1" style="stop-color:#fff;stop-opacity:0"/></linearGradient><path style="fill:url(#SVGID_1_)" d="m-2.8 114.3-28.8 24.6 8.2 6 25.2-28.3z"/></g><path id="path3882" class="st3" d="M-15 137.6c0 4.8-3.9 8.7-8.7 8.7-4.8 0-8.7-3.9-8.7-8.7 0-4.8 3.9-8.7 8.7-8.7 4.7 0 8.7 3.9 8.7 8.7z"/></g></g><path class="st7" d="M-157.8 363.2v28.6c-.4.1-.9.3-1.3.3-3.2.8-4.8 1.9-4.8 3.2 0 1.2 1.6 2.2 4.8 3.2.4.1.9.2 1.3.3v16.5c-1.9-.7-3.2-.8-3.8-.1-.8.9-.4 2.7 1.3 5.5.7 1.2 1.6 2.3 2.5 3.5v3.2c-.4.1-.9.3-1.3.3-3.2.8-4.8 1.9-4.8 3.2 0 1.2 1.6 2.2 4.8 3.1 3.2.9 6.9 1.4 11.3 1.4h3.3l1 .4c3 1.5 4.9 1.8 5.7.9.5-.5.6-1.3.2-2.3.4-.1.7-.3 1-.3 3.1-1 4.7-2 4.7-3.2 0-1.3-1.6-2.4-4.7-3.2-.2-.1-.5-.1-.9-.2v-.2l16.7-18.5c.4.2.8.4 1.2.7 3 1.4 4.9 1.7 5.6.9.9-1 .4-2.9-1.3-5.6-.3-.4-.5-.7-.8-1.1l12.2-13.5 12.2 13.5c-.2.4-.5.7-.8 1.1-1.8 2.7-2.3 4.6-1.4 5.6.8.8 2.7.5 5.7-.9.4-.2.8-.4 1.2-.7l16.8 18.7c-.3.1-.6.2-1 .2-3.2.8-4.8 1.9-4.8 3.2 0 1.2 1.6 2.2 4.7 3.2l1.1.3c-.4 1-.3 1.8.2 2.3.8.9 2.7.6 5.6-.9.4-.1.7-.3 1.1-.4h3.3c4.4 0 8.1-.5 11.3-1.4 3.1-.9 4.7-2 4.7-3.1 0-1.3-1.6-2.4-4.7-3.2-.2-.1-.5-.1-.9-.2v-4c.7-1 1.4-1.9 2-2.9 1.7-2.8 2.1-4.6 1.3-5.5-.6-.7-1.7-.7-3.3-.1v-16.4c.4-.1.7-.1.9-.2 3.1-1 4.7-2 4.7-3.2 0-1.3-1.6-2.4-4.7-3.2-.2-.1-.5-.1-.9-.2V363c.4-.1.7-.1.9-.2 3.1-.9 4.7-1.9 4.7-3.2 0-1.3-1.6-2.4-4.7-3.2-3.1-.8-6.9-1.2-11.3-1.2-4.3 0-8.1.4-11.3 1.2-3.2.8-4.8 1.9-4.8 3.2 0 1.2 1.6 2.3 4.8 3.2.4.1.9.3 1.3.3v26.3c-.1-.2-.2-.4-.3-.7-.9-1-2.8-.7-5.7.9-.2.1-.5.2-.8.3L-96 368.7c.2-.3.4-.5.5-.7 1.8-2.8 2.2-4.7 1.3-5.6-.9-1-2.7-.7-5.6.9-1.4.7-2.8 1.5-4.2 2.6-1.5-1.1-2.9-2-4.3-2.6-2.9-1.5-4.7-1.8-5.6-.9-.8 1-.3 2.8 1.4 5.6.1.1.3.4.4.7l-19.3 21.3c-.3-.1-.5-.3-.8-.3-2.7-1.5-4.5-1.8-5.5-.9v-25.7c.4-.1.7-.1.9-.2 3.1-.9 4.7-1.9 4.7-3.2 0-1.3-1.6-2.4-4.7-3.2-3.1-.8-6.9-1.2-11.3-1.2-4.3 0-8.1.4-11.3 1.2-3.2.8-4.8 1.9-4.8 3.2 0 1.2 1.6 2.3 4.8 3.2.7.1 1.2.2 1.6.3zm87.9 28.6c-.1.1-.3.1-.4.2.2-.6.4-1.1.4-1.4v1.2zm.1 38.9c0-.6 1-1.1 3-1.6.7-.1 1.5-.3 2.3-.3v-29.1c1.5.1 3 .1 4.5.1s3 0 4.3-.1v29c.9.1 1.7.3 2.4.4 1.9.5 2.9 1.1 2.9 1.6 0 .7-.9 1.2-2.8 1.6-1.9.4-4.1.6-6.8.6-2.6 0-4.8-.2-6.8-.6-2-.5-3-1-3-1.6zm0-35.4c0-.7 1-1.2 3-1.6 2-.4 4.2-.6 6.8-.6 2.6 0 4.9.2 6.8.6 1.9.4 2.8.9 2.8 1.6 0 .6-.9 1.1-2.8 1.6s-4.1.7-6.8.7c-2.6 0-4.8-.2-6.8-.7-2-.5-3-1-3-1.6zm0-35.5c0-.6 1-1.1 3-1.6s4.2-.7 6.8-.7c2.6 0 4.9.2 6.8.7 1.9.5 2.8 1 2.8 1.6 0 .7-1 1.2-2.9 1.5-.7.2-1.5.4-2.4.4v29.1c-1.3-.1-2.7-.1-4.3-.1s-3 .1-4.5.2v-29.2c-.8-.1-1.6-.2-2.3-.4-2-.3-3-.8-3-1.5zm-12.7 45.9c1.2-.9 2.3-1.8 3.5-2.9 1.1-1 2.1-2 3.1-3l6 6.7v13.1l-12.6-13.9zm-5.7-2.8c1.2-1.6 2.8-3.3 4.7-5 1.9-1.8 3.7-3.1 5.4-4.1 1.7-1 2.7-1.2 3.2-.8.1.1.1.3.1.4-.8.5-1.2 1.1-1.2 1.8 0 .3.1.5.2.8l-.2.1c-1 1.6-2.5 3.3-4.5 5.1-1.8 1.8-3.6 3.1-5.4 4.1-1.8 1-2.9 1.2-3.2.8-.6-.5-.3-1.5.9-3.2zm-12.1-16.9 3.3-3.6c.4.2.8.4 1.2.7 2.7 1.3 4.5 1.6 5.5 1l8.6 9.4c-1 .8-2.1 1.7-3.3 2.7-1.1 1-2.2 2.1-3.2 3.1l-12.1-13.3zm-19.4 13.3c-.9-1-1.9-1.9-3.1-3-1.1-1-2.2-2-3.4-2.9l19.6-21.8c-.5-.6-1-1.2-1.4-1.8-1.2-1.6-1.6-2.7-1.1-3.2.4-.4 1.4-.2 3.2.8 1.8 1 3.6 2.3 5.5 4 1.9 1.8 3.4 3.4 4.4 5.1 1.1 1.6 1.4 2.6 1 3.1-.4.5-1.5.3-3.2-.7-.7-.4-1.4-.9-2.1-1.4l-19.4 21.8zm-2.2 6c-1.8-1-3.6-2.3-5.5-4.1-1.9-1.8-3.4-3.4-4.5-5.1 0-.1 0-.1-.1-.2.1-.2.1-.4.1-.7 0-.6-.4-1.1-1.1-1.6 0-.2 0-.4.1-.5.4-.4 1.5-.2 3.1.8s3.5 2.3 5.4 4.1c1.9 1.7 3.4 3.4 4.6 5 1.2 1.6 1.5 2.7 1.1 3.1-.3.4-1.4.1-3.2-.8zm-15.7.9 5.6-6.3c.9 1 1.9 1.9 3.1 3 1.2 1 2.3 2 3.4 2.9l-12.1 13.4v-13zm-20.1 24.5c0-.6 1-1.1 3-1.6.7-.1 1.5-.3 2.3-.3v-29.1c1.5.1 3 .1 4.5.1s3 0 4.3-.1v29c.9.1 1.7.3 2.4.4 1.9.5 2.9 1.1 2.9 1.6 0 .7-.9 1.2-2.8 1.6-1.9.4-4.1.6-6.8.6-2.6 0-4.8-.2-6.8-.6-2-.5-3-1-3-1.6zm0-35.4c0-.7 1-1.2 3-1.6 2-.4 4.2-.6 6.8-.6 2.6 0 4.9.2 6.8.6 1.9.4 2.8.9 2.8 1.6 0 .6-.9 1.1-2.8 1.6s-4.1.7-6.8.7c-2.6 0-4.8-.2-6.8-.7-2-.5-3-1-3-1.6zm0-35.5c0-.6 1-1.1 3-1.6s4.2-.7 6.8-.7c2.6 0 4.9.2 6.8.7 1.9.5 2.8 1 2.8 1.6 0 .7-1 1.2-2.9 1.5-.7.2-1.5.4-2.4.4v29.1c-1.3-.1-2.7-.1-4.3-.1s-3 .1-4.5.2v-29.2c-.8-.1-1.6-.2-2.3-.4-2-.3-3-.8-3-1.5zM-48.9 455.2c3.2-.8 4.8-1.9 4.8-3.2 0-1.2-1.6-2.2-4.8-3.1-3.2-.9-6.9-1.4-11.3-1.4-1.2 0-2.3 0-3.3.1l-1-.5c-3-1.5-4.9-1.8-5.7-.9-.5.6-.6 1.4-.2 2.4-.4.1-.7.1-1 .2-3.1 1-4.7 2-4.7 3.2 0 1.3 1.6 2.4 4.7 3.2.2.1.5.1.9.2v.2L-87.1 474c-.4-.2-.8-.4-1.2-.7-3-1.4-4.9-1.7-5.6-.9-.9 1-.4 2.9 1.3 5.6.3.4.5.7.8 1.1l-12.2 13.5-12.2-13.5c.2-.4.5-.7.8-1.1 1.8-2.7 2.3-4.6 1.4-5.6-.8-.8-2.7-.5-5.7.9-.4.2-.8.4-1.2.7l-16.8-18.7c.3-.1.6-.1 1-.2 3.2-.8 4.8-1.9 4.8-3.2 0-1.2-1.6-2.2-4.7-3.2l-1.1-.2c.4-1 .3-1.8-.2-2.4-.8-.9-2.7-.6-5.6.9-.4.1-.7.3-1.1.5-1-.1-2.1-.1-3.3-.1-4.4 0-8.1.5-11.3 1.4-3.1.9-4.7 2-4.7 3.1 0 1.3 1.6 2.4 4.7 3.2.2.1.5.1.9.2v4c-.7 1-1.4 1.9-2 2.9-1.7 2.8-2.1 4.6-1.3 5.5.6.7 1.7.7 3.3.2v16.3c-.4.1-.7.1-.9.2-3.1 1-4.7 2-4.7 3.2 0 1.3 1.6 2.4 4.7 3.2.2.1.5.1.9.2v28.8c-.4.1-.7.1-.9.2-3.1.9-4.7 1.9-4.7 3.2 0 1.3 1.6 2.4 4.7 3.2 3.1.8 6.9 1.2 11.3 1.2 4.3 0 8.1-.4 11.3-1.2 3.2-.8 4.8-1.9 4.8-3.2 0-1.2-1.6-2.3-4.8-3.2-.4-.1-.9-.3-1.3-.3v-26.3c.1.3.2.5.3.7.9 1 2.8.7 5.7-.9.2-.1.5-.2.8-.3l19.3 21.3c-.2.3-.4.5-.5.7-1.8 2.8-2.2 4.7-1.3 5.6.9 1 2.7.7 5.6-.9 1.4-.7 2.8-1.5 4.2-2.6 1.5 1.1 2.9 2 4.3 2.6 2.9 1.5 4.7 1.8 5.6.9.8-1 .3-2.8-1.4-5.6-.1-.1-.3-.4-.4-.7l19.3-21.3c.3.1.5.3.8.3 2.7 1.5 4.5 1.8 5.5 1v25.6c-.4.1-.7.1-.9.2-3.1.9-4.7 1.9-4.7 3.2 0 1.3 1.6 2.4 4.7 3.2 3.1.8 6.9 1.2 11.3 1.2 4.3 0 8.1-.4 11.3-1.2 3.2-.8 4.8-1.9 4.8-3.2 0-1.2-1.6-2.3-4.8-3.2-.4-.1-.9-.3-1.3-.3v-28.6c.4-.1.9-.3 1.3-.3 3.2-.8 4.8-1.9 4.8-3.2 0-1.2-1.6-2.2-4.8-3.2-.4-.1-.9-.2-1.3-.3v-16.4c1.9.7 3.2.7 3.8 0 .8-.9.4-2.7-1.3-5.5-.7-1.1-1.6-2.2-2.5-3.4v-3.3c-.1-.2.4-.3.8-.3zm-92.3 69.3c-2 .4-4.2.6-6.8.6-2.6 0-4.9-.2-6.8-.6-1.9-.4-2.8-.9-2.8-1.6 0-.6 1-1.1 2.9-1.6.7-.1 1.5-.3 2.4-.4v-29c1.3.1 2.7.1 4.3.1s3 0 4.5-.1V521c.8.1 1.6.2 2.3.3 2 .5 3 1.1 3 1.6 0 .7-1 1.2-3 1.6zm0-35.3c-2 .4-4.2.6-6.8.6-2.6 0-4.9-.2-6.8-.6-1.9-.4-2.8-.9-2.8-1.6 0-.6.9-1.1 2.8-1.6s4.1-.7 6.8-.7c2.6 0 4.8.2 6.8.7 2 .5 3 1 3 1.6 0 .6-1 1.2-3 1.6zm0-35.6c-.7.2-1.5.4-2.3.4v29.2c-1.5-.1-3-.2-4.5-.2s-3 0-4.3.1V454c-.9-.1-1.7-.2-2.4-.4-1.9-.4-2.9-.9-2.9-1.5s.9-1.1 2.8-1.6 4.1-.7 6.8-.7c2.6 0 4.8.2 6.8.7 2 .5 3 1 3 1.6 0 .6-1 1.1-3 1.5zm3.1 38.8v-1.3c.1-.1.3-.1.4-.1-.2.5-.3 1-.4 1.4zm0-16.2v-13.1l12.6 14c-1.2.9-2.3 1.8-3.5 2.9-1.1 1-2.1 2-3.1 3l-6-6.8zm5 13.6c-.1-.1-.1-.2-.1-.4.8-.5 1.2-1.1 1.2-1.8 0-.2-.1-.4-.2-.7l.2-.2c1-1.6 2.5-3.3 4.5-5.1 1.8-1.8 3.6-3.1 5.4-4.1 1.8-1 2.9-1.2 3.2-.8.5.4.2 1.5-1 3.1s-2.8 3.3-4.7 5c-1.9 1.8-3.7 3.1-5.4 4.1-1.6 1-2.6 1.3-3.1.9zm15.4 9-8.6-9.4c1-.8 2.1-1.7 3.3-2.7 1.1-1 2.2-2 3.2-3.1l12.1 13.3-3.3 3.6c-.4-.2-.8-.4-1.2-.7-2.7-1.4-4.5-1.7-5.5-1zm16.3 12.2c.5.6 1 1.2 1.4 1.9 1.2 1.6 1.6 2.7 1.1 3.2-.4.4-1.4.1-3.2-.9-1.8-1-3.6-2.3-5.5-4.1-1.9-1.8-3.4-3.4-4.4-5.1-1.1-1.6-1.4-2.6-1-3.1.4-.4 1.5-.2 3.2.8.7.4 1.4.8 2.1 1.3l19.6-21.5c.9 1 1.9 1.9 3.1 3 1.1 1 2.2 2 3.4 2.9l-19.8 21.6zm26.4-21.2c-.4.4-1.5.2-3.1-.8s-3.5-2.3-5.4-4.1c-1.9-1.7-3.4-3.4-4.6-5-1.2-1.6-1.5-2.7-1.1-3.1.4-.4 1.4-.2 3.2.8 1.8 1 3.6 2.3 5.5 4.1 1.9 1.8 3.4 3.4 4.5 5.1 0 .1 0 .2.1.3-.1.1-.1.3-.1.5 0 .7.4 1.2 1.1 1.8 0 .1-.1.2-.1.4zm4.6-13L-76 483c-.9-1-1.9-1.9-3.1-3-1.2-1-2.3-2-3.4-2.9l12.1-13.4v13.1zm17.1 47.7c-2 .4-4.2.6-6.8.6-2.6 0-4.9-.2-6.8-.6-1.9-.4-2.8-.9-2.8-1.6 0-.6 1-1.1 2.9-1.6.7-.1 1.5-.3 2.4-.4v-29c1.3.1 2.7.1 4.3.1s3 0 4.5-.1V521c.8.1 1.6.2 2.3.3 2 .5 3 1.1 3 1.6 0 .7-1 1.2-3 1.6zm0-35.3c-2 .4-4.2.6-6.8.6-2.6 0-4.9-.2-6.8-.6-1.9-.4-2.8-.9-2.8-1.6 0-.6.9-1.1 2.8-1.6s4.1-.7 6.8-.7c2.6 0 4.8.2 6.8.7 2 .5 3 1 3 1.6 0 .6-1 1.2-3 1.6zm0-35.6c-.7.2-1.5.4-2.3.4v29.2c-1.5-.1-3-.2-4.5-.2s-3 0-4.3.1V454c-.9-.1-1.7-.2-2.4-.4-1.9-.4-2.9-.9-2.9-1.5s.9-1.1 2.8-1.6 4.1-.7 6.8-.7c2.6 0 4.8.2 6.8.7 2 .5 3 1 3 1.6 0 .6-1 1.1-3 1.5z"/></g></switch></svg>