<svg version="1.1" id="svg2985" xmlns="http://www.w3.org/2000/svg" x="0" y="0" viewBox="-192 293.9 210 255" style="enable-background:new -192 293.9 210 255" xml:space="preserve"><style>.st0{enable-background:new}.st3{fill:#fff}.st7{fill:#2a3b92}</style><switch><g><filter width="1.217" height="1.215" y="-.108" x="-.109" id="filter3970-5" color-interpolation-filters="sRGB"><feGaussianBlur stdDeviation=".128" id="feGaussianBlur3972-8"/></filter><g id="g4630" transform="matrix(1.0006 0 0 1 -1.376 203.406)" class="st0"><g id="g3062"><path id="rect4031" d="m-131.2 90.5 46.1.2 68.4-.2c22.9-.1 36.1 15.9 36.1 40.4v154.6c0 12.3-14 27.7-21.4 35.7s-22.1 24.3-33.6 24.3h-113c-22.9 0-41.3-5.6-41.3-30.2l-.3-162.3c0-6.4 17.3-24.3 24.8-32.4 7.4-8 22.7-30.2 34.2-30.1z"/><path id="rect3767" d="M-122.4 103.2h104.5c13.8 0 24.8 11.1 24.9 24.9l.9 152.4c0 2-12.6 32-25.8 32h-104.5c-13.8 0-24.9-11.1-24.9-24.9V128.1c0-13.8 11.1-24.9 24.9-24.9z" style="fill:#005f00"/><path id="rect3861" d="M-137.4 118.1h99.6c13.7 0 24.9 11.2 24.9 24.9v159.5c0 13.8-11.1 24.9-24.9 24.9h-99.6c-13.7 0-24.9-11.2-24.9-24.9V143.1c0-13.8 11.2-25 24.9-25z" style="fill:#cddacd"/><path id="rect3765" class="st3" d="M-147.3 133.1h104.5c13.7 0 24.9 11.2 24.9 24.9v149.5c0 13.8-11.1 24.9-24.9 24.9h-104.5c-13.7 0-24.9-11.2-24.9-24.9V158c0-13.7 11.1-24.9 24.9-24.9z"/><linearGradient id="rect3008_1_" gradientUnits="userSpaceOnUse" x1="-324.883" y1="569.587" x2="-324.883" y2="531.068" gradientTransform="matrix(4.9807 0 0 -4.9841 1515.62 2981.96)"><stop offset="0" style="stop-color:#d0e4cc"/><stop offset="1" style="stop-color:#fbffec"/></linearGradient><path id="rect3008" d="M-157.3 143.1h109.5c11 0 19.9 8.9 19.9 19.9v149.5c0 11-8.9 19.9-19.9 19.9h-109.5c-11 0-19.9-8.9-19.9-19.9V163c0-11 8.9-19.9 19.9-19.9z" style="fill:url(#rect3008_1_)"/><path id="path3932" class="st3" d="M2.2 115.7c0 1.5-1.3 2.8-2.8 2.8s-2.8-1.3-2.8-2.8 1.3-2.8 2.8-2.8 2.8 1.2 2.8 2.8z"/><g id="path3936" style="filter:url(#filter3970-5)"><linearGradient id="SVGID_1_" gradientUnits="userSpaceOnUse" x1="-315.771" y1="590.47" x2="-318.887" y2="587.001" gradientTransform="matrix(7.1013 0 0 -6.6887 2243.616 4061.265)"><stop offset="0" style="stop-color:#fff"/><stop offset="1" style="stop-color:#fff;stop-opacity:0"/></linearGradient><path style="fill:url(#SVGID_1_)" d="m-2.8 114.3-28.8 24.6 8.2 6 25.2-28.3z"/></g><path id="path3882" class="st3" d="M-15 137.6c0 4.8-3.9 8.7-8.7 8.7-4.8 0-8.7-3.9-8.7-8.7 0-4.8 3.9-8.7 8.7-8.7 4.7 0 8.7 3.9 8.7 8.7z"/><g id="g7265" transform="matrix(4.97481 0 0 4.98413 283.644 -198.721)" class="st0"><g id="g6764" transform="translate(-56.68 -18.563)"><path id="path5789" class="st7" d="M-11.9 101.4c0 2.2-1.8 4-4 4s-4-1.8-4-4 1.8-4 4-4 4 1.8 4 4z"/><g id="g5791" transform="rotate(-45 46.603 15.386) scale(.59543)"><path id="path5793" class="st3" d="M-98.6 53.7s-1.2 1-2.7 1c-1.5 0-2.7-1-2.7-1s1.2-1 2.7-1c1.5 0 2.7 1 2.7 1z"/><path id="path5795" class="st3" d="M-97.9 53.7s1.2-1 2.7-1c1.5 0 2.7 1 2.7 1s-1.2 1-2.7 1c-1.4 0-2.7-1-2.7-1z"/><path id="path5797" class="st3" d="M-98.2 54.1s1 1.2 1 2.7c0 1.5-1 2.7-1 2.7s-1-1.2-1-2.7 1-2.7 1-2.7z"/><path id="path5799" class="st3" d="M-98.2 53.4s-1-1.2-1-2.7c0-1.5 1-2.7 1-2.7s1 1.2 1 2.7c0 1.5-1 2.7-1 2.7z"/></g></g><g id="g5801" transform="matrix(.59543 0 0 .59543 -54.549 6.326)"><path id="path5803" class="st7" d="M-40.4 128.6a6.7 6.7 0 1 1-6.7-6.7c3.7-.1 6.7 3 6.7 6.7z"/><g id="g5805" transform="rotate(-45 17.625 29.531)"><path id="path5807" class="st3" d="M-98.6 53.7s-1.2 1-2.7 1-2.7-1-2.7-1 1.2-1 2.7-1 2.7 1 2.7 1z"/><path id="path5809" class="st3" d="M-97.9 53.7s1.2-1 2.7-1c1.5 0 2.7 1 2.7 1s-1.2 1-2.7 1c-1.4 0-2.7-1-2.7-1z"/><path id="path5811" class="st3" d="M-98.2 54.1s1 1.2 1 2.7c0 1.5-1 2.7-1 2.7s-1-1.2-1-2.7c0-1.5 1-2.7 1-2.7z"/><path id="path5813" class="st3" d="M-98.2 53.4s-1-1.2-1-2.7 1-2.7 1-2.7 1 1.2 1 2.7-1 2.7-1 2.7z"/></g></g><g id="g7181" transform="translate(-56.68 -27.963)"><path id="path7183" class="st7" d="M-11.9 101.4c0 2.2-1.8 4-4 4s-4-1.8-4-4 1.8-4 4-4 4 1.8 4 4z"/><g id="g7185" transform="rotate(-45 46.603 15.386) scale(.59543)"><path id="path7187" class="st3" d="M-98.6 53.7s-1.2 1-2.7 1c-1.5 0-2.7-1-2.7-1s1.2-1 2.7-1c1.5 0 2.7 1 2.7 1z"/><path id="path7189" class="st3" d="M-97.9 53.7s1.2-1 2.7-1c1.5 0 2.7 1 2.7 1s-1.2 1-2.7 1c-1.4 0-2.7-1-2.7-1z"/><path id="path7191" class="st3" d="M-98.2 54.1s1 1.2 1 2.7-1 2.7-1 2.7-1-1.2-1-2.7 1-2.7 1-2.7z"/><path id="path7193" class="st3" d="M-98.2 53.4s-1-1.2-1-2.7 1-2.7 1-2.7 1 1.2 1 2.7-1 2.7-1 2.7z"/></g></g><g id="g7195" transform="matrix(.59543 0 0 .59543 -54.549 -3.074)"><path id="path7197" class="st7" d="M-40.4 128.6a6.7 6.7 0 1 1-6.7-6.7c3.7-.1 6.7 3 6.7 6.7z"/><g id="g7199" transform="rotate(-45 17.625 29.531)"><path id="path7201" class="st3" d="M-98.6 53.7s-1.2 1-2.7 1c-1.5 0-2.7-1-2.7-1s1.2-1 2.7-1c1.5 0 2.7 1 2.7 1z"/><path id="path7203" class="st3" d="M-97.9 53.7s1.2-1 2.7-1c1.5 0 2.7 1 2.7 1s-1.2 1-2.7 1c-1.4 0-2.7-1-2.7-1z"/><path id="path7205" class="st3" d="M-98.2 54.1s1 1.2 1 2.7-1 2.7-1 2.7-1-1.2-1-2.7 1-2.7 1-2.7z"/><path id="path7207" class="st3" d="M-98.2 53.4s-1-1.2-1-2.7 1-2.7 1-2.7 1 1.2 1 2.7-1 2.7-1 2.7z"/></g></g><g id="g7209" transform="translate(-56.68 -9.163)"><path id="path7211" class="st7" d="M-11.9 101.4c0 2.2-1.8 4-4 4s-4-1.8-4-4 1.8-4 4-4 4 1.8 4 4z"/><g id="g7213" transform="rotate(-45 46.603 15.386) scale(.59543)"><path id="path7215" class="st3" d="M-98.6 53.7s-1.2 1-2.7 1c-1.5 0-2.7-1-2.7-1s1.2-1 2.7-1c1.5 0 2.7 1 2.7 1z"/><path id="path7217" class="st3" d="M-97.9 53.7s1.2-1 2.7-1c1.5 0 2.7 1 2.7 1s-1.2 1-2.7 1c-1.4 0-2.7-1-2.7-1z"/><path id="path7219" class="st3" d="M-98.2 54.1s1 1.2 1 2.7c0 1.5-1 2.7-1 2.7s-1-1.2-1-2.7c0-1.5 1-2.7 1-2.7z"/><path id="path7221" class="st3" d="M-98.2 53.4s-1-1.2-1-2.7 1-2.7 1-2.7 1 1.2 1 2.7-1 2.7-1 2.7z"/></g></g><g id="g7223" transform="matrix(.59543 0 0 .59543 -54.549 15.726)"><path id="path7225" class="st7" d="M-40.4 128.6a6.7 6.7 0 1 1-6.7-6.7c3.7-.1 6.7 3 6.7 6.7z"/><g id="g7227" transform="rotate(-45 17.625 29.531)"><path id="path7229" class="st3" d="M-98.6 53.7s-1.2 1-2.7 1c-1.5 0-2.7-1-2.7-1s1.2-1 2.7-1c1.5 0 2.7 1 2.7 1z"/><path id="path7231" class="st3" d="M-97.9 53.7s1.2-1 2.7-1c1.5 0 2.7 1 2.7 1s-1.2 1-2.7 1c-1.4 0-2.7-1-2.7-1z"/><path id="path7233" class="st3" d="M-98.2 54.1s1 1.2 1 2.7c0 1.5-1 2.7-1 2.7s-1-1.2-1-2.7c0-1.5 1-2.7 1-2.7z"/><path id="path7235" class="st3" d="M-98.2 53.4s-1-1.2-1-2.7c0-1.5 1-2.7 1-2.7s1 1.2 1 2.7-1 2.7-1 2.7z"/></g></g><g id="g7237" transform="translate(-56.68 .237)"><path id="path7239" class="st7" d="M-11.9 101.4c0 2.2-1.8 4-4 4s-4-1.8-4-4 1.8-4 4-4 4 1.8 4 4z"/><g id="g7241" transform="rotate(-45 46.603 15.386) scale(.59543)"><path id="path7243" class="st3" d="M-98.6 53.7s-1.2 1-2.7 1c-1.5 0-2.7-1-2.7-1s1.2-1 2.7-1c1.5 0 2.7 1 2.7 1z"/><path id="path7245" class="st3" d="M-97.9 53.7s1.2-1 2.7-1c1.5 0 2.7 1 2.7 1s-1.2 1-2.7 1c-1.4 0-2.7-1-2.7-1z"/><path id="path7247" class="st3" d="M-98.2 54.1s1 1.2 1 2.7-1 2.7-1 2.7-1-1.2-1-2.7c0-1.5 1-2.7 1-2.7z"/><path id="path7249" class="st3" d="M-98.2 53.4s-1-1.2-1-2.7 1-2.7 1-2.7 1 1.2 1 2.7-1 2.7-1 2.7z"/></g></g><g id="g7251" transform="matrix(.59543 0 0 .59543 -54.549 25.126)"><path id="path7253" class="st7" d="M-40.4 128.6a6.7 6.7 0 1 1-6.7-6.7c3.7-.1 6.7 3 6.7 6.7z"/><g id="g7255" transform="rotate(-45 17.625 29.531)"><path id="path7257" class="st3" d="M-98.6 53.7s-1.2 1-2.7 1c-1.5 0-2.7-1-2.7-1s1.2-1 2.7-1c1.5 0 2.7 1 2.7 1z"/><path id="path7259" class="st3" d="M-97.9 53.7s1.2-1 2.7-1c1.5 0 2.7 1 2.7 1s-1.2 1-2.7 1c-1.4 0-2.7-1-2.7-1z"/><path id="path7261" class="st3" d="M-98.2 54.1s1 1.2 1 2.7-1 2.7-1 2.7-1-1.2-1-2.7c0-1.5 1-2.7 1-2.7z"/><path id="path7263" class="st3" d="M-98.2 53.4s-1-1.2-1-2.7c0-1.5 1-2.7 1-2.7s1 1.2 1 2.7-1 2.7-1 2.7z"/></g></g></g></g></g></g></switch></svg>