<svg version="1.1" id="svg2985" xmlns="http://www.w3.org/2000/svg" x="0" y="0" viewBox="-192 293.9 210 255" style="enable-background:new -192 293.9 210 255" xml:space="preserve"><style>.st0{enable-background:new}.st3{fill:#fff}.st7{fill:#bf3718}.st8{fill:#2a3b92}.st9{fill:#038249}</style><switch><g><filter width="1.217" height="1.215" y="-.108" x="-.109" id="filter3970-5" color-interpolation-filters="sRGB"><feGaussianBlur stdDeviation=".128" id="feGaussianBlur3972-8"/></filter><g id="g4630" transform="matrix(1.0006 0 0 1 -1.376 203.406)" class="st0"><g id="g3062"><path id="rect4031" d="m-131.2 90.5 46.1.2 68.4-.2c22.9-.1 36.1 15.9 36.1 40.4v154.6c0 12.3-14 27.7-21.4 35.7s-22.1 24.3-33.6 24.3h-113c-22.9 0-41.3-5.6-41.3-30.2l-.3-162.3c0-6.4 17.3-24.3 24.8-32.4 7.4-8 22.7-30.2 34.2-30.1z"/><path id="rect3767" d="M-122.4 103.2h104.5c13.8 0 24.8 11.1 24.9 24.9l.9 152.4c0 2-12.6 32-25.8 32h-104.5c-13.8 0-24.9-11.1-24.9-24.9V128.1c0-13.8 11.1-24.9 24.9-24.9z" style="fill:#005f00"/><path id="rect3861" d="M-137.4 118.1h99.6c13.7 0 24.9 11.2 24.9 24.9v159.5c0 13.8-11.1 24.9-24.9 24.9h-99.6c-13.7 0-24.9-11.2-24.9-24.9V143.1c0-13.8 11.2-25 24.9-25z" style="fill:#cddacd"/><path id="rect3765" class="st3" d="M-147.3 133.1h104.5c13.7 0 24.9 11.2 24.9 24.9v149.5c0 13.8-11.1 24.9-24.9 24.9h-104.5c-13.7 0-24.9-11.2-24.9-24.9V158c0-13.7 11.1-24.9 24.9-24.9z"/><linearGradient id="rect3008_1_" gradientUnits="userSpaceOnUse" x1="-324.883" y1="569.587" x2="-324.883" y2="531.068" gradientTransform="matrix(4.9807 0 0 -4.9841 1515.62 2981.96)"><stop offset="0" style="stop-color:#d0e4cc"/><stop offset="1" style="stop-color:#fbffec"/></linearGradient><path id="rect3008" d="M-157.3 143.1h109.5c11 0 19.9 8.9 19.9 19.9v149.5c0 11-8.9 19.9-19.9 19.9h-109.5c-11 0-19.9-8.9-19.9-19.9V163c0-11 8.9-19.9 19.9-19.9z" style="fill:url(#rect3008_1_)"/><path id="path3932" class="st3" d="M2.2 115.7c0 1.5-1.3 2.8-2.8 2.8s-2.8-1.3-2.8-2.8 1.3-2.8 2.8-2.8 2.8 1.2 2.8 2.8z"/><g id="path3936" style="filter:url(#filter3970-5)"><linearGradient id="SVGID_1_" gradientUnits="userSpaceOnUse" x1="-315.771" y1="590.47" x2="-318.887" y2="587.001" gradientTransform="matrix(7.1013 0 0 -6.6887 2243.616 4061.265)"><stop offset="0" style="stop-color:#fff"/><stop offset="1" style="stop-color:#fff;stop-opacity:0"/></linearGradient><path style="fill:url(#SVGID_1_)" d="m-2.8 114.3-28.8 24.6 8.2 6 25.2-28.3z"/></g><path id="path3882" class="st3" d="M-15 137.6c0 4.8-3.9 8.7-8.7 8.7-4.8 0-8.7-3.9-8.7-8.7 0-4.8 3.9-8.7 8.7-8.7 4.7 0 8.7 3.9 8.7 8.7z"/><g id="g7499" transform="matrix(4.97481 0 0 4.98413 196.315 -191.185)" class="st0"><g id="g5773" transform="matrix(.59543 0 0 .59543 -31.994 9.514)"><path id="path5775" class="st7" d="M-40.4 128.6a6.7 6.7 0 1 1-13.4 0 6.7 6.7 0 0 1 13.4 0z"/><g id="g5777" transform="rotate(-45 17.625 29.531)"><path id="path5779" class="st3" d="M-98.6 53.7s-1.2 1-2.7 1c-1.5 0-2.7-1-2.7-1s1.2-1 2.7-1c1.5 0 2.7 1 2.7 1z"/><path id="path5781" class="st3" d="M-97.9 53.7s1.2-1 2.7-1c1.5 0 2.7 1 2.7 1s-1.2 1-2.7 1c-1.4 0-2.7-1-2.7-1z"/><path id="path5783" class="st3" d="M-98.2 54.1s1 1.2 1 2.7c0 1.5-1 2.7-1 2.7s-1-1.2-1-2.7c0-1.5 1-2.7 1-2.7z"/><path id="path5785" class="st3" d="M-98.2 53.4s-1-1.2-1-2.7 1-2.7 1-2.7 1 1.2 1 2.7c0 1.5-1 2.7-1 2.7z"/></g></g><g id="g7345" transform="matrix(.59543 0 0 .59543 -22.994 9.514)"><path id="path7347" class="st7" d="M-40.4 128.6a6.7 6.7 0 1 1-13.4 0 6.7 6.7 0 0 1 13.4 0z"/><g id="g7349" transform="rotate(-45 17.625 29.531)"><path id="path7351" class="st3" d="M-98.6 53.7s-1.2 1-2.7 1c-1.5 0-2.7-1-2.7-1s1.2-1 2.7-1c1.5 0 2.7 1 2.7 1z"/><path id="path7353" class="st3" d="M-97.9 53.7s1.2-1 2.7-1c1.5 0 2.7 1 2.7 1s-1.2 1-2.7 1c-1.4 0-2.7-1-2.7-1z"/><path id="path7355" class="st3" d="M-98.2 54.1s1 1.2 1 2.7-1 2.7-1 2.7-1-1.2-1-2.7 1-2.7 1-2.7z"/><path id="path7357" class="st3" d="M-98.2 53.4s-1-1.2-1-2.7 1-2.7 1-2.7 1 1.2 1 2.7-1 2.7-1 2.7z"/></g></g><g id="g7359" transform="matrix(.59543 0 0 .59543 -40.994 9.514)"><path id="path7361" class="st7" d="M-40.4 128.6a6.7 6.7 0 1 1-6.7-6.7c3.7-.1 6.7 3 6.7 6.7z"/><g id="g7363" transform="rotate(-45 17.625 29.531)"><path id="path7365" class="st3" d="M-98.6 53.7s-1.2 1-2.7 1-2.7-1-2.7-1 1.2-1 2.7-1 2.7 1 2.7 1z"/><path id="path7367" class="st3" d="M-97.9 53.7s1.2-1 2.7-1c1.5 0 2.7 1 2.7 1s-1.2 1-2.7 1c-1.4 0-2.7-1-2.7-1z"/><path id="path7369" class="st3" d="M-98.2 54.1s1 1.2 1 2.7c0 1.5-1 2.7-1 2.7s-1-1.2-1-2.7c0-1.5 1-2.7 1-2.7z"/><path id="path7371" class="st3" d="M-98.2 53.4s-1-1.2-1-2.7 1-2.7 1-2.7 1 1.2 1 2.7-1 2.7-1 2.7z"/></g></g><g id="g7373" transform="matrix(.59543 0 0 .59543 -31.994 -1.986)"><path id="path7375" class="st8" d="M-40.4 128.6a6.7 6.7 0 1 1-13.4 0 6.7 6.7 0 0 1 13.4 0z"/><g id="g7377" transform="rotate(-45 17.625 29.531)"><path id="path7379" class="st3" d="M-98.6 53.7s-1.2 1-2.7 1c-1.5 0-2.7-1-2.7-1s1.2-1 2.7-1c1.5 0 2.7 1 2.7 1z"/><path id="path7381" class="st3" d="M-97.9 53.7s1.2-1 2.7-1c1.5 0 2.7 1 2.7 1s-1.2 1-2.7 1c-1.4 0-2.7-1-2.7-1z"/><path id="path7383" class="st3" d="M-98.2 54.1s1 1.2 1 2.7-1 2.7-1 2.7-1-1.2-1-2.7c0-1.5 1-2.7 1-2.7z"/><path id="path7385" class="st3" d="M-98.2 53.4s-1-1.2-1-2.7 1-2.7 1-2.7 1 1.2 1 2.7-1 2.7-1 2.7z"/></g></g><g id="g7387" transform="matrix(.59543 0 0 .59543 -22.994 -1.986)"><path id="path7389" class="st8" d="M-40.4 128.6a6.7 6.7 0 1 1-13.4 0 6.7 6.7 0 0 1 13.4 0z"/><g id="g7391" transform="rotate(-45 17.625 29.531)"><path id="path7393" class="st3" d="M-98.6 53.7s-1.2 1-2.7 1c-1.5 0-2.7-1-2.7-1s1.2-1 2.7-1c1.5 0 2.7 1 2.7 1z"/><path id="path7395" class="st3" d="M-97.9 53.7s1.2-1 2.7-1c1.5 0 2.7 1 2.7 1s-1.2 1-2.7 1c-1.4 0-2.7-1-2.7-1z"/><path id="path7397" class="st3" d="M-98.2 54.1s1 1.2 1 2.7c0 1.5-1 2.7-1 2.7s-1-1.2-1-2.7c0-1.5 1-2.7 1-2.7z"/><path id="path7399" class="st3" d="M-98.2 53.4s-1-1.2-1-2.7 1-2.7 1-2.7 1 1.2 1 2.7-1 2.7-1 2.7z"/></g></g><g id="g7401" transform="matrix(.59543 0 0 .59543 -40.994 -1.986)"><path id="path7403" class="st8" d="M-40.4 128.6a6.7 6.7 0 1 1-6.7-6.7c3.7-.1 6.7 3 6.7 6.7z"/><g id="g7405" transform="rotate(-45 17.625 29.531)"><path id="path7407" class="st3" d="M-98.6 53.7s-1.2 1-2.7 1c-1.5 0-2.7-1-2.7-1s1.2-1 2.7-1c1.5 0 2.7 1 2.7 1z"/><path id="path7409" class="st3" d="M-97.9 53.7s1.2-1 2.7-1c1.5 0 2.7 1 2.7 1s-1.2 1-2.7 1c-1.4 0-2.7-1-2.7-1z"/><path id="path7411" class="st3" d="M-98.2 54.1s1 1.2 1 2.7-1 2.7-1 2.7-1-1.2-1-2.7 1-2.7 1-2.7z"/><path id="path7413" class="st3" d="M-98.2 53.4s-1-1.2-1-2.7 1-2.7 1-2.7 1 1.2 1 2.7-1 2.7-1 2.7z"/></g></g><g id="g7457" transform="matrix(.59543 0 0 .59543 -31.994 21.014)"><path id="path7459" class="st9" d="M-40.4 128.6a6.7 6.7 0 1 1-13.4 0 6.7 6.7 0 0 1 13.4 0z"/><g id="g7461" transform="rotate(-45 17.625 29.531)"><path id="path7463" class="st3" d="M-98.6 53.7s-1.2 1-2.7 1c-1.5 0-2.7-1-2.7-1s1.2-1 2.7-1c1.5 0 2.7 1 2.7 1z"/><path id="path7465" class="st3" d="M-97.9 53.7s1.2-1 2.7-1c1.5 0 2.7 1 2.7 1s-1.2 1-2.7 1c-1.4 0-2.7-1-2.7-1z"/><path id="path7467" class="st3" d="M-98.2 54.1s1 1.2 1 2.7c0 1.5-1 2.7-1 2.7s-1-1.2-1-2.7 1-2.7 1-2.7z"/><path id="path7469" class="st3" d="M-98.2 53.4s-1-1.2-1-2.7 1-2.7 1-2.7 1 1.2 1 2.7-1 2.7-1 2.7z"/></g></g><g id="g7471" transform="matrix(.59543 0 0 .59543 -22.994 21.014)"><path id="path7473" class="st9" d="M-40.4 128.6a6.7 6.7 0 1 1-13.4 0 6.7 6.7 0 0 1 13.4 0z"/><g id="g7475" transform="rotate(-45 17.625 29.531)"><path id="path7477" class="st3" d="M-98.6 53.7s-1.2 1-2.7 1-2.7-1-2.7-1 1.2-1 2.7-1 2.7 1 2.7 1z"/><path id="path7479" class="st3" d="M-97.9 53.7s1.2-1 2.7-1c1.5 0 2.7 1 2.7 1s-1.2 1-2.7 1c-1.4 0-2.7-1-2.7-1z"/><path id="path7481" class="st3" d="M-98.2 54.1s1 1.2 1 2.7-1 2.7-1 2.7-1-1.2-1-2.7 1-2.7 1-2.7z"/><path id="path7483" class="st3" d="M-98.2 53.4s-1-1.2-1-2.7 1-2.7 1-2.7 1 1.2 1 2.7-1 2.7-1 2.7z"/></g></g><g id="g7485" transform="matrix(.59543 0 0 .59543 -40.994 21.014)"><path id="path7487" class="st9" d="M-40.4 128.6a6.7 6.7 0 1 1-6.7-6.7c3.7-.1 6.7 3 6.7 6.7z"/><g id="g7489" transform="rotate(-45 17.625 29.531)"><path id="path7491" class="st3" d="M-98.6 53.7s-1.2 1-2.7 1c-1.5 0-2.7-1-2.7-1s1.2-1 2.7-1c1.5 0 2.7 1 2.7 1z"/><path id="path7493" class="st3" d="M-97.9 53.7s1.2-1 2.7-1c1.5 0 2.7 1 2.7 1s-1.2 1-2.7 1c-1.4 0-2.7-1-2.7-1z"/><path id="path7495" class="st3" d="M-98.2 54.1s1 1.2 1 2.7-1 2.7-1 2.7-1-1.2-1-2.7c0-1.5 1-2.7 1-2.7z"/><path id="path7497" class="st3" d="M-98.2 53.4s-1-1.2-1-2.7c0-1.5 1-2.7 1-2.7s1 1.2 1 2.7-1 2.7-1 2.7z"/></g></g></g></g></g></g></switch></svg>