<?xml version="1.0" encoding="utf-8"?>
<!DOCTYPE svg PUBLIC "-//W3C//DTD SVG 1.1//EN" "http://www.w3.org/Graphics/SVG/1.1/DTD/svg11.dtd" [
	<!ENTITY ns_extend "http://ns.adobe.com/Extensibility/1.0/">
	<!ENTITY ns_ai "http://ns.adobe.com/AdobeIllustrator/10.0/">
	<!ENTITY ns_graphs "http://ns.adobe.com/Graphs/1.0/">
	<!ENTITY ns_vars "http://ns.adobe.com/Variables/1.0/">
	<!ENTITY ns_imrep "http://ns.adobe.com/ImageReplacement/1.0/">
	<!ENTITY ns_sfw "http://ns.adobe.com/SaveForWeb/1.0/">
	<!ENTITY ns_custom "http://ns.adobe.com/GenericCustomNamespace/1.0/">
	<!ENTITY ns_adobe_xpath "http://ns.adobe.com/XPath/1.0/">
]>
<svg xmlns="http://www.w3.org/2000/svg" xml:space="preserve" id="svg2985" x="0" y="0" enable-background="new -192 293.9 210 255" version="1.1" viewBox="-192 293.9 210 255">
  <style>
    .st3{fill:#fff}.st7{fill:#2a3b92}
  </style>
  <switch>
    <g>
      <filter id="filter3970-5" width="1.2171124" height="1.2150326" x="-.10855621" y="-.10751629" color-interpolation-filters="sRGB">
        <feGaussianBlur id="feGaussianBlur3972-8" stdDeviation=".12800763"/>
      </filter>
      <g id="g4630" transform="matrix(1.0006 0 0 1 -1.3758072 203.40625)">
        <g id="g3062">
          <path id="rect4031" d="m-131.2 90.5 46.1.2 68.4-.2c22.9-.1 36.1 15.9 36.1 40.4v154.6c0 12.3-14 27.7-21.4 35.7s-22.1 24.3-33.6 24.3h-113c-22.9 0-41.3-5.6-41.3-30.2l-.3-162.3c0-6.4 17.3-24.3 24.8-32.4 7.4-8 22.7-30.2 34.2-30.1z"/>
          <path id="rect3767" fill="#005f00" d="M-122.4 103.2h104.5c13.8 0 24.8 11.1 24.9 24.9l.9 152.4c0 2-12.6 32-25.8 32h-104.5c-13.8 0-24.9-11.1-24.9-24.9V128.1c0-13.8 11.1-24.9 24.9-24.9z"/>
          <path id="rect3861" fill="#cddacd" d="M-137.4 118.1h99.6c13.7 0 24.9 11.2 24.9 24.9v159.5c0 13.8-11.1 24.9-24.9 24.9h-99.6c-13.7 0-24.9-11.2-24.9-24.9V143.1c0-13.8 11.2-25 24.9-25z"/>
          <path id="rect3765" d="M-147.3 133.1h104.5c13.7 0 24.9 11.2 24.9 24.9v149.5c0 13.8-11.1 24.9-24.9 24.9h-104.5c-13.7 0-24.9-11.2-24.9-24.9V158c0-13.7 11.1-24.9 24.9-24.9z" class="st3"/>
          <linearGradient id="rect3008_1_" x1="-324.8826" x2="-324.8826" y1="569.5873" y2="531.0685" gradientTransform="matrix(4.9807 0 0 -4.9841 1515.6201 2981.9607)" gradientUnits="userSpaceOnUse">
            <stop offset="0" stop-color="#d0e4cc"/>
            <stop offset="1" stop-color="#fbffec"/>
          </linearGradient>
          <path id="rect3008" fill="url(#rect3008_1_)" d="M-157.3 143.1h109.5c11 0 19.9 8.9 19.9 19.9v149.5c0 11-8.9 19.9-19.9 19.9h-109.5c-11 0-19.9-8.9-19.9-19.9V163c0-11 8.9-19.9 19.9-19.9z"/>
          <path id="path3932" d="M2.2 115.7c0 1.5-1.3 2.8-2.8 2.8s-2.8-1.3-2.8-2.8 1.3-2.8 2.8-2.8 2.8 1.2 2.8 2.8z" class="st3"/>
          <g id="path3936" filter="url(#filter3970-5)">
            <linearGradient id="SVGID_1_" x1="-315.7709" x2="-318.8866" y1="590.4699" y2="587.0007" gradientTransform="matrix(7.1013 0 0 -6.6887 2243.616 4061.2654)" gradientUnits="userSpaceOnUse">
              <stop offset="0" stop-color="#fff"/>
              <stop offset="1" stop-color="#fff" stop-opacity="0"/>
            </linearGradient>
            <path fill="url(#SVGID_1_)" d="m-2.8 114.3-28.8 24.6 8.2 6 25.2-28.3z"/>
          </g>
          <path id="path3882" d="M-15 137.6c0 4.8-3.9 8.7-8.7 8.7-4.8 0-8.7-3.9-8.7-8.7 0-4.8 3.9-8.7 8.7-8.7 4.7 0 8.7 3.9 8.7 8.7z" class="st3"/>
        </g>
      </g>
      <path d="M-59 356.7h-89.4c-12.8 0-19.2 4.7-19.2 14.1v141.3c0 9.4 6.4 14.1 19.2 14.1H-59c12.8 0 19.2-4.7 19.2-14.1V370.8c0-9.4-6.4-14.1-19.2-14.1zm9.8 155.4c0 6.2-3.3 9.3-9.8 9.3h-89.4c-6.5 0-9.8-3.1-9.8-9.3V370.8c0-6.2 3.3-9.3 9.8-9.3H-59c6.5 0 9.8 3.1 9.8 9.3v141.3z" class="st7"/>
      <path d="M-70.4 367.5H-137c-9.5 0-14.3 4.1-14.3 12.3v123.3c0 8.2 4.8 12.3 14.3 12.3h66.6c9.5 0 14.3-4.1 14.3-12.3V379.8c0-8.2-4.8-12.3-14.3-12.3zm-73.9 12.3c0-5.4 2.4-8.1 7.3-8.1h4.4v4.8c0 5.4-2.4 8.1-7.3 8.1h-4.4v-4.8zm11.7 131.4h-4.4c-4.8 0-7.3-2.7-7.3-8.1v-4.8h4.4c4.8 0 7.3 2.7 7.3 8.1v4.8zm69.4-8.1c0 5.4-2.4 8.1-7.3 8.1h-4.4v-4.8c0-5.4 2.4-8.1 7.3-8.1h4.4v4.8zm0-9.1h-4.4c-7.6 0-11.4 4.1-11.4 12.3v4.8h-49.4v-4.8c0-8.2-3.8-12.3-11.4-12.3h-4.4V388.8h4.4c7.6 0 11.4-4.1 11.4-12.3v-4.8H-79v4.8c0 8.2 3.8 12.3 11.4 12.3h4.4V494zm0-109.4h-4.4c-4.8 0-7.3-2.7-7.3-8.1v-4.8h4.4c4.8 0 7.3 2.7 7.3 8.1v4.8z" class="st7"/>
    </g>
  </switch>
</svg>