<svg version="1.1" id="svg2985" xmlns="http://www.w3.org/2000/svg" x="0" y="0" viewBox="-192 293.9 210 255" style="enable-background:new -192 293.9 210 255" xml:space="preserve"><style>.st3{fill:#fff}</style><switch><g><filter width="1.217" height="1.215" y="-.108" x="-.109" id="filter3970-5" color-interpolation-filters="sRGB"><feGaussianBlur stdDeviation=".128" id="feGaussianBlur3972-8"/></filter><g id="g4630" transform="matrix(1.0006 0 0 1 -1.376 203.406)" style="enable-background:new"><g id="g3062"><path id="rect4031" d="m-131.2 90.5 46.1.2 68.4-.2c22.9-.1 36.1 15.9 36.1 40.4v154.6c0 12.3-14 27.7-21.4 35.7s-22.1 24.3-33.6 24.3h-113c-22.9 0-41.3-5.6-41.3-30.2l-.3-162.3c0-6.4 17.3-24.3 24.8-32.4 7.4-8 22.7-30.2 34.2-30.1z"/><path id="rect3767" d="M-122.4 103.2h104.5c13.8 0 24.8 11.1 24.9 24.9l.9 152.4c0 2-12.6 32-25.8 32h-104.5c-13.8 0-24.9-11.1-24.9-24.9V128.1c0-13.8 11.1-24.9 24.9-24.9z" style="fill:#005f00"/><path id="rect3861" d="M-137.4 118.1h99.6c13.7 0 24.9 11.2 24.9 24.9v159.5c0 13.8-11.1 24.9-24.9 24.9h-99.6c-13.7 0-24.9-11.2-24.9-24.9V143.1c0-13.8 11.2-25 24.9-25z" style="fill:#cddacd"/><path id="rect3765" class="st3" d="M-147.3 133.1h104.5c13.7 0 24.9 11.2 24.9 24.9v149.5c0 13.8-11.1 24.9-24.9 24.9h-104.5c-13.7 0-24.9-11.2-24.9-24.9V158c0-13.7 11.1-24.9 24.9-24.9z"/><linearGradient id="rect3008_1_" gradientUnits="userSpaceOnUse" x1="-324.883" y1="569.587" x2="-324.883" y2="531.068" gradientTransform="matrix(4.9807 0 0 -4.9841 1515.62 2981.96)"><stop offset="0" style="stop-color:#d0e4cc"/><stop offset="1" style="stop-color:#fbffec"/></linearGradient><path id="rect3008" d="M-157.3 143.1h109.5c11 0 19.9 8.9 19.9 19.9v149.5c0 11-8.9 19.9-19.9 19.9h-109.5c-11 0-19.9-8.9-19.9-19.9V163c0-11 8.9-19.9 19.9-19.9z" style="fill:url(#rect3008_1_)"/><path id="path3932" class="st3" d="M2.2 115.7c0 1.5-1.3 2.8-2.8 2.8s-2.8-1.3-2.8-2.8 1.3-2.8 2.8-2.8 2.8 1.2 2.8 2.8z"/><g id="path3936" style="filter:url(#filter3970-5)"><linearGradient id="SVGID_1_" gradientUnits="userSpaceOnUse" x1="-315.771" y1="590.47" x2="-318.887" y2="587.001" gradientTransform="matrix(7.1013 0 0 -6.6887 2243.616 4061.265)"><stop offset="0" style="stop-color:#fff"/><stop offset="1" style="stop-color:#fff;stop-opacity:0"/></linearGradient><path style="fill:url(#SVGID_1_)" d="m-2.8 114.3-28.8 24.6 8.2 6 25.2-28.3z"/></g><path id="path3882" class="st3" d="M-15 137.6c0 4.8-3.9 8.7-8.7 8.7-4.8 0-8.7-3.9-8.7-8.7 0-4.8 3.9-8.7 8.7-8.7 4.7 0 8.7 3.9 8.7 8.7z"/></g></g><path d="M-154.7 420.7c1.8-1.5 3.6-3.4 5.4-5.8 1.8-2.4 3-4.4 3.5-6l.7-2.5 2.5-4.1c3.2-5.3 5.3-8.6 6.5-10.1 1.2-1.4 3.1-4 5.9-7.8l-1.7-1.1c-.2-.1-.2-.3 0-.4l4-1.1 1.9-1c.6.2 1.4.6 2.1 1.2.8.6 2.2 1.4 4.2 2.4 2.1 1 3.3 2.1 3.8 3.5l.5 1.8.2.4-.2 1.2c-1 .7-1.7 1.2-2.2 1.5-.5.3-.8.5-1 .7-.2.1-.8 1-2 2.6s-2.4 3.1-3.8 4.5c-1.3 1.4-2 2.3-2 2.6v.7c-.2.1-.6.4-1.3.9-.7.5-1.3 1.2-1.6 2.2-.4 1-1.8 3-4.4 6.2l-3.5 4.8c-2 2.6-4.5 4.7-7.5 6.3-2.9 1.6-5.1 2.3-6.4 2.1-1.3-.1-2.7-.7-4.1-1.5v-.7c-1.5-1.2-2.2-2-2.2-2.5v-2.2c1 .2 1.8.6 2.7 1.2zm34.2-53.1c.9-1.5 2-2.7 3.3-3.5 1.3-.8 3.8-1.4 7.6-1.8.4.4 1 .5 1.8.5 3.8 2.3 7 4.7 9.5 6.9 2.5 2.3 4.1 3.8 4.7 4.5l2.2 3.8c3.2 5.1 4.8 8.1 5 8.9.2.8.3 1.3.4 1.4.1.1.4.4.8.7l3.5 6.4c.5.9 1 1.6 1.7 2.1.6.5 1.3 1 2.1 1.4l8.1 4.5c4.5 3.2 7 4.9 7.5 4.9.5.1.8.4 1 .9.2.5.3.8.4.9.1.1.4.3 1.1.5l2.1 1.8 3.6 2.3c0 .1.6.9 1.8 2.2l3.4 3.4 2.1 2.7 2.2 2.4.7 1.4h-2.7v1.1c-1.7.6-3.6.4-5.7-.7l-1.6.7c-2.3-1.1-3.7-1.8-4.3-2s-1.9-.5-4-.8c-2.1-.3-3.8-1.1-5.3-2.4h-1l-.6-.7c-.6 0-1.6-.2-3-.5-1.3-.3-3-1-5.1-2-2.1-1-4.5-2.9-7.3-5.5s-4.5-4.7-5-6.3l-1-2.4-2.7-4.7c-.2-.1-.4-.8-.8-1.9-.4-1.1-1-2.7-1.8-4.7l-3.2-6.7c-1.1-2.1-1.9-4.2-2.5-6.1-.6-1.9-1.1-3.1-1.3-3.6-.2-.4-1-1.1-2.2-1.9-1.3-.8-2.2-1.4-2.8-1.7l-3.5.2c-.2.1-.3.1-.5 0-1 0-1.7-.1-2.1-.2-.4-.1-1.2-.8-2.5-1.9-1.3-1.1-2-1.9-2.1-2.4h-1c-.2-.4-.5-1.2-1-2.1z" style="fill:#2a3b92"/><path d="M-58.8 504.8c-5 7.6-5.8 16.3-13.2 23-1.8 1.7-5.7 4.5-8.3 4.6-.7-.5-1.3-1.1-2.4-1.3-.3-1.9-2.2-3.1-3.2-4.7-1.8-.9-7.1-6.4-8.8-7.9 6.1 2.8 9.2 2 15.3 3 3.6-2.6 10.6-18 9.3-21.8-.8-2.4-18.3-.9-21 .2 2.6 3.6 10.5 3.8 9.6 11.5.4 1.3-.3 2.5-1.1 3.5-3.6.9-4.6-1-6.7-2.7-8.1-.1-27.1 7.5-29.1 7.5-2.3-2.8-8.9-3.6-4.8-8 3.6.7 8.3-1.4 11.4-3 1.1-1.3 1.6-3.2.8-4.7l-18.3 5.8c1.5 6 3.2 10.9 1.5 17.2-2.6-1.2-3.8-2.9-5.3-4.9-3.6-2.3-1.6-5.9-3-9-1.6.2-3 .9-4.4 1-2.7 1-7.5-4-5.4-5.3 2.4-.6 5.4-1 7.5-2.1 0-1.7-.3-4.1 2.4-4.6 2.3-1.5 15.1-6.8 15.3-7.9-5.8-2.3-9.2-13.7-11.3-18.5.3-1.2-.7-3.4 1.2-4 .8-.8 2-1 3.1-.8l.7 1c3.1-1.4 5.9-3.3 9.2-4.3-1.9-2-2-4.8-3.2-5.9-1.8.7-11.6 5.3-12.7 4.8-1.5-.6-2-1.9-3.5-2.6.5-.8-3-3.3-1.6-5.5 3-.9 2.6-1 5.3.3 2.8 0 8.9-1 11.4-2 2.7-1.1-5.5-13.1-5.1-15.2 3 .3 6.2.9 8.8 2.4 2.3 1.3 7.8 6.7 7.1 9.1.7 1.4 9.7-.4 11.2-.8 1.6-2.8 2.2-5.9 3.2-8.8.9-2.4-2.6-5.3-4.8-6.4.1-2.5 10.1-.7 11.8.1 6.9 3.2 5 7.7 1.6 12.1 1.6.5 10.8-2.8 13.9-2.1 1.1 1.8 7 4.1 6.2 6.7-2.7 0-23.3 2.5-24.4 3.3-2.2.3-5.1 5.3-7.3 6.5 4.6-.4 10.2-1.5 14.8-1.2 4.2.2 13.2 4.7 11.8 8.7-1.2 3.7-9.8 16.8-14 18.4-1.1.9-3.4.3-4.7-.1l-.3-1.2c-1.9.3-2.3 1.5-5.1 1.5-1.1 0-2.3.1-3.2.7-.7 3.4-.4 1.6-.7 5.5 1.5-.1 3-.4 4.4-.8 7.1-1.4 18.6-3.1 25.9-2.3 2.6-1.4 8.3.2 10.4 1.9 1.3 1.1 3.9 3.3 4.2 4.8.4 2.3-1.2 3.3-2.4 5.3zm-54-10.4c-3.6.1-19.4 7.1-21.8 9.3 1.8 2.2 19.9-4.6 23.4-5.7.8-1.3.4-2.9.4-4.3l-2 .7zm-.2-23.4c-2.8.5-10.1 1.3-11.4 3.3.1 1.7-.5 3.4.4 5 1.9 3.3 2.7 5.8 2.6 9.5 3.5-1.6 6.9-4.1 9.4-6.4-2.6-.1-10.2-1.2-11.4-3.2 3.4-1.8 10.1-2.9 12.4-4.6 1.7-1.4-1.4-2.2-2-3.6zm7.7-16.5c-1.5.1-5.1 1.4-6.5 2-.3 2.5-3.9 8-3.5 9.9 5.9-.3 12.5-7.6 14-11.9h-4zm9.2 46.8c-1.8 0-3.5.3-5.3.5-.1 1.8-.1 3.5-.7 5.4 3-.1 6.3-.1 9.2-.8-1.2-1.5-2.2-3.4-3.2-5.1zm-5.4-31.7c1.8.7.9 2 2.8 2.6.9.3 1.9.4 2.8.9 1.1.1 1.9 1.2 2.8 1.5 1.9 3.7-5.3 4.6-7.3 6.5l-.4 2.9c3.5-.1 2.3-.4 5.3.7 1.8 1 .9.7 2.3 1.1 0-.7 0-5.1.3-5.7.5 1.6.3 1.1 2 1.4.9-1.9 7.1-12.8 4.6-13.6-5.7-2-9.8 1.3-15.2 1.7z" style="fill:#bf3718"/></g></switch></svg>