<svg version="1.1" id="svg2985" xmlns="http://www.w3.org/2000/svg" x="0" y="0" viewBox="-192 293.9 210 255" style="enable-background:new -192 293.9 210 255" xml:space="preserve"><style>.st3{fill:#fff}.st7{fill:#bf3718}.st8{fill:#d37f11}</style><switch><g><filter width="1.217" height="1.215" color-interpolation-filters="sRGB" y="-.108" x="-.109" id="filter3970-5"><feGaussianBlur stdDeviation=".128" id="feGaussianBlur3972-8"/></filter><g id="g4630" transform="matrix(1.0006 0 0 1 -1.376 203.406)" style="enable-background:new"><g id="g3062"><path id="rect4031" d="m-131.2 90.5 46.1.2 68.4-.2c22.9-.1 36.1 15.9 36.1 40.4v154.6c0 12.3-14 27.7-21.4 35.7s-22.1 24.3-33.6 24.3h-113c-22.9 0-41.3-5.6-41.3-30.2l-.3-162.3c0-6.4 17.3-24.3 24.8-32.4 7.4-8 22.7-30.2 34.2-30.1z"/><path id="rect3767" d="M-122.4 103.2h104.5c13.8 0 24.8 11.1 24.9 24.9l.9 152.4c0 2-12.6 32-25.8 32h-104.5c-13.8 0-24.9-11.1-24.9-24.9V128.1c0-13.8 11.1-24.9 24.9-24.9z" style="fill:#005f00"/><path id="rect3861" d="M-137.4 118.1h99.6c13.7 0 24.9 11.2 24.9 24.9v159.5c0 13.8-11.1 24.9-24.9 24.9h-99.6c-13.7 0-24.9-11.2-24.9-24.9V143.1c0-13.8 11.2-25 24.9-25z" style="fill:#cddacd"/><path id="rect3765" class="st3" d="M-147.3 133.1h104.5c13.7 0 24.9 11.2 24.9 24.9v149.5c0 13.8-11.1 24.9-24.9 24.9h-104.5c-13.7 0-24.9-11.2-24.9-24.9V158c0-13.7 11.1-24.9 24.9-24.9z"/><linearGradient id="rect3008_1_" gradientUnits="userSpaceOnUse" x1="-324.883" y1="569.587" x2="-324.883" y2="531.068" gradientTransform="matrix(4.9807 0 0 -4.9841 1515.62 2981.96)"><stop offset="0" style="stop-color:#d0e4cc"/><stop offset="1" style="stop-color:#fbffec"/></linearGradient><path id="rect3008" d="M-157.3 143.1h109.5c11 0 19.9 8.9 19.9 19.9v149.5c0 11-8.9 19.9-19.9 19.9h-109.5c-11 0-19.9-8.9-19.9-19.9V163c0-11 8.9-19.9 19.9-19.9z" style="fill:url(#rect3008_1_)"/><path id="path3932" class="st3" d="M2.2 115.7c0 1.5-1.3 2.8-2.8 2.8s-2.8-1.3-2.8-2.8 1.3-2.8 2.8-2.8 2.8 1.2 2.8 2.8z"/><g id="path3936" style="filter:url(#filter3970-5)"><linearGradient id="SVGID_1_" gradientUnits="userSpaceOnUse" x1="-315.771" y1="590.47" x2="-318.887" y2="587.001" gradientTransform="matrix(7.1013 0 0 -6.6887 2243.616 4061.265)"><stop offset="0" style="stop-color:#fff"/><stop offset="1" style="stop-color:#fff;stop-opacity:0"/></linearGradient><path style="fill:url(#SVGID_1_)" d="m-2.8 114.3-28.8 24.6 8.2 6 25.2-28.3z"/></g><path id="path3882" class="st3" d="M-15 137.6c0 4.8-3.9 8.7-8.7 8.7-4.8 0-8.7-3.9-8.7-8.7 0-4.8 3.9-8.7 8.7-8.7 4.7 0 8.7 3.9 8.7 8.7z"/></g></g><path class="st7" d="M-165.8 418.1c0-1-.5-1.4-1.4-1.4-1 0-1.4.5-1.4 1.4 0 1 .5 1.4 1.4 1.4.9.1 1.4-.4 1.4-1.4zM-161.2 416.7c-1 0-1.4.5-1.4 1.4 0 1 .5 1.4 1.4 1.4 1 0 1.4-.5 1.4-1.4 0-.9-.4-1.4-1.4-1.4zM-164.8 415.6c1 0 1.4-.5 1.4-1.4 0-1-.5-1.4-1.4-1.4-1 0-1.4.5-1.4 1.4 0 .9.4 1.4 1.4 1.4zM-161.4 411.5c1 0 1.4-.5 1.4-1.4 0-1-.5-1.4-1.4-1.4-1 0-1.4.5-1.4 1.4 0 1 .4 1.4 1.4 1.4zM-161 424.4c-1 0-1.4.5-1.4 1.4 0 1 .5 1.4 1.4 1.4 1 0 1.4-.5 1.4-1.4.1-.9-.4-1.4-1.4-1.4zM-158 423.3c1 0 1.4-.5 1.4-1.4 0-1-.5-1.4-1.4-1.4-1 0-1.4.5-1.4 1.4 0 .9.5 1.4 1.4 1.4z"/><path class="st8" d="M-76.5 515.6c-1 0-1.4.5-1.4 1.4 0 1 .5 1.4 1.4 1.4 1 0 1.4-.5 1.4-1.4.1-.9-.4-1.4-1.4-1.4z"/><path class="st7" d="M-158 415.6c1 0 1.4-.5 1.4-1.4 0-1-.5-1.4-1.4-1.4-1 0-1.4.5-1.4 1.4 0 .9.5 1.4 1.4 1.4z"/><path class="st8" d="M-70.1 514.9c-1 0-1.4.5-1.4 1.4 0 1 .5 1.4 1.4 1.4 1 0 1.4-.5 1.4-1.4 0-.9-.5-1.4-1.4-1.4z"/><path class="st7" d="M-154.6 427.2c1 0 1.4-.5 1.4-1.4 0-1-.5-1.4-1.4-1.4-1 0-1.4.5-1.4 1.4 0 1 .5 1.4 1.4 1.4z"/><path class="st8" d="M-36.5 481c-1 0-1.4.5-1.4 1.4 0 1 .5 1.4 1.4 1.4 1 0 1.4-.5 1.4-1.4 0-1-.4-1.4-1.4-1.4zM-66.5 514.6c1 0 1.4-.5 1.4-1.4 0-1-.5-1.4-1.4-1.4-1 0-1.4.5-1.4 1.4 0 .9.5 1.4 1.4 1.4zM-36.5 476.2c-1 0-1.4.5-1.4 1.4 0 1 .5 1.4 1.4 1.4 1 0 1.4-.5 1.4-1.4 0-.9-.4-1.4-1.4-1.4zM-73.7 512.3c-1 0-1.4.5-1.4 1.4 0 1 .5 1.4 1.4 1.4 1 0 1.4-.5 1.4-1.4 0-.9-.5-1.4-1.4-1.4z"/><path class="st7" d="M-165.4 425.8c0-1-.5-1.4-1.4-1.4-1 0-1.4.5-1.4 1.4 0 1 .5 1.4 1.4 1.4 1 0 1.4-.4 1.4-1.4z"/><path class="st8" d="M-37.9 473.1c0 1 .5 1.4 1.4 1.4 1 0 1.4-.5 1.4-1.4 0-1-.5-1.4-1.4-1.4-.9-.1-1.4.4-1.4 1.4z"/><path class="st7" d="M-164.3 438.5c2.8 2 5.8 3 9.1 3 5.1 0 9.7-1.6 13.6-4.9 4-3.3 5.9-7.3 5.9-12 0-3.5-.3-5.9-.8-7.3.4-.7.7-1.8.9-3.1s.5-2.2 1-2.7c-.4-.1-1.1-.1-2.2-.1-3.4 0-5.6.1-6.7.4-1.1.3-2.1.7-2.9 1.3.4-.9.8-1.9 1-3 .2-1.1.7-2.8 1.4-5.1-.2 0-.9 0-2.1-.1-1.2-.1-2.3 0-3.1.2-.1-.5-.3-1.1-.4-1.8-.1-.7-.6-1.8-1.4-3.2-1.4 1.2-2.7 2.2-4 3-1.3.8-2.4 1.6-3.2 2.3-4.4 1-8 2.7-10.9 5.3-2.9 2.6-4.3 6.1-4.3 10.6 0 3.2.8 6.4 2.5 9.5 1.5 3.1 3.8 5.7 6.6 7.7zm-2.3-26.9c3-2.9 6-4.3 9-4.3.5-.5 1.3-1.1 2.4-1.6 1.1-.6 2.2-1.5 3.5-2.7.4 1.2.6 2.1.7 2.6.1.5.1 1 .2 1.5l4.4-.2c-.4 1.1-.9 2.3-1.3 3.6-.4 1.3-.8 3.2-1 5.9.9-.2 2-.6 3.2-1.3 1.3-.6 2.4-1.1 3.4-1.4 1-.3 2.3-.4 3.9-.4-.8 1.1-1.5 2.8-2 5.1-.5 2-1.1 3.5-1.8 4.7-.7 1.1-1.7 1.7-3.2 1.7.1.2.2.6.2 1.1 0 1-.3 2-1 3.1s-2 2.6-4 4.3c-1-1-2.3-1.8-4.2-2.6-1.7.3-3.8 1.7-6.4 4.3-2.9-1.6-5.1-3.5-6.6-5.7s-2.9-4.8-4.3-8c.3-3.6 1.8-6.8 4.9-9.7z"/><path class="st7" d="M-159 429.8c0 1 .5 1.4 1.4 1.4 1 0 1.4-.5 1.4-1.4 0-1-.5-1.4-1.4-1.4-.9-.1-1.4.4-1.4 1.4zM-163.6 428.3c-1 0-1.4.5-1.4 1.4 0 1 .5 1.4 1.4 1.4 1 0 1.4-.5 1.4-1.4 0-.9-.4-1.4-1.4-1.4z"/><path d="M-40.7 421.2c-.7-1.8-3.2-3-7.6-3.4-.1-2.8-1.6-4.2-4.4-4.2-2 0-3.1 1.4-3.4 4.3-5.3.8-8 1.9-7.9 3.4-6.3 5.1-9.4 9.3-9.4 12.9 0 7 2.7 10.4 8.2 10.1 2.4 2 4.9 2.9 7.4 2.7 1.6-.1 3.3-.4 5.2-1 1.8.7 4.1.9 6.8.7 3.7-.2 6.5-1.2 8.6-2.9 4.1-1.5 6.2-4.4 6.2-8.5-.1-4.4-3.3-9.1-9.7-14.1zm1.8 20.7c-.2.1-.4.2-.7.2-1.3.3-2.4 1.1-3.4 2-.7.6-1.7.9-3 1-2.7.1-5.8-1-6.6-1-.8.1-4.3 1-6.5 1-1.5 0-2.6-.5-3.3-1.3-.8-.9-1.8-1.3-2.9-1.6-.1 0-.1 0-.2-.1-3.4-.9-5.1-2.8-4.9-5.8.4-5.1 3-9.7 8-13.8 0 .1 4.1 1 10.7.9 5-.1 9.2-.7 9.1-.9 4.9 4.2 7.5 8.8 7.9 13.8.3 2.8-1.1 4.7-4.2 5.6z" style="fill:#038249"/><path class="st8" d="M-33.4 467.2c-1.6-4.8-4.2-7.1-7.8-7.1-1.4-3.4-2.5-5.6-3.3-6.4l-3.7.4c-3.9 2.4-7 6-9.2 10.9-5.1-4.2-7.7-7.1-7.7-8.5-3.2-4.3-5.5-6.5-6.9-6.5-2.8-7.7-5.6-11.5-8.3-11.5h-8l-.4-.2c-2.4-5.8-4.2-8.7-5.3-8.8-5.1-1.8-8.2-2.6-9.1-2.6l-2.4.4c-4.4 2-7.3 4.9-8.8 8.9h-.4c-1.2-1.2-3-1.9-5.2-1.9s-3.7-1-4.4-3c-.9 0-3.6.7-8 2-2 5.2-4.3 8.8-6.9 10.7 0 .7.2 1.2.5 1.6.4.4.5.7.5.8-2.1-.8-4.7-1.6-7.8-2.3h-.9c-1.5 3.4-3.9 5.2-7 5.2-3.7-.2-6.9-.3-9.4-.3h-1.1c-1 0-2 .4-3.2 1.3-3.4 8.1-5.9 12.3-7.3 12.6l.4 3.2v2.5l-1.2 5.5c2.4 2.3 5.5 8.5 9.1 18.8 2.6 7.8 6.8 12.5 12.4 14.1.3 4.5 2.2 8.4 5.6 11.5 9 8.3 19.5 12.5 31.5 12.5h4.5c6.8 0 13.9-1.5 21.2-4.6 2.2-.9 4.5-2.5 7-4.7 3.8.5 6.4.8 7.7.8h2.6c4.4 0 9.5-1.4 15.3-4.2 3.7-3 7.7-6.1 11.8-9.2 6.2-5.2 9.3-9.5 9.3-12.9 4.5-4.5 6.7-10.4 6.7-17.9v-4.5c-1.1-4.4-1.9-6.6-2.4-6.6zm-31.6-5.1c5.5 3.6 8.2 10.5 8.2 20.9 0 8.9-3 17-9 24.1-.7-1.7-1-5.9-.9-12.5.7-6.8-.6-12.5-3.7-17.1-6-8.9-14.4-13.5-25.2-13.7 5.8-2.6 10.7-4 14.8-4h2.2c6.6-.1 11.1.7 13.6 2.3zm-25.6 24.5c-1.3-6.4-4.4-13.2-9.1-20.3l1.1-.2c8.1 0 14.9 2.3 20.4 6.9 5.9 4 8.8 10.8 8.8 20.4 0 4.2-.4 8.6-1.1 13.3-5.6.4-11.5 2.4-17.6 5.9l-1.8-4.3c.5-2.4.8-4.7.8-6.7-.1-5-.6-10-1.5-15zm-22.8-32.7c2.4 1.6 4.3 4.6 5.6 8.9-4.6-2-9.4-3-14.5-3-6.7 0-11.5.5-14.4 1.4 7-5.9 13.7-8.8 19.9-8.8 1.5.4 2.6.9 3.4 1.5zm-.6-3.8c2-1.6 5.2-2.4 9.3-2.4h1.4c4.5 0 7.7.7 9.4 2-4.6 3.6-7.8 8.3-9.6 14.3l-1.6-3.4c-3.3-6.6-6.3-10.1-8.9-10.5zm-10.8 12.5c2.9 0 6.6.4 10.9 1.3-1.4.3-3.1.8-5.3 1.5-8.9 3.9-16 10.2-21.4 19l-3.6-1.1h-1.9c-2.3 1.6-3.4 2.3-3.4 2.1-.1-.1-.2-.2-.2-.3v-3.7c0-5 2.8-9.4 8.5-13.3 3.1-3.6 8.6-5.5 16.4-5.5zm15.3 3.4h2.6v.1c-6.1 4.1-10.8 12-14.1 23.6-.4 0-3.2-2.2-8.6-6.7h-1c-1.5 0-3.7.4-6.5 1.2 8.8-12.1 18-18.2 27.6-18.2zm-4 11.2c3.4-5.7 6.8-9.2 10.4-10.3 1.6 1.6 3.7 4.9 6.4 10 2.9 6.6 4.5 13.4 4.7 20.3v3.6c0 2.9-.1 4.7-.4 5.4-2.5 0-7.2-3.2-14.1-9.6-3.3-4.5-5.2-6.8-5.7-6.9h-5.6c.5-3.1 2-7.3 4.3-12.5zm45.2-19.1c-3.7-.9-6.9-1.3-9.4-1.3-8.3.1-15.9 2.4-22.5 6.9 3.2-8.9 8-13.4 14.3-13.4 8.3 0 14.2 2.6 17.6 7.8zm-62.8-19.9c.7-2.2 2.3-3.3 5.1-3.3-.1 0 .3.6 1.1 1.9 4.5.4 8 1.6 10.7 3.4h.9c4.1-6.7 7.5-10.1 10.1-10.1h.7l7.1 2.1c1.8 4.6 3.5 7.9 5.1 9.9 2.5 0 5.7-.1 9.8-.3 2.5 2.1 3.7 4.2 3.7 6.4-3.7-.7-6.7-1-8.8-1-1.1 0-2.7.1-4.7.3-3.9-2.2-8.3-3.3-13.2-3.3-6.1 0-10.9 1.6-14.5 4.8-4.5 1.2-8.6 2.4-12.2 3.7l-1.9-2.6c-1.9-2-3.1-3.8-3.5-5.3 1.5-.6 3.1-2.8 4.5-6.6zm-40.2 26.3c1.4-1.2 3-3.7 4.7-7.5.9-3.2 1.9-4.8 3.1-4.8 2.9 0 5.9.1 9 .3 4.7 0 7.8-1.6 9.3-4.7 2.8.4 4.8.9 6 1.4 1.5.2 3.1 1.7 4.8 4.4l.4.7c-4.9 3.8-8 7.3-9.2 10.3-6.8 5.6-10.2 10.9-10.2 15.7-9.2-5.2-15.2-7.8-18.1-7.8 0-1 .1-2.7.3-5.3V466l-.1-1.5zm16.4 37.9c-3.1-2.6-5.3-4.9-6.4-6.9-1.4-2.1-2.8-5.3-4.3-9.9-1.7-4.6-3.1-7.8-4.3-9.4 8.6 3.1 14 5.8 15.9 8.2.3 2 1 3.3 2.2 4-2.2 2.4-3.3 7.1-3.1 14zm61 21c-7.3 3-13.5 4.5-18.7 4.5-5.1-.1-9.2-.3-12.3-.7-5.9-.6-12.8-4.1-20.7-10.7-4-3.4-6-9.8-6-19 0-3.1 2.1-6.7 6.4-11 .7 0 2.4.4 5.3 1.1 1.4 0 4.4-.6 8.9-1.8 5.7 4.9 9.6 7.4 11.8 7.4l5.4-.7c.7.6 1.1.9 1.1 1 2.6 3.7 5.1 6.7 7.4 8.9 4.1 3.6 8.1 5.9 11.9 6.9.1 0 2 3.3 5.8 10-1 1.3-3 2.6-6.3 4.1zm17.9-4.1h-1c-5.1-.3-8.2-1.5-9.1-3.6v-.2c5.8-3.5 11.1-5.3 15.8-5.3h1.9c.5 0 3.4 1.4 8.6 4.3-4 3.1-9.4 4.7-16.2 4.8zm30.4-16.7c-2.1 2.2-5.9 5.4-11.4 9.6-2.6-.7-4.3-1.6-4.9-2.5.6-.4 2-2.2 4.2-5.4 2.1-3.4 3.7-10.5 4.6-21.3 0-5-.7-9.9-2.2-14.8 1.5-2.1 3-3.9 4.3-5.4 1.4-2 3-3.7 4.9-5.1.1 3.6 2.4 5.7 6.8 6.3 0 1-1.1 4.9-3.4 11.6v.9c0 3.6 1.2 8 3.7 13.3 0 4-2.2 8.3-6.6 12.8zm11.1-24.3c0 2.5-.5 5.7-1.6 9.6-2.1-4.9-3.1-8.1-3.1-9.6v-2l.3-2.1 1-3.1 1.4-3.4c0 .2.1.5.2.9 1.2 1.7 1.8 3.7 1.8 5.9v3.8z"/><path class="st8" d="M-36.4 488.7v-.5h.1c0 .1 0 .2-.1.5z"/><path class="st7" d="M-142.2 418.2c1 0 1.4-.5 1.4-1.4 0-1-.5-1.4-1.4-1.4-1 0-1.4.5-1.4 1.4 0 1 .5 1.4 1.4 1.4zM-151.3 431.2c1 0 1.4-.5 1.4-1.4 0-1-.5-1.4-1.4-1.4-1 0-1.4.5-1.4 1.4 0 .9.5 1.4 1.4 1.4zM-151.3 423.3c1 0 1.4-.5 1.4-1.4 0-1-.5-1.4-1.4-1.4-1 0-1.4.5-1.4 1.4 0 .9.5 1.4 1.4 1.4zM-150.9 415.6c1 0 1.4-.5 1.4-1.4 0-1-.5-1.4-1.4-1.4-1 0-1.4.5-1.4 1.4 0 .9.5 1.4 1.4 1.4zM-154.6 411.5c1 0 1.4-.5 1.4-1.4 0-1-.5-1.4-1.4-1.4-1 0-1.4.5-1.4 1.4 0 1 .5 1.4 1.4 1.4zM-144.5 423.3c1 0 1.4-.5 1.4-1.4 0-1-.5-1.4-1.4-1.4-1 0-1.4.5-1.4 1.4 0 .9.5 1.4 1.4 1.4zM-154.4 416.7c-1 0-1.4.5-1.4 1.4 0 1 .5 1.4 1.4 1.4 1 0 1.4-.5 1.4-1.4.1-.9-.4-1.4-1.4-1.4zM-163.4 421.9c0-1-.5-1.4-1.4-1.4-1 0-1.4.5-1.4 1.4 0 1 .5 1.4 1.4 1.4.9 0 1.4-.5 1.4-1.4zM-147.4 424.4c-1 0-1.4.5-1.4 1.4 0 1 .5 1.4 1.4 1.4 1 0 1.4-.5 1.4-1.4 0-.9-.5-1.4-1.4-1.4zM-147.7 419.6c1 0 1.4-.5 1.4-1.4 0-1-.5-1.4-1.4-1.4-1 0-1.4.5-1.4 1.4 0 .9.5 1.4 1.4 1.4z"/><path class="st8" d="M-140 508.1c-1 0-1.4.5-1.4 1.4 0 1 .5 1.4 1.4 1.4 1 0 1.4-.5 1.4-1.4.1-.9-.4-1.4-1.4-1.4zM-100.5 513.9c1 0 1.4-.5 1.4-1.4 0-1-.5-1.4-1.4-1.4-1 0-1.4.5-1.4 1.4-.1 1 .4 1.4 1.4 1.4zM-130.5 521.7c-1 0-1.4.5-1.4 1.4 0 1 .5 1.4 1.4 1.4 1 0 1.4-.5 1.4-1.4 0-.9-.5-1.4-1.4-1.4zM-129.9 488.4c-1 0-1.4.5-1.4 1.4 0 1 .5 1.4 1.4 1.4 1 0 1.4-.5 1.4-1.4.1-.9-.4-1.4-1.4-1.4zM-103.6 509.6c1 0 1.4-.5 1.4-1.4 0-1-.5-1.4-1.4-1.4-1 0-1.4.5-1.4 1.4 0 1 .4 1.4 1.4 1.4zM-103.3 515.4c-1 0-1.4.5-1.4 1.4 0 1 .5 1.4 1.4 1.4 1 0 1.4-.5 1.4-1.4 0-1-.4-1.4-1.4-1.4zM-135.4 513.3c0-1-.5-1.4-1.4-1.4-1 0-1.4.5-1.4 1.4 0 1 .5 1.4 1.4 1.4 1 0 1.4-.5 1.4-1.4zM-136.3 519.4c-1 0-1.4.5-1.4 1.4 0 1 .5 1.4 1.4 1.4 1 0 1.4-.5 1.4-1.4 0-.9-.5-1.4-1.4-1.4zM-106.7 505.7c1 0 1.4-.5 1.4-1.4 0-1-.5-1.4-1.4-1.4-1 0-1.4.5-1.4 1.4 0 .9.5 1.4 1.4 1.4zM-133.3 495.4c1 0 1.4-.5 1.4-1.4 0-1-.5-1.4-1.4-1.4-1 0-1.4.5-1.4 1.4 0 .9.5 1.4 1.4 1.4zM-133.2 515.8c-1 0-1.4.5-1.4 1.4 0 1 .5 1.4 1.4 1.4 1 0 1.4-.5 1.4-1.4.1-.9-.4-1.4-1.4-1.4zM-104.4 521c0-1-.5-1.4-1.4-1.4-1 0-1.4.5-1.4 1.4 0 1 .5 1.4 1.4 1.4.9 0 1.4-.5 1.4-1.4zM-100.4 519.5c-1 0-1.4.5-1.4 1.4 0 1 .5 1.4 1.4 1.4 1 0 1.4-.5 1.4-1.4 0-.9-.5-1.4-1.4-1.4zM-103.4 522.9c-1 0-1.4.5-1.4 1.4 0 1 .5 1.4 1.4 1.4 1 0 1.4-.5 1.4-1.4 0-.9-.4-1.4-1.4-1.4zM-97.9 515.4c-1 0-1.4.5-1.4 1.4 0 1 .5 1.4 1.4 1.4 1 0 1.4-.5 1.4-1.4 0-1-.4-1.4-1.4-1.4zM-92.2 518.2c1 0 1.4-.5 1.4-1.4 0-1-.5-1.4-1.4-1.4-1 0-1.4.5-1.4 1.4 0 .9.5 1.4 1.4 1.4zM-94.7 519.5c-1 0-1.4.5-1.4 1.4 0 1 .5 1.4 1.4 1.4 1 0 1.4-.5 1.4-1.4 0-.9-.5-1.4-1.4-1.4zM-109 509.6c1 0 1.4-.5 1.4-1.4 0-1-.5-1.4-1.4-1.4-1 0-1.4.5-1.4 1.4 0 1 .5 1.4 1.4 1.4zM-108.8 522.9c-1 0-1.4.5-1.4 1.4 0 1 .5 1.4 1.4 1.4 1 0 1.4-.5 1.4-1.4.1-.9-.4-1.4-1.4-1.4zM-109.2 501.3c0-1-.5-1.4-1.4-1.4-1 0-1.4.5-1.4 1.4 0 1 .5 1.4 1.4 1.4.9 0 1.4-.5 1.4-1.4zM-136.8 496.5c-1 0-1.4.5-1.4 1.4 0 1 .5 1.4 1.4 1.4 1 0 1.4-.5 1.4-1.4 0-1-.4-1.4-1.4-1.4zM-105.9 513.9c1 0 1.4-.5 1.4-1.4 0-1-.5-1.4-1.4-1.4-1 0-1.4.5-1.4 1.4 0 1 .4 1.4 1.4 1.4zM-163.7 480.3c0-1-.5-1.4-1.4-1.4-1 0-1.4.5-1.4 1.4 0 1 .5 1.4 1.4 1.4.9 0 1.4-.4 1.4-1.4zM-155.7 488.7c-1 0-1.4.5-1.4 1.4 0 1 .5 1.4 1.4 1.4 1 0 1.4-.5 1.4-1.4 0-1-.4-1.4-1.4-1.4zM-137 491.3c1 0 1.4-.5 1.4-1.4 0-1-.5-1.4-1.4-1.4-1 0-1.4.5-1.4 1.4 0 .9.4 1.4 1.4 1.4zM-143.8 491.3c1 0 1.4-.5 1.4-1.4 0-1-.5-1.4-1.4-1.4-1 0-1.4.5-1.4 1.4 0 .9.4 1.4 1.4 1.4zM-140.4 495.4c1 0 1.4-.5 1.4-1.4 0-1-.5-1.4-1.4-1.4-1 0-1.4.5-1.4 1.4 0 .9.4 1.4 1.4 1.4zM-160.5 488.9c-1 0-1.4.5-1.4 1.4 0 1 .5 1.4 1.4 1.4 1 0 1.4-.5 1.4-1.4 0-.9-.5-1.4-1.4-1.4zM-81.7 513.8c-1 0-1.4.5-1.4 1.4 0 1 .5 1.4 1.4 1.4 1 0 1.4-.5 1.4-1.4 0-.9-.5-1.4-1.4-1.4zM-161.3 485.6c0-1-.5-1.4-1.4-1.4-1 0-1.4.5-1.4 1.4 0 1 .5 1.4 1.4 1.4.9 0 1.4-.5 1.4-1.4zM-157.7 487.3c1 0 1.4-.5 1.4-1.4 0-1-.5-1.4-1.4-1.4-1 0-1.4.5-1.4 1.4 0 1 .5 1.4 1.4 1.4zM-160.6 483.3c1 0 1.4-.5 1.4-1.4 0-1-.5-1.4-1.4-1.4-1 0-1.4.5-1.4 1.4-.1.9.4 1.4 1.4 1.4zM-147.2 495.4c1 0 1.4-.5 1.4-1.4 0-1-.5-1.4-1.4-1.4-1 0-1.4.5-1.4 1.4-.1.9.4 1.4 1.4 1.4zM-157.9 493.6c-1 0-1.4.5-1.4 1.4 0 1 .5 1.4 1.4 1.4 1 0 1.4-.5 1.4-1.4 0-.9-.4-1.4-1.4-1.4zM-139 501.6c0-1-.5-1.4-1.4-1.4-1 0-1.4.5-1.4 1.4 0 1 .5 1.4 1.4 1.4.9.1 1.4-.4 1.4-1.4zM-143.6 504.2c-1 0-1.4.5-1.4 1.4 0 1 .5 1.4 1.4 1.4 1 0 1.4-.5 1.4-1.4 0-1-.4-1.4-1.4-1.4zM-143.6 496.5c-1 0-1.4.5-1.4 1.4 0 1 .5 1.4 1.4 1.4 1 0 1.4-.5 1.4-1.4 0-1-.4-1.4-1.4-1.4zM-94.8 511.1c-1 0-1.4.5-1.4 1.4 0 1 .5 1.4 1.4 1.4 1 0 1.4-.5 1.4-1.4 0-.9-.5-1.4-1.4-1.4zM-140 515.8c-1 0-1.4.5-1.4 1.4 0 1 .5 1.4 1.4 1.4 1 0 1.4-.5 1.4-1.4.1-.9-.4-1.4-1.4-1.4zM-149.2 504.2c-1 0-1.4.5-1.4 1.4 0 1 .5 1.4 1.4 1.4 1 0 1.4-.5 1.4-1.4 0-1-.5-1.4-1.4-1.4zM-143.6 511.8c-1 0-1.4.5-1.4 1.4 0 1 .5 1.4 1.4 1.4 1 0 1.4-.5 1.4-1.4 0-.9-.4-1.4-1.4-1.4zM-148.2 497.9c0-1-.5-1.4-1.4-1.4-1 0-1.4.5-1.4 1.4 0 1 .5 1.4 1.4 1.4.9 0 1.4-.5 1.4-1.4zM-147.2 500.2c-1 0-1.4.5-1.4 1.4 0 1 .5 1.4 1.4 1.4 1 0 1.4-.5 1.4-1.4 0-.9-.5-1.4-1.4-1.4zM-144.6 509.5c0-1-.5-1.4-1.4-1.4-1 0-1.4.5-1.4 1.4 0 1 .5 1.4 1.4 1.4.9.1 1.4-.4 1.4-1.4z"/><g><path class="st7" d="M-102 382.2c1.2.5 2.3.7 2.9.7 1.5 0 3-.7 8-3.5 6.4-3.6 6.4-3.6 8.7-5.2-.1-3.1-.4-4.1-1.7-6.4-3.3.9-8.7 1.9-11.1 1.9l-1.3-.1-.3-.5c3.7-1.4 8.3-3.6 12.2-5.6 6.4-3.5 6.8-3.7 6.6-4.9.1-.6.2-.8.5-1.2l.5-.1c1.3.4 2 .8 2.7 1.7 1.6 1.8 2.8 4.1 2.8 5.5 0 1.1-.7 1.4-3.2 1.6-.7.1-2.4.4-5.2 1 2.3 1.4 3 2.3 3 4.5v.3c.5-.3.9-.5 1.1-.5 1.5 0 3.8 2.2 3.8 3.6 0 .7-.5 1.2-2.2 1.9-1.1.5-2 1-4.3 2.6 1 1.1 1.3 1.9 1.3 2.9s0 1-.9 4.4l-.5 1.2-.3 1c.9-.4 2-1.5 5.2-5.8l.4.5c-.5 2.5-2.9 6.3-6.7 10.5-.2 1.4-.2 2.5-.2 3.1 0 .8 0 .8.6 8.3.2 1.6.2 3 .2 4 0 2-1 4.4-1.9 4.4-.5 0-1.5-1.1-2.1-2.3s-.9-2.4-.9-4c0-1 .1-2.3.2-3.7.2-1.6.2-2.7.2-3.5l-.1-1.9c-1.1.9-2.1 1.8-2.4 2-1.4 1.1-2.3 1.9-2.5 2.1l-1.2 1.1c-.5.5-.9.7-1.2.7-.6 0-.7-.2-1.3-1.7-1.1-2.9-1.1-2.9-1.1-3.7 0-.9.2-1.6.6-2.3.2-.4.5-.5 2-1.2 4.9-2.9 8.3-8.5 8.2-13.5-2.1 1.7-2.1 1.7-7.2 5.5-2.3 1.8-3.4 2.3-4.4 2.3-1.2 0-4.1-1.6-5.9-3.3-1.3-1.3-1.7-2.2-1.9-4.1l.3-.3zm23.7 21.7c6.8-1.3 10.4-5.1 12.8-13.2 1.4-4.7 2.2-8.9 2.8-15.2.5-4.6 1-11.6 1-13.3 0-2.3-.2-2.7-2.3-3.7l-.5-.4c.9-2.8 1.7-4 2.8-4 2.3 0 4.5 4.4 4.5 8.9 0 .9-.1 2.1-.2 3.5-.3 3-.4 4.2-.5 6.6 3.4.1 4.9.5 7 1.4 2.4 1.1 3.9 3.1 3.9 5.1 0 1.6-1.3 2.6-3.1 2.6-1.6 0-3.6-1.2-6-3.4-1.3-1.2-1.6-1.3-2.6-1.3-.5 4-.8 6.2-1.7 10.6l2.1 1.4c.3.2 1.5 1.2 3.3 2.7 5.2 4.2 12.6 8.9 17.8 11.2 3 1.3 4.4 2.7 4.4 4.3 0 .5 0 .5-4.3.9l-2.3-.1-4.2-.2c-3.2.3-8-4.1-14.2-13-1.6-2.2-1.7-2.4-3.3-3.6-1.3 5.1-2 6.8-3.4 8.7-2.1 2.9-6.2 4.9-10 4.9-1.2 0-2.1-.2-4-.8l.2-.6zm14-25c-.2.7-.4 1.2-.5 1.5s-.5 1.2-1.2 2.7c-.9 1.7-1.2 2.6-2.5 6.9-.7 2.3-1.5 3.4-2.3 3.4-.9 0-2.4-3.7-2.4-5.8 0-1 0-1 1.6-5 .2-.6.3-1.2.3-1.8 0-1-.2-1.9-1-3.7l.3-.5c1.7.1 2.7.5 3.6 1.9 1 1.6 1.1 1.6 1.7 1.6.2 0 .4 0 .5-.1 1.1-1.2 1.1-1.2 1.6-1.5l.3.4z"/></g><path d="M-141.7 382.5c0-5-3.1-8.3-9.2-10v-.3c5.4-1.9 8.1-5.1 8.1-9.7 0-3.8-1.9-6.7-5.7-8.6-2.4-1.1-5.2-1.6-8.5-1.6-4 0-7.2 1-9.8 3-2.1 1.7-3.2 3.7-3.2 5.9 0 2.9 1.4 4.3 4.1 4.3 2.6 0 3.8-1.2 3.8-3.5 0-1.7-.9-2.8-2.6-3.4 1.8-2 4.3-3 7.6-3 5.5 0 8.2 2.3 8.2 6.9 0 5.6-3 8.5-9 8.5h-4v3.4h4c6.7 0 10 2.6 10 7.9 0 5.4-3.3 8.1-10 8.1-4 0-6.6-1-7.8-3.1 1.8-.4 2.7-1.5 2.7-3.3 0-2.3-1.2-3.5-3.6-3.5-3 0-4.5 1.5-4.5 4.5 0 2.7 1.4 5 4.3 6.8 2.6 1.5 5.6 2.3 9.2 2.3 4.2 0 7.7-.8 10.4-2.4 3.7-2.1 5.5-5.1 5.5-9.2z" style="fill:#2a3b92"/></g></switch></svg>