<svg version="1.1" id="svg2985" xmlns="http://www.w3.org/2000/svg" x="0" y="0" viewBox="-192 293.9 210 255" style="enable-background:new -192 293.9 210 255" xml:space="preserve"><style>.st3{fill:#fff}.st7{fill:#bf3718}</style><switch><g><filter width="1.217" height="1.215" color-interpolation-filters="sRGB" id="filter3970-5" x="-.109" y="-.108"><feGaussianBlur stdDeviation=".128" id="feGaussianBlur3972-8"/></filter><g id="g4630" transform="matrix(1.0006 0 0 1 -1.376 203.406)" style="enable-background:new"><g id="g3062"><path id="rect4031" d="m-131.2 90.5 46.1.2 68.4-.2c22.9-.1 36.1 15.9 36.1 40.4v154.6c0 12.3-14 27.7-21.4 35.7s-22.1 24.3-33.6 24.3h-113c-22.9 0-41.3-5.6-41.3-30.2l-.3-162.3c0-6.4 17.3-24.3 24.8-32.4 7.4-8 22.7-30.2 34.2-30.1z"/><path id="rect3767" d="M-122.4 103.2h104.5c13.8 0 24.8 11.1 24.9 24.9l.9 152.4c0 2-12.6 32-25.8 32h-104.5c-13.8 0-24.9-11.1-24.9-24.9V128.1c0-13.8 11.1-24.9 24.9-24.9z" style="fill:#005f00"/><path id="rect3861" d="M-137.4 118.1h99.6c13.7 0 24.9 11.2 24.9 24.9v159.5c0 13.8-11.1 24.9-24.9 24.9h-99.6c-13.7 0-24.9-11.2-24.9-24.9V143.1c0-13.8 11.2-25 24.9-25z" style="fill:#cddacd"/><path id="rect3765" class="st3" d="M-147.3 133.1h104.5c13.7 0 24.9 11.2 24.9 24.9v149.5c0 13.8-11.1 24.9-24.9 24.9h-104.5c-13.7 0-24.9-11.2-24.9-24.9V158c0-13.7 11.1-24.9 24.9-24.9z"/><linearGradient id="rect3008_1_" gradientUnits="userSpaceOnUse" x1="-324.883" y1="569.587" x2="-324.883" y2="531.068" gradientTransform="matrix(4.9807 0 0 -4.9841 1515.62 2981.96)"><stop offset="0" style="stop-color:#d0e4cc"/><stop offset="1" style="stop-color:#fbffec"/></linearGradient><path id="rect3008" d="M-157.3 143.1h109.5c11 0 19.9 8.9 19.9 19.9v149.5c0 11-8.9 19.9-19.9 19.9h-109.5c-11 0-19.9-8.9-19.9-19.9V163c0-11 8.9-19.9 19.9-19.9z" style="fill:url(#rect3008_1_)"/><path id="path3932" class="st3" d="M2.2 115.7c0 1.5-1.3 2.8-2.8 2.8s-2.8-1.3-2.8-2.8 1.3-2.8 2.8-2.8 2.8 1.2 2.8 2.8z"/><g id="path3936" style="filter:url(#filter3970-5)"><linearGradient id="SVGID_1_" gradientUnits="userSpaceOnUse" x1="-315.771" y1="590.47" x2="-318.887" y2="587.001" gradientTransform="matrix(7.1013 0 0 -6.6887 2243.616 4061.265)"><stop offset="0" style="stop-color:#fff"/><stop offset="1" style="stop-color:#fff;stop-opacity:0"/></linearGradient><path style="fill:url(#SVGID_1_)" d="m-2.8 114.3-28.8 24.6 8.2 6 25.2-28.3z"/></g><path id="path3882" class="st3" d="M-15 137.6c0 4.8-3.9 8.7-8.7 8.7-4.8 0-8.7-3.9-8.7-8.7 0-4.8 3.9-8.7 8.7-8.7 4.7 0 8.7 3.9 8.7 8.7z"/></g></g><path class="st7" d="M-101.2 465.8c-1.4 0-2.6.5-3.6 1.5s-1.5 2.2-1.5 3.7c0 1.3.5 2.5 1.5 3.6s2.2 1.6 3.6 1.6 2.6-.5 3.6-1.4c1-1 1.5-2.2 1.5-3.7 0-1.4-.5-2.6-1.5-3.6-.9-1.2-2.1-1.7-3.6-1.7zM-35.1 383.2c0-5-3.1-8.3-9.2-10v-.3c5.4-1.9 8.1-5.1 8.1-9.7 0-3.8-1.9-6.7-5.7-8.6-2.4-1.1-5.2-1.6-8.5-1.6-4 0-7.2 1-9.8 3-2.1 1.7-3.2 3.7-3.2 5.9 0 2.9 1.4 4.3 4.1 4.3 2.6 0 3.8-1.2 3.8-3.5 0-1.7-.9-2.8-2.6-3.4 1.8-2 4.3-3 7.6-3 5.5 0 8.2 2.3 8.2 6.9 0 5.6-3 8.5-9 8.5h-4v3.4h4c6.7 0 10 2.6 10 7.9 0 5.4-3.3 8.1-10 8.1-4 0-6.6-1-7.8-3.1 1.8-.4 2.7-1.5 2.7-3.3 0-2.3-1.2-3.5-3.6-3.5-3 0-4.5 1.5-4.5 4.5 0 2.7 1.4 5 4.3 6.8 2.6 1.5 5.6 2.3 9.2 2.3 4.2 0 7.7-.8 10.4-2.4 3.7-2.1 5.5-5.2 5.5-9.2z"/><path d="M-47.8 482.9c4.3-2.8 6.5-6.7 6.5-11.9 0-4.8-2-8.7-6-11.6-3.6-2.6-7.9-4-13-4-.8 0-2.1.1-3.8.3 6.3-5.3 9.4-10.9 9.4-16.8 0-4-1.4-7.4-4.2-10.2-2.8-2.8-6.2-4.2-10.2-4.2-5.9 0-11.5 3.1-16.8 9.4.1-1 .1-1.9.1-2.9 0-5.4-1.1-9.9-3.4-13.5-2.8-4.3-6.8-6.5-12-6.5-4.8 0-8.7 2-11.6 6-2.6 3.6-3.8 7.9-3.8 13 0 .8.1 2.1.2 3.8-5.3-6.3-10.8-9.4-16.7-9.4-4 0-7.5 1.4-10.3 4.2-2.8 2.8-4.2 6.2-4.2 10.2 0 5.9 3.2 11.5 9.6 16.8-1-.1-1.9-.1-2.9-.1-5.4 0-9.9 1.1-13.5 3.4-4.3 2.8-6.5 6.8-6.5 12 0 4.8 2 8.7 5.9 11.6 3.7 2.6 8 3.8 13 3.8.9 0 2.2-.1 4-.2-6.4 5.3-9.6 10.8-9.6 16.7 0 4 1.4 7.5 4.2 10.3 2.8 2.8 6.2 4.2 10.3 4.2 5.9 0 11.5-3.2 16.7-9.6v2.9c0 5.4 1.1 9.9 3.4 13.5 2.8 4.3 6.7 6.5 11.9 6.5 4.8 0 8.7-2 11.6-5.9 2.6-3.7 4-8 4-13 0-.9-.1-2.2-.3-4 5.3 6.4 10.9 9.6 16.8 9.6 4 0 7.4-1.4 10.2-4.2 2.8-2.8 4.2-6.2 4.2-10.3 0-5.9-3.1-11.5-9.4-16.7h2.9c5.2.2 9.7-1 13.3-3.2zm-37.1-40.7c4.5-6.8 9.3-10.2 14.3-10.2 2.3 0 4.3.8 6 2.5 1.6 1.6 2.5 3.6 2.5 6 0 7.5-8.9 15-26.7 22.6a14.5 14.5 0 0 0-4.5-4.1c3.3-7.7 6.1-13.3 8.4-16.8zm-6.6 28.8c0 2.5-1 4.5-3 6.1-2 1.6-4.2 2.4-6.7 2.4s-4.7-.8-6.6-2.4c-1.9-1.6-2.9-3.6-2.9-6.1 0-2.5 1-4.5 2.9-6.2 1.9-1.6 4.2-2.4 6.6-2.4 2.5 0 4.7.8 6.7 2.4 2 1.7 3 3.7 3 6.2zm-16.9-47.5c1.8-2.8 4.2-4.2 7.3-4.2s5.5 1.4 7.4 4.2c1.5 2.4 2.2 5.2 2.2 8.5 0 5.3-2.2 13.8-6.7 25.5-1.2-.2-2.2-.3-2.9-.3s-1.6.1-2.9.3c-4.4-11.2-6.6-19.7-6.6-25.5 0-3.2.7-6 2.2-8.5zm-31.7 17c0-2.3.8-4.3 2.4-6 1.6-1.6 3.6-2.5 6-2.5 5 0 9.7 3.4 14.3 10.2 2.2 3.4 5 9 8.5 16.8-1.8 1-3.4 2.4-4.6 4.1-17.7-7.6-26.6-15.2-26.6-22.6zm0 39.9c-3.2 0-6-.7-8.5-2.2-2.8-1.8-4.2-4.2-4.2-7.3s1.4-5.5 4.2-7.4c2.4-1.5 5.2-2.2 8.5-2.2 6 0 14.1 2.1 24.4 6.4-.2 1-.3 2.1-.3 3.2 0 .9.1 1.9.4 3.2-10.3 4.3-18.5 6.3-24.5 6.3zm22.8 19.3c-4.5 6.8-9.3 10.2-14.3 10.2-2.4 0-4.4-.8-6-2.4-1.6-1.6-2.4-3.6-2.4-6 0-7.5 8.9-15 26.7-22.6 1.3 1.8 2.8 3.1 4.5 4.1-3.5 7.6-6.3 13.2-8.5 16.7zm23.5 18.6c-1.8 2.8-4.3 4.2-7.4 4.2s-5.5-1.4-7.3-4.2c-1.5-2.4-2.2-5.2-2.2-8.5 0-5.3 2.2-13.8 6.7-25.5 1.2.3 2.2.4 2.7.4.7 0 1.7-.1 3-.4 4.4 11.3 6.6 19.8 6.6 25.5.1 3.3-.7 6.1-2.1 8.5zm31.6-16.9c0 2.4-.8 4.4-2.5 6-1.6 1.6-3.6 2.4-6 2.4-5 0-9.7-3.4-14.3-10.2-2.3-3.4-5.1-9-8.5-16.8 1.8-1 3.4-2.4 4.6-4.1 17.9 7.8 26.7 15.3 26.7 22.7zm-24.4-27.2c.2-1.1.3-2.2.3-3.2 0-.9-.1-2-.4-3.3 10.3-4.2 18.5-6.3 24.5-6.3 3.2 0 6 .7 8.5 2.2 2.8 1.8 4.2 4.3 4.2 7.4s-1.4 5.5-4.2 7.3c-2.4 1.5-5.2 2.2-8.5 2.2-6.1-.1-14.2-2.1-24.4-6.3z" style="fill:#d37f11"/><g><path d="M-171.5 402.8c.1-.5.4-.5.5-.6.3-.2 3-.6 3.8-.9.2 0 2.7-1.1 3.5-1.4 8.3-3.9 9.5-4.3 12.4-5 .1-1.9.1-2.8.1-3.8 0-4-.4-5.5-1.6-6.2-1.1.5-1.9.9-2.4 1.3-1.4.9-1.7.9-2.3.9-1.1 0-1.8-1.7-1.8-4.3 0-.9.4-1.4 2-2.5 3-2.1 5.3-5.8 5.3-8.7 0-.8-.4-1.5-1.1-2-.6-.5-1-.9-1.2-1-.1-.1-.2-.4-.2-.8l.2-.2.3-.1c-.4-.2-1.3-1.2-1.4-1.6-1.3.3-2.9.9-3.3 1.2-4.8 1.8-6 3.1-6.7 3.1-.8 0-1.7-.7-2.5-1.9-1.1-1.6-1.8-2.7-1.8-3.1 0-.2-.1-.1 0-.5l.2-.3c.9.2 2.1.5 2.6.5 1.4 0 6.9-1.4 10.5-2.8-.2-3.6-.6-4.8-2.5-6.9-.9-.9-.9-.9-1-2l.2-.4c.5-.2.9-.2 1-.2 1.3 0 4.7 1 5.9 1.8 1.2.8 1.7 1.9 1.7 4.1l-.1 2.2c2.1-.5 3.7-1.3 5.8-1.4 2.6-.1 3.8-.2 6.5-.7.7-2.9.9-3.9.9-5.1 0-.5-.2-1.2-.4-1.6-1.3-1.9-1.3-1.9-1.4-2.1l.2-.4c.4-.4.6-.5 1.2-.5 1.4 0 3.7.6 5.3 1.6 1.5.9 2.1 1.8 2.1 3 0 .7-.1 1-.5 1.9-.6 1.2-1 2-1.3 2.7 1.1-.1 2-.2 2.4-.2.6-.1 3-.1 3.3-.1 2.4 0 5.2 1.7 5.2 3.2 0 1.7-5.7 2.7-12.1 2.7h-1.8c-2.2 3.4-3.3 4.8-4.4 5.9-1.1.9-1.9 1.3-2.5 1.3-.2 0-.4 0-.8-.2l-.2-.2c1.6-2.5 2.3-4.3 3.3-7.3-2.3-.6-2.6-.7-4.8-1.6-.5-.2-.9-.3-1.2-.3-.6 0-3.1 1.2-4.6 2.7-.6 2.5 0 2.5-.6 3.4.5.2 1.2.4 1.4.4l2.3.5c1.6.4 3.1 1.9 3.1 3.1 0 .7-.9 2.5-2.4 4.5-.1.2-.2.3-.2.4 0 .1.1.1.2.1s.4-.1.9-.2c4.4-1.3 11.2-2.3 13.5-2.3 4.1 0 9.8 5 9.8 8.3 0 .3-.1.9-.2 1.5-.6 2-1 3.4-1.1 3.7-.2.9-.4 3.6-.5 8.1-.2 11.2-1.4 17.4-4.3 21.8-.9 1.2-1.5 1.9-1.9 1.9s-.8-.3-1.6-1.5c-.2-.2-.8-.9-1.6-2-2.1-2.7-5.1-4.3-6.4-7.1l.2-.2c.5.2.9.2.9.3l4.3.8c.6.2 1.2.3 1.6.3.9 0 1.6-.6 2-1.9.6-2.2 1.7-13.9 1.7-19.3 0-8.8-.6-10.1-5-10.1s-11.5 1.5-13.9 3.4c2 1.1 2.6 1.9 2.6 3.3 0 .5-.1 1.6-.2 2.7-.2.8-.2 1.8-.2 2.3 0 .6.2 1 .4 1 .6 0 3.8-4.8 3.8-5.8 0-.5-.5-1.1-1.4-1.9v-.3c.5-.8 1.1-1.2 2-1.2 2.1 0 4.8 2.7 4.8 4.7 0 .4-.4 1.1-.9 1.6-.4.4-.9.9-1.7 1.5-.7.5-1.7 1.4-3 2.6.9-.2 3.5-.2 4-.2 2.7 0 6.2 2.1 6.2 3.7 0 .8-.7 1.3-1.6 1.3-.2 0-.6-.1-1.2-.2-1.2-.2-4.3-.4-5.1-.4-1.5 0-2.9.3-6 1.1v1.7c1-.1 4.9.9 5.7.9.9 0 1.9.4 2.9.7 2.3.7 2.8 2.3 2.8 4.8 0 1.1-.5 1.9-1.2 1.9-.9 0-5.8-3-10.3-6.1-.1 1-.1 4.1-.1 4.4-.1 1.2-.2 6-.2 6.3-.1 3.6-.5 5.7-1.3 5.7-.5 0-1.5-1.2-3.4-4.4-1.8-2.9-2.1-3.6-2.2-4.9l.2-.1c.4.2.7.2 1 .2.9 0 1.4-5.6 1.4-8.2l-.1-1.2c-3.4 1.1-3.9 1.3-7.3 3.3.5.5.7.7 1 1.1.2.4.5.5.6.5.2 0 .5-.1 1-.3 1.8-1 1.8-1 2.2-1.2l.3.1c0 .3-.1.6-.2.7 0 0-.1.2-.3.5-.1.2-.3.6-.5 1.2-.1.1-.3.6-.7 1.4-.5 1.1-2.1 2.7-2.4 4-.7 2.2-2.8 3.5-3.6 3.5-1.1 0-2.5-2.7-2.5-4.7 0-.2 1.4-2.1 1.8-2.6 1.3-1.7 1.4-3.5 1.2-3.5-.2 0-3.2 1.6-4.1 2-1.3.7-2.2.9-2.7.9-1.1 0-2.4-1.1-4-3.4v-.1zm10.4-16.8c1.3.2 2.3 1.6 2.3 3.4-.1.8 0 .9.3.9.5 0 2.3-.6 5.3-1.9l.1.2c-.5.9-1 1.5-1.2 1.7l-2 2.1c-.2.2-.7.9-1.2 1.6-1.6 2.3-2.3 3.1-3 3.1-1.2 0-3-2.4-3-3.8 0-.4 0-.4 1-2.8.6-1.4.9-2.4 1.1-4.3l.3-.2z" style="fill:#2a3b92"/></g></g></switch></svg>