<svg version="1.1" id="svg2985" xmlns="http://www.w3.org/2000/svg" x="0" y="0" viewBox="-192 293.9 210 255" style="enable-background:new -192 293.9 210 255" xml:space="preserve"><style>.st3{fill:#fff}.st7{fill:#2a3b92}.st8{fill:#bf3718}</style><switch><g><filter width="1.217" height="1.215" y="-.108" x="-.109" id="filter3970-5" color-interpolation-filters="sRGB"><feGaussianBlur stdDeviation=".128" id="feGaussianBlur3972-8"/></filter><g id="g4630" transform="matrix(1.0006 0 0 1 -1.376 203.406)" style="enable-background:new"><g id="g3062"><path id="rect4031" d="m-131.2 90.5 46.1.2 68.4-.2c22.9-.1 36.1 15.9 36.1 40.4v154.6c0 12.3-14 27.7-21.4 35.7s-22.1 24.3-33.6 24.3h-113c-22.9 0-41.3-5.6-41.3-30.2l-.3-162.3c0-6.4 17.3-24.3 24.8-32.4 7.4-8 22.7-30.2 34.2-30.1z"/><path id="rect3767" d="M-122.4 103.2h104.5c13.8 0 24.8 11.1 24.9 24.9l.9 152.4c0 2-12.6 32-25.8 32h-104.5c-13.8 0-24.9-11.1-24.9-24.9V128.1c0-13.8 11.1-24.9 24.9-24.9z" style="fill:#005f00"/><path id="rect3861" d="M-137.4 118.1h99.6c13.7 0 24.9 11.2 24.9 24.9v159.5c0 13.8-11.1 24.9-24.9 24.9h-99.6c-13.7 0-24.9-11.2-24.9-24.9V143.1c0-13.8 11.2-25 24.9-25z" style="fill:#cddacd"/><path id="rect3765" class="st3" d="M-147.3 133.1h104.5c13.7 0 24.9 11.2 24.9 24.9v149.5c0 13.8-11.1 24.9-24.9 24.9h-104.5c-13.7 0-24.9-11.2-24.9-24.9V158c0-13.7 11.1-24.9 24.9-24.9z"/><linearGradient id="rect3008_1_" gradientUnits="userSpaceOnUse" x1="-324.883" y1="569.587" x2="-324.883" y2="531.068" gradientTransform="matrix(4.9807 0 0 -4.9841 1515.62 2981.96)"><stop offset="0" style="stop-color:#d0e4cc"/><stop offset="1" style="stop-color:#fbffec"/></linearGradient><path id="rect3008" d="M-157.3 143.1h109.5c11 0 19.9 8.9 19.9 19.9v149.5c0 11-8.9 19.9-19.9 19.9h-109.5c-11 0-19.9-8.9-19.9-19.9V163c0-11 8.9-19.9 19.9-19.9z" style="fill:url(#rect3008_1_)"/><path id="path3932" class="st3" d="M2.2 115.7c0 1.5-1.3 2.8-2.8 2.8s-2.8-1.3-2.8-2.8 1.3-2.8 2.8-2.8 2.8 1.2 2.8 2.8z"/><g id="path3936" style="filter:url(#filter3970-5)"><linearGradient id="SVGID_1_" gradientUnits="userSpaceOnUse" x1="-315.771" y1="590.47" x2="-318.887" y2="587.001" gradientTransform="matrix(7.1013 0 0 -6.6887 2243.616 4061.265)"><stop offset="0" style="stop-color:#fff"/><stop offset="1" style="stop-color:#fff;stop-opacity:0"/></linearGradient><path style="fill:url(#SVGID_1_)" d="m-2.8 114.3-28.8 24.6 8.2 6 25.2-28.3z"/></g><path id="path3882" class="st3" d="M-15 137.6c0 4.8-3.9 8.7-8.7 8.7-4.8 0-8.7-3.9-8.7-8.7 0-4.8 3.9-8.7 8.7-8.7 4.7 0 8.7 3.9 8.7 8.7z"/></g></g><path class="st7" d="M-142.4 493.2c-1.2 0-2.3.4-3.1 1.2-.8.8-1.2 1.8-1.2 3s.4 2.2 1.2 3c.8.8 1.8 1.2 3.1 1.2 1.2 0 2.1-.4 2.9-1.2.8-.8 1.2-1.8 1.2-3s-.4-2.2-1.2-3c-.7-.8-1.7-1.2-2.9-1.2zM-138.7 443.6c.8-.8 1.2-1.8 1.2-3s-.4-2.2-1.2-3c-.8-.8-1.7-1.2-2.9-1.2s-2.3.4-3.1 1.2c-.8.8-1.2 1.8-1.2 3s.4 2.2 1.2 3c.8.8 1.8 1.2 3.1 1.2 1.2 0 2.2-.4 2.9-1.2zM-87.2 428.5c1.2 0 2.1-.4 2.9-1.2.8-.8 1.2-1.8 1.2-3s-.4-2.2-1.2-3c-.8-.8-1.7-1.2-2.9-1.2s-2.3.4-3.1 1.2c-.8.8-1.2 1.8-1.2 3s.4 2.2 1.2 3c.8.8 1.8 1.2 3.1 1.2z"/><path class="st8" d="M-45.1 487.4c5-5 7.5-11 7.5-18.1s-2.5-13.1-7.5-18.1c-5-5-11-7.5-18.1-7.5-2.7 0-4.3.1-4.7.2 2-2.7 3-6.8 3-12.3 0-7-2.5-13.1-7.5-18.1-5-5-11-7.5-18.1-7.5s-13.1 2.5-18.1 7.5c-5 5-7.5 9.9-7.5 14.7-3.8-5.2-10.1-7.8-18.8-7.8-7 0-13.1 2.5-18.1 7.5-5 5-7.5 11-7.5 18.1 0 5.5 1.6 10.5 4.9 15.1 3.3 4.5 6.4 7.3 9.5 8.2-3.1 1-6.2 3.7-9.5 8.2-3.3 4.5-4.9 9.6-4.9 15.2 0 7 2.5 13 7.5 18s11 7.5 18.1 7.5c8.7 0 15-2.6 18.8-7.8 0 4.8 2.5 9.7 7.5 14.7 5 5.1 11 7.6 18.1 7.6s13.1-2.5 18.1-7.5c5-5 7.5-11 7.5-18.1 0-5.6-1-9.7-3-12.4.4.1 2 .2 4.7.2 7.1 0 13.1-2.5 18.1-7.5zm-29.9 6.1c3.1 2.2 4.6 6.8 4.6 13.6 0 5.6-2 10.3-5.9 14.2-3.9 3.9-8.7 5.9-14.2 5.9-5.6 0-10.3-2-14.2-5.9-3.9-3.9-5.9-8.7-5.9-14.2 0-2.2.2-4 .7-5.3.4-1.4-.3-2.3-2.2-2.8-2.1-.8-3.6 0-4.4 2.4-.8 2.4-3 4.9-6.5 7.5-3.6 2.6-7.5 3.8-11.8 3.8-5.6 0-10.3-1.9-14.2-5.8-3.9-3.9-5.9-8.6-5.9-14.2s2-10.3 5.9-14.3c3.9-4 7.5-5.9 10.7-5.9 3.2 0 4.7-1.1 4.6-3.2.1-2.1-1.4-3.2-4.6-3.2-3.2 0-6.7-2-10.7-5.9-3.9-3.9-5.9-8.7-5.9-14.2 0-5.6 2-10.3 5.9-14.2 3.9-3.9 8.7-5.9 14.2-5.9 4.3 0 8.3 1.3 11.8 3.8 3.6 2.6 5.7 5.1 6.5 7.5.8 2.4 2.3 3.2 4.4 2.4 1.9-.5 2.6-1.4 2.2-2.8-.4-1.4-.7-3.1-.7-5.2 0-5.6 2-10.3 5.9-14.2 3.9-3.9 8.7-5.9 14.2-5.9 5.6 0 10.3 2 14.2 5.9 3.9 3.9 5.9 8.7 5.9 14.2 0 6.8-1.5 11.3-4.6 13.6-3.1 2.2-3.9 4.3-2.4 6.1 1 1.6 2.6 1.7 4.7.2s5.3-2.3 9.6-2.3c5.6 0 10.3 2 14.2 5.9 3.9 3.9 5.9 8.7 5.9 14.2 0 5.6-2 10.3-5.9 14.2-3.9 3.9-8.7 5.9-14.2 5.9-4.4 0-7.6-.7-9.7-2.2-2.1-1.5-3.6-1.4-4.6.2-1.5 1.9-.7 3.9 2.4 6.1z"/><path class="st7" d="M-54.7 474.7c1.2 0 2.1-.4 2.9-1.2.8-.8 1.2-1.8 1.2-3s-.4-2.2-1.2-3c-.8-.8-1.7-1.2-2.9-1.2s-2.3.4-3.1 1.2c-.8.8-1.2 1.8-1.2 3s.4 2.2 1.2 3c.8.8 1.9 1.2 3.1 1.2z"/><path class="st8" d="m-78.7 478.3 12.3 3.5c.1.6.3 1.1.8 1.4.4.4 1 .7 1.6.7.7 0 1.3-.2 1.8-.7s.7-1 .7-1.8c0-.7-.2-1.2-.7-1.7-.4-.5-1-.7-1.8-.7-.7 0-1.2.2-1.6.7l-.2.2-12-4.7c.1-.4.1-.8.2-1.2l16.7-1.8c.7-.1 1.2-.5 1.5-1.3.5-1.4.1-2.2-1.3-2.3l-16.7-2.5c0-.2 0-.4-.1-.7l12.3-3.8c0 .1.1.1.2.2.4.4 1 .7 1.6.7.7 0 1.3-.2 1.8-.7s.7-1 .7-1.8c0-.7-.2-1.2-.7-1.7-.4-.5-1-.7-1.8-.7-.7 0-1.2.2-1.6.7s-.7.9-.8 1.4l-12.3 2.6c-1.1-4.1-3.3-7.8-6.6-11.2-.7-.7-1.3-1.2-2-1.8l7.7-11.2h.3c.7 0 1.3-.2 1.8-.7s.7-1 .7-1.8c0-.7-.2-1.2-.7-1.7-.4-.5-1-.7-1.8-.7-.7 0-1.2.2-1.7.7-.5.5-.7 1-.7 1.7 0 .5.1 1 .3 1.3l-8.5 10.4c-.6-.4-1.2-.7-1.8-1l3.5-16.3c.2-1-.2-1.6-1.3-2-1-.4-1.8-.1-2.2.8l-7.4 14.9-1.8-.2.2-11.5c.3-.1.5-.3.8-.5.4-.4.7-1 .7-1.8 0-.7-.2-1.2-.7-1.7-.4-.5-1-.7-1.8-.7-.7 0-1.2.2-1.7.7-.5.5-.7 1-.7 1.7s.3 1.3.8 1.8c.2.2.5.4.8.4l-1.2 11.5c-4.8 0-9.1 1.2-13 3.5l-8.7-11.2c.2-.4.3-.8.3-1.3 0-.7-.2-1.2-.7-1.7s-1-.7-1.8-.7c-.7 0-1.2.2-1.7.7-.5.5-.7 1-.7 1.7s.2 1.3.7 1.8c.5.4 1 .7 1.7.7h.5l7.6 12c-.7.6-1.5 1.2-2.2 2l-14.9-8.6c-1.2-.7-2-.3-2.5 1.1-.2.7 0 1.5.8 2.2l11.9 11.6c-.4.8-.8 1.6-1.1 2.4l-12.2-4.1c0-.6-.2-1.1-.7-1.6-.4-.4-1-.7-1.8-.7-.7 0-1.2.2-1.7.7-.5.5-.7 1-.7 1.7s.2 1.3.7 1.8c.5.4 1 .7 1.7.7s1.3-.2 1.8-.7l.2-.2 11.6 5.4c-.5 2.1-.8 4.2-.8 6.5 0 1.9.2 3.7.5 5.4l-12.3 4.4c-.4-.4-1-.7-1.8-.7-.7 0-1.2.2-1.7.7-.5.5-.7 1-.7 1.7s.2 1.3.7 1.8c.5.4 1 .7 1.7.7s1.3-.2 1.8-.7.7-1 .7-1.8v-.1l12.4-3.3c.3 1 .7 2.1 1.2 3.1-8.9 8.1-13.3 12.1-13.3 12.2-.4 1.2-.1 2 1.1 2.4.6.1 1.1.1 1.6-.2l15.2-7.9c.1.1.3.3.4.3.4.4.9.8 1.3 1.2l-8.3 11.2c-.4-.1-.7-.2-1.1-.2-.7 0-1.2.2-1.7.7-.5.5-.7 1-.7 1.7s.2 1.3.7 1.8c.5.4 1 .7 1.7.7s1.3-.2 1.8-.7.7-1 .7-1.8c0-.4-.1-.7-.2-1l9.6-10.5c3.7 2.6 7.8 4.1 12.4 4.4l.5 12.1c-.3.1-.5.3-.8.5-.5.5-.8 1.1-.8 1.8s.2 1.3.7 1.8c.5.4 1 .7 1.7.7s1.3-.2 1.8-.7.7-1 .7-1.8c0-.7-.2-1.2-.7-1.8-.2-.2-.5-.4-.9-.5l.7-12c.7-.1 1.5-.1 2.3-.2l7 15.9c.1.2.4.4 1 .7 1.2.4 2 .1 2.4-1.1 0-.1-1-5.9-2.9-17.6l.9-.4 8.2 11.3c-.3.4-.4.9-.4 1.4 0 .7.2 1.3.7 1.8.5.4 1 .7 1.7.7s1.3-.2 1.8-.7.7-1 .7-1.8c0-.7-.2-1.2-.7-1.7-.4-.5-1-.7-1.8-.7-.2 0-.4 0-.5.1-1.5-2.6-3.9-6.6-7-12.1 1.2-.9 2.5-1.9 3.7-3.2 3.1-2.5 5.1-5.5 6.4-8.8zm-9.9 5.3c-3.9 3.9-8.7 5.9-14.2 5.9-5.6 0-10.3-2-14.2-5.9-3.9-3.9-5.9-8.7-5.9-14.2 0-5.6 2-10.3 5.9-14.2 3.9-3.9 8.7-5.9 14.2-5.9 5.6 0 10.3 2 14.2 5.9 3.9 3.9 5.9 8.7 5.9 14.2s-2 10.2-5.9 14.2z"/><path class="st7" d="M-88.7 511.3c-1.2 0-2.3.4-3.1 1.2-.8.8-1.2 1.8-1.2 3s.4 2.2 1.2 3c.8.8 1.8 1.2 3.1 1.2 1.2 0 2.1-.4 2.9-1.2.8-.8 1.2-1.8 1.2-3s-.4-2.2-1.2-3c-.8-.8-1.8-1.2-2.9-1.2z"/><path class="st8" d="M-35.7 390.4c-2.5 0-4.2-.1-5.3-.3-1.5-.4-2.3-1.4-2.3-3.1v-35.2c-3.1 1.6-8 2.6-14.5 3v3.2h5.9c1.8 0 2.7.7 2.7 2.2V387c0 1.3-.3 2.2-.9 2.5-.9.6-3.2.9-7 .9v3.3h21.3v-3.3z"/><g><path class="st7" d="M-175.9 379.6c.9.1 1.4.2 2.1.2 2.3 0 4-.8 6.9-3.1 9.5-8 10.1-8.4 10.4-10.1.6-3.4.9-5.9.9-7.7 0-2.6-.5-3.7-2.6-5.8l.1-.3c.5-.5.8-.7 1.2-.7 2.7 0 8 4.1 8 6.1 0 .6-.4 2-1.2 4.1-.2.5-.4 1.2-.6 2.3 2.5 1.4 3.4 2.3 3.4 3.3 0 .8-.2 1.2-2.3 3-2.4 2.3-3.2 3.7-3.7 7 1.1 2.1 1.4 3 1.4 3.9 0 .2 0 .3-.1.5-.1.3-.2.5-.2.6v.2l.9-.5c.5-.2 1.3-1.2 2.4-3 .9-1.6 1.8-3 2.7-4.5l1.3-2.7c.1-.2.3-.5.7-1.1h.2v.5c0 3-3.4 11.2-5.9 14.4-2.8 3.4-4.7 5.8-4.8 6.1-.4.7-.6 1.7-.6 2.9 0 2.2.8 8.9 1.5 11.9.4 2 .6 3.7.6 4.8 0 .7-.5 1.2-.9 1.2-.2 0-.5-.2-.8-.4-2.5-2.3-3.9-6.2-3.9-10.4 0-.3.1-2.8.4-7.5-1.4 1.2-2.7 2.2-3.1 2.6-2.9 2.4-3.5 2.8-4.4 2.8-1 0-1.4-1.2-1.4-3.8 0-3 0-3.1 3.4-5.1 2.3-1.4 4.9-4.5 5.7-6.9.2-.7.8-4.6.8-5.5 0-.1 0-.2-.2-.2-.4 0-2 1.2-4.3 3.2-5.3 4.6-5.4 4.7-6.8 4.7-1.1 0-2.8-1-5.2-2.9-1.6-1.4-1.8-1.7-2-3.8v-.3zm24.8 12.9c.2.1.4.1.5.1.2 0 .7-.2 1.2-.4.4-.2 1.7-.7 3.8-1.4.3-.1 1.5-.5 2.7-1 1-3.4 1.8-6.4 2.1-7.5.8-3.3 1.6-5.5 2.3-6.3l2.1-2.6 2.4-3.5c.3-.4 1-1.1 2-2.1-3.6 1-4.7 1.5-6.3 2.5-.9.6-1.7 1-2.2 1-.2 0-.5-.2-.7-.4-.6-.5-1.9-2.7-1.8-3.1 0-.4.5-1.1 1.2-1.9 1.6-1.8 2.7-3.5 2.7-4.6 0-.3-.3-.8-.6-.9-2.3-.9-2.3-.9-2.8-1.4l-.2-.3c.1-1.2.8-2.1 1.6-2l1.8.3c3.7.5 3.7.5 4.9 1.3 1.1.8 1.9 1.9 1.9 2.7 0 .5-.5 1.5-1 2.1-.5.4-.5.5-.5.7l.9-.2c6.6-2.9 6.6-2.9 8-2.9 2.3 0 5.9 2.3 5.9 3.7 0 .9-.9 1.3-4.8 2.2-5 1.2-12.1 6.6-12.1 9.4 0 .2.1.4.3.4.8 0 2.7-1.1 5.6-3.2 1.2-.9 2.4-1.4 3.3-1.4s3 1.1 4.7 2.3c1.3 1 2.2 2.2 2.2 3 0 .2-.2 1.3-.5 2.9 0 .7-.1 2.3-.2 4.8 4.3.3 5.8.9 8.2 2.9 1.9 1.6 2.5 2.3 2.5 3.1 0 .6-.5 1-1.3 1-.5 0-1.3-.1-2.2-.3-3.2-.9-4.1-.9-7.7-1.1-.2 3.8-.3 4.4-.6 7.9 2.3.2 3.3.8 5.3 2.7.9.9 1.4 1.7 1.4 2.3s-.5.9-1.5.9c-.9 0-1.3-.1-3.5-.8-1.2-.4-1.2-.5-2.6-.8-2.2 5.4-3.5 7.7-5.9 10.1-1 .9-1.9 1.5-2.7 1.5-.8 0-.9-.1-1.9-2.1l-1.3-2.1c-.8-2.3-1-3-1.8-5.1l.2-.2c2.1 1.2 3.2 1.6 4.2 1.6 2 0 3-1.3 4.5-5.2-1.1-.2-2-.2-2.6-.2-2 0-4.2.5-8.7 2.3-2.3.9-2.3.9-4.7 2.3-.5.3-1.1.5-1.8.5-.5 0-1.2-.2-1.6-.5-.9-1-1.9-3.4-1.9-4.6 0-.6 0-.6 2.1-3.1.3-.3.5-.6.5-.8 0-.2-.2-.3-.5-.3-.2 0-.5.1-.9.2-.9.2-1.5.4-1.5.4-5-.6-5-.6-5-.8 0-.1 0-.1.3-.5l1-1.6c.1-.2.6-.9 1.2-1.5h.4zm13.9 4.6c.5-.8 2.2-4.1 2.2-4.6 0-.2-.2-.3-.5-.3-.7 0-1.6.3-4.8 1.8-1.6 3-1.9 3.4-3.5 6.3 4.1-1.1 5.5-1.9 6.6-3.2zm.8-19.2c-.3 4.8-.5 5.6-1.9 10.6 1.9-.6 2.2-.7 4.4-1.2.5-2 1-5.3 1-6.9 0-.5-.2-1-.6-1.2l-2.9-1.3zm4.8 19.6c1.3-.2 2.3-.2 3-.2.4 0 1.1 0 1.9.1.5-3.5.6-4.1.9-7-3.6.2-4.4.3-4.8.9-.2.3-1.9 5.4-1.9 5.9 0 .2.2.4.5.4h.4zm6.1-14.6c0-5.5-.2-6.7-.9-6.7-.1 0-.1 0-1.6 1.2-1.6 1.5-1.6 1.5-1.6 1.7s.2.8.5 1.5c.2.7.4 1.3.4 1.7 0 .5-.1 1.1-.3 2-.2.4-.2 1.1-.5 2 2.1-.2 2.4-.2 4.2-.9l-.2-2.5z"/></g></g></switch></svg>