<svg version="1.1" id="svg2985" xmlns="http://www.w3.org/2000/svg" x="0" y="0" viewBox="-192 293.9 210 255" style="enable-background:new -192 293.9 210 255" xml:space="preserve"><style>.st3{fill:#fff}</style><switch><g><filter height="1.215" width="1.217" id="filter3970-5" x="-.109" y="-.108" color-interpolation-filters="sRGB"><feGaussianBlur stdDeviation=".128" id="feGaussianBlur3972-8"/></filter><g id="g4630" transform="matrix(1.0006 0 0 1 -1.376 203.406)" style="enable-background:new"><g id="g3062"><path id="rect4031" d="m-131.2 90.5 46.1.2 68.4-.2c22.9-.1 36.1 15.9 36.1 40.4v154.6c0 12.3-14 27.7-21.4 35.7s-22.1 24.3-33.6 24.3h-113c-22.9 0-41.3-5.6-41.3-30.2l-.3-162.3c0-6.4 17.3-24.3 24.8-32.4 7.4-8 22.7-30.2 34.2-30.1z"/><path id="rect3767" d="M-122.4 103.2h104.5c13.8 0 24.8 11.1 24.9 24.9l.9 152.4c0 2-12.6 32-25.8 32h-104.5c-13.8 0-24.9-11.1-24.9-24.9V128.1c0-13.8 11.1-24.9 24.9-24.9z" style="fill:#005f00"/><path id="rect3861" d="M-137.4 118.1h99.6c13.7 0 24.9 11.2 24.9 24.9v159.5c0 13.8-11.1 24.9-24.9 24.9h-99.6c-13.7 0-24.9-11.2-24.9-24.9V143.1c0-13.8 11.2-25 24.9-25z" style="fill:#cddacd"/><path id="rect3765" class="st3" d="M-147.3 133.1h104.5c13.7 0 24.9 11.2 24.9 24.9v149.5c0 13.8-11.1 24.9-24.9 24.9h-104.5c-13.7 0-24.9-11.2-24.9-24.9V158c0-13.7 11.1-24.9 24.9-24.9z"/><linearGradient id="rect3008_1_" gradientUnits="userSpaceOnUse" x1="-324.883" y1="569.587" x2="-324.883" y2="531.068" gradientTransform="matrix(4.9807 0 0 -4.9841 1515.62 2981.96)"><stop offset="0" style="stop-color:#d0e4cc"/><stop offset="1" style="stop-color:#fbffec"/></linearGradient><path id="rect3008" d="M-157.3 143.1h109.5c11 0 19.9 8.9 19.9 19.9v149.5c0 11-8.9 19.9-19.9 19.9h-109.5c-11 0-19.9-8.9-19.9-19.9V163c0-11 8.9-19.9 19.9-19.9z" style="fill:url(#rect3008_1_)"/><path id="path3932" class="st3" d="M2.2 115.7c0 1.5-1.3 2.8-2.8 2.8s-2.8-1.3-2.8-2.8 1.3-2.8 2.8-2.8 2.8 1.2 2.8 2.8z"/><g id="path3936" style="filter:url(#filter3970-5)"><linearGradient id="SVGID_1_" gradientUnits="userSpaceOnUse" x1="-315.771" y1="590.47" x2="-318.887" y2="587.001" gradientTransform="matrix(7.1013 0 0 -6.6887 2243.616 4061.265)"><stop offset="0" style="stop-color:#fff"/><stop offset="1" style="stop-color:#fff;stop-opacity:0"/></linearGradient><path style="fill:url(#SVGID_1_)" d="m-2.8 114.3-28.8 24.6 8.2 6 25.2-28.3z"/></g><path id="path3882" class="st3" d="M-15 137.6c0 4.8-3.9 8.7-8.7 8.7-4.8 0-8.7-3.9-8.7-8.7 0-4.8 3.9-8.7 8.7-8.7 4.7 0 8.7 3.9 8.7 8.7z"/></g></g><path d="M-33.2 438.3c-.4 1.1-5.4 1-6.1 1.1-3.8.8-8.3 4.7-11.7 3.4-5.9-2.3-10.1-12.8-17.1-19.4-.7-.6-1.6-2.1-2.7-2.1-1 3.6-3.6 11.9-4.1 15.4l.5.9c1.2.7 4 .4 6.1.9.9 1 2.2.3 2.7 1.7 2 2.5 3.8 4.8 3.8 8.4-2.3 1.9-1 3-4.6 3.2-2.8.1-5.3 1.6-8.1 2.3-1.9 1.5-4.2 2.7-5.9 4.4l2.2.5c7.5 3.5 9.8 13.9 3.5 20.1-1.4 3-2.4 6.1-3.8 9.1 10 11.7 29.1 9 29.7 30.1-1.9 2.3-.2 6.2-3.4 7.5-7.3-4.1-28.7-28.1-34.3-26.3-9.6 2.6-9.9 12.3-26.3 8.6-2.6-.5-7.8-6.2-6.4-9.8l-.5-3c3.2 3.2 7.1 5.8 12.4 4.4 4.1-.8 9.9-6.1 11.5-10.2-3.6-3.4-16.3-9.3-20.6-5.6-1 3.8-2.9 7.9-4.7 11.5-1.1 6.9-14.1 25-21.6 20.7-6.8-4.1-9.1-23.9-6.1-31 .3 2.2 4.4 14.1 6.8 13.8 5.6-.8 12.2-14.4 12-19.9-1.9-4.1-17.4 8.4-21.6 5.8-2.3-4.1 1-6.6-.6-10.7 1.9-1.9 3.5-5.1 6.5-5 3-2.1 7.5-7.2 9.8-10.5-3.8 1.1-7.5 2.1-11.4 2.4-2.1-3.5.1-8.7 1.9-11.8 3.6-3.1 7-2.3 10.4-6.6 2.3-2.9 5.7-5 7.3-8.6-2-2.1-5.4-.4-7.3-3.1-8.3 8.3-14.7 17.6-25.9 21.3-6.1 2-13.7 3.6-5.6-3.7l7.1-6.7c6.5-6.6 14.5-12.6 18.5-23.6-7-.9-2.2-.3-7.9-1.9-4.7-3.2-8.4-12.2-5-18.1 6.1-.2 4.7-1.2 11.1 1.2 1.3.5 3.1 1.3 4.3.2 5.2 0 7.8-4.9 8.3-9.9-2.6-.9-14.8-8-13.6-11.6 1-1 2.1-.7 3.2-.5l1.3-.6c8.7 2.1 16.9-15.7 25.9-2l.9 2 1.5 5.3c2.6-.5 5.6-.2 7.8-1.3 2.8-1.3 16.1-10 15.3-13.5-2-.9-4-3.2-2.4-5.5 2.6.1 9.3.8 11.1 3 3.5.9 3.5 5.8 6.1 7.9-.4 2.4 1.1 7.9-2.1 8.4-3 2.1-12.4 3.5-16.3 4.8 3.3 2.1 6 4.9 8.9 7.4 3.3 2.7 12.7-7.6 14.3-10.3 1.4-2.6.7-3.4.6-6 .3-2.4 3.4-1.3 4.9-1.2 3.8 3.2 12.5 8.9 9.4 15.7-2.4.7-20.7 7.3-21.3 8.2 14.7 18.5 34.1 24.4 42.8 37.8l-1.4.6zm-46.3-26.6c-1.8-1.9-4.1-4.4-5.2-5.6-1.5-1.2-1.8-2.1-5-1.4-2.8.5-10.9 3.6-13.3 3.3-2-.1-.3-1.6 1-1.4 3.4-2.9 8.5-3.1 11.6-6.8-3.8-3.8-17.6-16.5-22.4-11.6-6 6.1-12.8 25.4-18.8 35.2 3-.9 12.9-7.2 15.6-5.2 1.9.3 4.4 2.2 5.5 2 1.6 3.9 5.6 4.8 4 9.8-3.1 3.1-11.1 10-12.5 14 1.3.7 2.6 1.5 3.5 2.5 2 .7 1.7 4.1 1.5 5.9-5 5.6-12 8.8-16.6 14.9 2.2-.3 4.3 0 6.1.4 1.7-.1 4.5 1.1 5.4 3 2.7 1.7 3.2 7.3 3.1 10.5 1.9-3.9 3.9-5.1 7.1-5.8-1.4-1.5-1.7-3.9-3.2-5.4-.1-1.6.3-2.8 1.8-3.4 10-3.4 19-8.3 26-16.9 1.4-1.6.4-2.4-.8-3.7-2.5-2.7-1.8-13.4-.6-16.9-.9-.2-9.6-1.8-6.7 1.3-1.7 7.4-6.4 26.1-10.8 31.4-3.7 4.1-6.8-3.3-6.7-6.7-2.2-1.1-.8-4.7-1.3-6.7 4.6-3.4 4.2-9.9 6.4-14.9 2.8-5.9-1.2-9.5.7-15.3 1.1-.2 2.6.1 3.1 1.3 2 .3 2.9 2.9 4.8 2.2 3.8-3.7 12.4-10.6 17.7-8.4 1.2 1.1-.3-1-1-1.6zm-22.8 64.6c3 .7 9.5 3.8 11.3 6.3 2.5-2.7 4.3-11.1 4.6-14.9-3.1-3.2-13.6 5.8-15.9 8.6z" style="fill:#038249"/></g></switch></svg>