<svg version="1.1" id="svg2985" xmlns="http://www.w3.org/2000/svg" x="0" y="0" viewBox="-192 293.9 210 255" style="enable-background:new -192 293.9 210 255" xml:space="preserve"><style>.st3{fill:#fff}</style><switch><g><filter height="1.215" width="1.217" id="filter3970-5" x="-.109" y="-.108" color-interpolation-filters="sRGB"><feGaussianBlur stdDeviation=".128" id="feGaussianBlur3972-8"/></filter><g id="g4630" transform="matrix(1.0006 0 0 1 -1.376 203.406)" style="enable-background:new"><g id="g3062"><path id="rect4031" d="m-131.2 90.5 46.1.2 68.4-.2c22.9-.1 36.1 15.9 36.1 40.4v154.6c0 12.3-14 27.7-21.4 35.7s-22.1 24.3-33.6 24.3h-113c-22.9 0-41.3-5.6-41.3-30.2l-.3-162.3c0-6.4 17.3-24.3 24.8-32.4 7.4-8 22.7-30.2 34.2-30.1z"/><path id="rect3767" d="M-122.4 103.2h104.5c13.8 0 24.8 11.1 24.9 24.9l.9 152.4c0 2-12.6 32-25.8 32h-104.5c-13.8 0-24.9-11.1-24.9-24.9V128.1c0-13.8 11.1-24.9 24.9-24.9z" style="fill:#005f00"/><path id="rect3861" d="M-137.4 118.1h99.6c13.7 0 24.9 11.2 24.9 24.9v159.5c0 13.8-11.1 24.9-24.9 24.9h-99.6c-13.7 0-24.9-11.2-24.9-24.9V143.1c0-13.8 11.2-25 24.9-25z" style="fill:#cddacd"/><path id="rect3765" class="st3" d="M-147.3 133.1h104.5c13.7 0 24.9 11.2 24.9 24.9v149.5c0 13.8-11.1 24.9-24.9 24.9h-104.5c-13.7 0-24.9-11.2-24.9-24.9V158c0-13.7 11.1-24.9 24.9-24.9z"/><linearGradient id="rect3008_1_" gradientUnits="userSpaceOnUse" x1="-324.883" y1="569.587" x2="-324.883" y2="531.068" gradientTransform="matrix(4.9807 0 0 -4.9841 1515.62 2981.96)"><stop offset="0" style="stop-color:#d0e4cc"/><stop offset="1" style="stop-color:#fbffec"/></linearGradient><path id="rect3008" d="M-157.3 143.1h109.5c11 0 19.9 8.9 19.9 19.9v149.5c0 11-8.9 19.9-19.9 19.9h-109.5c-11 0-19.9-8.9-19.9-19.9V163c0-11 8.9-19.9 19.9-19.9z" style="fill:url(#rect3008_1_)"/><path id="path3932" class="st3" d="M2.2 115.7c0 1.5-1.3 2.8-2.8 2.8s-2.8-1.3-2.8-2.8 1.3-2.8 2.8-2.8 2.8 1.2 2.8 2.8z"/><g id="path3936" style="filter:url(#filter3970-5)"><linearGradient id="SVGID_1_" gradientUnits="userSpaceOnUse" x1="-315.771" y1="590.47" x2="-318.887" y2="587.001" gradientTransform="matrix(7.1013 0 0 -6.6887 2243.616 4061.265)"><stop offset="0" style="stop-color:#fff"/><stop offset="1" style="stop-color:#fff;stop-opacity:0"/></linearGradient><path style="fill:url(#SVGID_1_)" d="m-2.8 114.3-28.8 24.6 8.2 6 25.2-28.3z"/></g><path id="path3882" class="st3" d="M-15 137.6c0 4.8-3.9 8.7-8.7 8.7-4.8 0-8.7-3.9-8.7-8.7 0-4.8 3.9-8.7 8.7-8.7 4.7 0 8.7 3.9 8.7 8.7z"/></g></g><path d="M-49.4 479.7c-1.7 10.9-10.8 35.2-24.9 36.4-2.1.2-2.7-.8-3-2.3-2.3-3.1-5.4-8.2-9.1-10-1.1-2-3.5-3-4.5-5.4-1.5-1-2.6-2.4-4.1-3.2-1.2-2.4-.9-5.5-3.5-7.2-.1-1.6 1.4-2.1 2.8-1.8 3.9 3.7 20 11.1 25.5 8.5 7.3-10.4 12.4-39.7 11.8-52.5-6.2-7.2-17.3-5.1-25.9-6.1-2.4 2.2-6 8-6.7 11.2 18.4 9.6-2.8 14.7-4.2 19.2 3 .7 6.8 2.1 8.8 4.5 2.6 1.5 6.1 7.9 2 9.7-3.5 1.2-7.5.7-11.2 1.2-1.3-.2-2.3.4-3.7.7-2.5 7.1-1.5 15.1-4.9 22-.1 1.6-.5 3-1 4.4-2.1.1-1.2 4.5-4.4 3-2.9-3.2-5.8-7-5.6-11.4-1.8-3.3-.2-7.1-1.2-10.5-3.5-.2-11 .9-13-1.5-.3-5-4-9.4 2.4-12.8 3.1-.4 12.4-1.2 10.3-5.9-8.6 2.4-16.3 3.4-15-6.9 1.2-1.9 3.2-3.2 4.9-5.1-1-2.4-.5-6-2.3-7.7-3.5.2-7.6 2.6-11.3 3.3-.4.9-1.2 1.5-2.2 1.3-12.9 8.2 4 41-5.7 47.6-2.7.9-2.5-1-3.9-2.1-4.5-5.4-9.1-16-8.4-22.9.1-2.5.6-4.9 1-7.6 1.2-7.9-4.4-20.2-1.8-25.4 1.7-3.5 7.7-3 10.9-2.6 6.4 2.4 13.2 1 17.3-4.1 2.1 1 1.7-2.9 2.3-4 1.4-.6 2.7-.4 4.1-.5 4 .2 5.8-7.8 6.3-10.7-15.3-2.7-21.5-1.8-28-17 6.5.1 12.9-.9 19.5-1.2.2-1 1.8-1.1 2.7-.9 3.3-1.2 6.8-2.3 9.6-4.3.3-5.6 3.6-22.5 1.3-26.6-1.1-2-6.1-.8-6.7-4-.6-3.7 3.9-4.2 6.1-6.1 5-.6 10 3.2 12.9 6.7 9.6 5.1 6.5 12.7 5.3 20.4 1.7.3 3.5 0 5.2-.1 6.8 1.8 19.4 4 20 12.7.1 1.6-1.2 1.5-2.6 1.8-6.2.6-19.3 1.9-23.4 6.6-2 1-3.4 6.6-4.1 8.5 5.5-3.1 6.9-3 13.4-2.2 1.1.8 3.2 1 3.3 2.6 2.8 2.1 3 5.5 4 8.3 7.8 1.1 15.7.6 23.4 2.2 5.9 1.7 22.9 11.4 18.9 18.3-5.9 10.1-7.4 20.6-9.7 31.5zm-102.8-33.8c-.2 7.2 3.5 8 6.8 1.6-2-1-4.5-1.3-6.8-1.6zm36.2-1.2c.1 2.8.7 5.5 1.1 8 9.3-2.2 10.7-3.2 12.9-11.7-2.2-1.2-11 2.4-14 3.7zm10-18.6c-1.1 1.9-1.5 4-1.8 5.9 1.5-.1 9.8-.4 10.3-1.3 5-9.6-2.2-6.4-8.5-4.6z" style="fill:#2a3b92"/></g></switch></svg>