<svg version="1.1" id="svg2985" xmlns="http://www.w3.org/2000/svg" x="0" y="0" viewBox="-192 293.9 210 255" style="enable-background:new -192 293.9 210 255" xml:space="preserve"><style>.st3{fill:#fff}.st7{fill:#2a3b92}.st8{fill:#038249}.st9{fill:#d37f11}.st10{fill:#bf3718}</style><switch><g><filter height="1.215" width="1.217" id="filter3970-5" x="-.109" y="-.108" color-interpolation-filters="sRGB"><feGaussianBlur stdDeviation=".128" id="feGaussianBlur3972-8"/></filter><g id="g4630" transform="matrix(1.0006 0 0 1 -1.376 203.406)" style="enable-background:new"><g id="g3062"><path id="rect4031" d="m-131.2 90.5 46.1.2 68.4-.2c22.9-.1 36.1 15.9 36.1 40.4v154.6c0 12.3-14 27.7-21.4 35.7s-22.1 24.3-33.6 24.3h-113c-22.9 0-41.3-5.6-41.3-30.2l-.3-162.3c0-6.4 17.3-24.3 24.8-32.4 7.4-8 22.7-30.2 34.2-30.1z"/><path id="rect3767" d="M-122.4 103.2h104.5c13.8 0 24.8 11.1 24.9 24.9l.9 152.4c0 2-12.6 32-25.8 32h-104.5c-13.8 0-24.9-11.1-24.9-24.9V128.1c0-13.8 11.1-24.9 24.9-24.9z" style="fill:#005f00"/><path id="rect3861" d="M-137.4 118.1h99.6c13.7 0 24.9 11.2 24.9 24.9v159.5c0 13.8-11.1 24.9-24.9 24.9h-99.6c-13.7 0-24.9-11.2-24.9-24.9V143.1c0-13.8 11.2-25 24.9-25z" style="fill:#cddacd"/><path id="rect3765" class="st3" d="M-147.3 133.1h104.5c13.7 0 24.9 11.2 24.9 24.9v149.5c0 13.8-11.1 24.9-24.9 24.9h-104.5c-13.7 0-24.9-11.2-24.9-24.9V158c0-13.7 11.1-24.9 24.9-24.9z"/><linearGradient id="rect3008_1_" gradientUnits="userSpaceOnUse" x1="-324.883" y1="569.587" x2="-324.883" y2="531.068" gradientTransform="matrix(4.9807 0 0 -4.9841 1515.62 2981.96)"><stop offset="0" style="stop-color:#d0e4cc"/><stop offset="1" style="stop-color:#fbffec"/></linearGradient><path id="rect3008" d="M-157.3 143.1h109.5c11 0 19.9 8.9 19.9 19.9v149.5c0 11-8.9 19.9-19.9 19.9h-109.5c-11 0-19.9-8.9-19.9-19.9V163c0-11 8.9-19.9 19.9-19.9z" style="fill:url(#rect3008_1_)"/><path id="path3932" class="st3" d="M2.2 115.7c0 1.5-1.3 2.8-2.8 2.8s-2.8-1.3-2.8-2.8 1.3-2.8 2.8-2.8 2.8 1.2 2.8 2.8z"/><g id="path3936" style="filter:url(#filter3970-5)"><linearGradient id="SVGID_1_" gradientUnits="userSpaceOnUse" x1="-315.771" y1="590.47" x2="-318.887" y2="587.001" gradientTransform="matrix(7.1013 0 0 -6.6887 2243.616 4061.265)"><stop offset="0" style="stop-color:#fff"/><stop offset="1" style="stop-color:#fff;stop-opacity:0"/></linearGradient><path style="fill:url(#SVGID_1_)" d="m-2.8 114.3-28.8 24.6 8.2 6 25.2-28.3z"/></g><path id="path3882" class="st3" d="M-15 137.6c0 4.8-3.9 8.7-8.7 8.7-4.8 0-8.7-3.9-8.7-8.7 0-4.8 3.9-8.7 8.7-8.7 4.7 0 8.7 3.9 8.7 8.7z"/></g></g><path class="st7" d="M-43.3 462.4c2.1-1.4 3.7-2.9 4.8-4.4 3.6-5.5 4.9-10.8 4.1-15.8-.7-3.7-3-6.8-6.8-9.6-3.3-2.2-7.6-3.1-12.9-2.7-1.2.1-2.1.2-2.5.3-.1-.4-.2-1-.4-1.8-.8-2.3-2.2-4.1-4.3-5.6-1.9-1.3-4.3-1.5-7.3-.4-1.2.4-2.6 1.8-4.4 4.1-1.1 1.2-1.9 2.5-2.5 3.8-.7 1.4-1.4 3.2-2.3 5.5-1.6 4.8-2.5 8.7-2.6 11.8-.3-.1-1-.2-2.2-.2-1.5 0-2.8.3-3.7.9-1.5-1.2-2.3-2.4-2.6-3.6-.8-3.1-.5-5.9.9-8.3 1.1-1.9 2-2.9 2.9-2.9.7 0 1.4.3 2.2 1 1.2 1.3 1.2 2.6.2 3.8-.6.7-1.1 1-1.4.8-.7-.3-.7-.8-.1-1.4 1-1.1.9-1.8-.2-2.2-1-.3-1.9.1-2.7 1.3-1.1 1.7-.6 3.2 1.4 4.5 1.2.7 2.5.8 4 .1 1.5-.7 2.3-1.6 2.4-2.7.3-5-1.4-7.7-5.1-8.2-2.1-.2-4.1 1-5.9 3.5-1.7 2.6-2.3 6-1.9 10 .3 2.5 1.5 4.5 3.7 5.9-2.6-.4-4.5-1-5.7-1.8-2.9-1.7-4.7-3.9-5.5-6.6-.6-2.1-.6-3.4-.1-4.1.4-.6 1.2-.8 2.2-.8 1.3.1 2.2.9 2.6 2.4.3.8.1 1.3-.5 1.5-.4.1-.6-.2-.5-1.1 0-1.4-.6-1.8-1.8-1.1-1 .6-1.2 1.5-.9 2.9.4 1.4 1.5 2 3.1 1.9 1.5-.2 2.4-.9 2.7-2.1.7-2.5.2-4.4-1.4-5.8-2.4-2-4.8-2.1-7.1-.2-1.8 1.3-2.3 3.6-1.5 6.7.7 3 2.7 5.8 5.8 8.2 1.8 1.4 4.2 2.1 7.3 2.1-.4.6-.7 1.8-.7 3.5 0 2.2.8 4.1 2.4 5.7 1.6 1.6 3.5 2.4 5.8 2.4.9 0 1.5-.1 2-.2 1.2 1.5 2.6 3 4.2 4.5 3.1 2.9 6.3 5.5 9.4 7.8 2.5 1.8 4.5 2.4 6 1.9.6-.2 1.2-.1 1.8.4.5.5 1.4 1 2.6 1.3 4.7 1.2 8 .3 9.9-2.7.4-.7.7-1.5.9-2.5.7-4.2-.4-7.4-3.2-9.6 1.1 0 3-.6 5.4-2.1zm-32.5-21.6c1.2-4.5 2.7-8 4.3-10.3 1.3-2.1 2.5-3.4 3.5-4.2 1.7-1.2 3.2-1.3 4.5-.4 1 .6 1.8 1.4 2.5 2.5.7 1 1.1 1.9 1.1 2.9-.3.2-1 .6-2.2 1.2-3.2 1.5-6.3 4-9.3 7.3-1 1.1-2.3 3-4 5.6-1 1.6-1.6 2.9-2.1 3.8-.1-1 .4-3.8 1.7-8.4zm-6.8 19.7c-1.4 0-2.6-.5-3.6-1.5s-1.5-2.2-1.5-3.6.5-2.6 1.5-3.6 2.2-1.5 3.6-1.5c1.5 0 2.7.5 3.7 1.5s1.5 2.2 1.5 3.6-.5 2.6-1.5 3.6-2.3 1.5-3.7 1.5zm20.3 13.7c-.2.3-.8.1-1.9-.7-1.2-.8-2.7-1.9-4.6-3.4-5.6-4.7-8.6-7.4-9-8 .7-.4 1.4-1.1 2-2.1l2.1 1.5c3.3 2.3 6.5 5.4 9.7 9.2 1.4 1.9 2 3 1.7 3.5zm8.5-9.5c.7.4 1.1.8 1.4 1 1.5 1.1 2.5 2.4 2.7 3.8.4 2 .4 3.6-.2 4.9-.5 1.1-1.5 1.7-2.9 1.9-2.3.3-4.4-.4-6.2-2.2 0-.5-.4-1.4-1.1-2.7-.7-1.3-1.6-2.6-2.7-4-3.1-4.1-6.5-7.3-10.1-9.4l-1.6-.9c.1-.4.1-.9.1-1.6 0-1.3-.2-2.4-.5-3.2.1-.3.2-.8.4-1.4.5-1.2 1.2-2.5 2.1-3.7l1.6-2.5c3.1-4.6 7.4-8.1 12.7-10.5 2.1-.9 4.6-1.2 7.4-.9 3.1.4 5.4 1.1 7 2.3 3.4 2.5 5.3 5.1 5.8 7.9.4 2.3.1 4.8-1.1 7.6-.8 2-1.6 3.5-2.3 4.5-2.4 3.7-6.3 5.7-11.5 6.2-1.5.1-2.3.4-2.4 1-.2.3.3 1 1.4 1.9z"/><path class="st8" d="m-125.1 531.3 3.4-4.2v-85.8h-3.4z"/><path class="st9" d="M-115.5 430.5c0-5.4-1.6-10.9-4.8-16.4-3.2-5.5-7.1-9.6-11.8-12.4-2.3-1.3-4-2-5.3-2-.1 0-.3 0-.7.1.8 2.1 1.2 4 1.2 5.9 0 2.2-.6 5.4-1.9 9.6-1.3 4.2-1.9 7.3-1.9 9.4 0 2.7 1.2 5.6 3.7 8.7 2.5 3.1 5.1 5 7.7 5.7 1.2.4 2.7.5 4.6.5 6.2.2 9.2-2.9 9.2-9.1z"/><path class="st8" d="M-58 466c-.3.2-.5.6-.6 1.2-.1 1.2.1 2.5.7 3.6.5 1.1 1.2 1.8 2.2 2.2.4.1.7.2 1 .2.6 0 1.1-.1 1.6-.4.3-.3.5-.6.8-1 .2-.4.3-1 .3-1.6 0-.7-.4-1.5-1.3-2.4-1-1-2.1-1.6-3.3-1.9-.6-.1-1-.1-1.4.1zM-42.7 449.3c.3-3.9-.3-7-1.8-9.3-1.5-2.5-4-3.8-7.4-3.8-3.4 0-6.7 1.1-9.9 3.4s-5.5 5.2-6.7 8.6c-1.2 3.4-1.1 6.3.4 8.7 1.5 2.5 4 3.8 7.3 3.8s6.6-.7 9.9-2.1c5.3-2.3 8-5.4 8.2-9.3zm-16.7 7.2c-2.3 0-3.9-.8-4.7-2.1-1-1.7-1.1-3.7-.3-5.9.8-2.3 2.4-4.2 4.7-5.8 2.2-1.6 4.4-2.4 6.6-2.4 2.2 0 3.8.8 4.8 2.4 1 1.6 1.4 3.7 1.2 6.2-.2 2.5-2.1 4.6-5.5 6.2-2.2 1-4.5 1.5-6.8 1.4z"/><path class="st9" d="M-108.4 402.3c-1 0-3 .8-6.3 2.5-3 1.6-5 2.8-5.9 3.6 5.7 5.8 8.6 13 8.6 21.8 0 1.8-.4 3.9-1.2 6.4 2.3-1 4.2-3 5.8-6 1.6-3.1 2.4-5.9 2.4-8.5 0-1.5-.5-3.5-1.5-6s-1.5-4.5-1.5-6c0-2.8.5-5.4 1.6-7.8h-2z"/><path class="st10" d="M-107 504.4c1.8.9 4.1 1.3 6.9 1.3 2.5 0 4.6-.3 6.4-.9 2.7-.8 5.9-4.4 9.6-10.9 3.7-6.4 7.2-10.3 10.7-11.5-3.7-2.2-8.4-3.3-14.3-3.3-2.9 0-5.8.3-8.8 1-3.6.9-7.3 2.7-11.2 5.5-4.5 3.3-6.8 6.4-6.8 9.4 0 1.5.9 3.3 2.6 5.3 1.6 2 3.3 3.3 4.9 4.1z"/><path class="st8" d="m-111.4 503.3-2.3-2.3c-4 1.2-6.2 9.4-6.6 24.6l3.4-4.3c.6-10.7 2.4-16.7 5.5-18z"/><path class="st9" d="M-126.4 401.5c1.4 1.4 2.7 2.8 3.8 4.2 1.5-1.1 2.7-2 3.7-2.6l-3.1-5.1c-1 .8-2.5 2-4.4 3.5z"/><path class="st10" d="M-83.1 471c-2.3.6-4.3 1-5.8 1.2.1 1 .4 2.4.7 4.4h5.2V471z"/><path class="st8" d="M-126.9 531.6c0-34-3.3-55.8-9.8-65.4l-2.9 3.3c6.2 9.2 9.3 28.5 9.3 58.1l3.4 4z"/><path class="st7" d="M-135.1 457.8c.7-2 1.1-3.8 1.1-5.3 0-6-2-10.5-6-13.6-2.3-1.6-4.5-3.2-6.7-4.8-1.5-1.4-2.8-4-4-7.7-3 3.1-5.5 7.8-7.6 14.1 4.3.1 8.9 2 13.8 5.7 4.9 3.6 8 7.5 9.4 11.6z"/><path class="st10" d="M-116.6 488.2c0 .7.2 1.6.7 2.9 1.1-3.8 4.6-7.3 10.4-10.3 5.4-3 10.2-4.4 14.3-4.2v-1.9c0-2.8-1.8-7-5.5-12.7-2 4.7-4.8 7.8-8.5 9.3-7.6 3.1-11.4 8.7-11.4 16.9z"/><path class="st7" d="M-160.3 435.8c-.4-.1-1.3-.4-2.5-.9s-2-.8-2.3-.8h-1l-.9 5.4c.7 0 2.6.2 5.5.5.3-1 .7-2.4 1.2-4.2zM-168.9 453.8c3.2 7.4 5.1 11.4 5.5 12 2.7 3.7 7 5.5 13 5.5 3.1 0 6-.9 8.8-2.7 3.2-1.9 4.8-4.3 4.8-7.3 0-1-.7-2.7-2.1-4.9-2.5-4-6.6-7.4-12.4-10-5.4-2.6-10.6-4-15.6-4-2.5 0-5.6.7-9.2 2.2 2.5.5 4.9 3.6 7.2 9.2zM-145.7 390.4c-2.5 0-4.2-.1-5.3-.3-1.5-.4-2.3-1.4-2.3-3.1v-35.2c-3.1 1.6-8 2.6-14.5 3v3.2h5.9c1.8 0 2.7.7 2.7 2.2V387c0 1.3-.3 2.2-.9 2.5-.9.6-3.2.9-7 .9v3.3h21.3v-3.3z"/><g><path class="st10" d="M-101.9 410.8c7.6-3.9 14-10.9 20.3-22.8l.4-.8c-.6.3-1.9 1-2.1 1.2-1.7 1.1-1.7 1.1-2.4 1.1-2.2 0-4.7-2-4.7-3.6 0-.3.1-.7.2-1.2l.2-.3c.5.1.9.1 1.1.1 1.6 0 4.3-.9 6.6-2.1 4.1-2.4 4.1-2.4 6.4-3.4.5-.9.5-.9.8-1.8v-.3c-.7.2-1.6.5-1.8.7-1.7.6-2.3.8-2.8.8-2.2 0-4.1-1.4-4.1-3.2 0-1.6.2-1.8 2.1-2 3.6-1.2 5.1-1.8 7.1-3.1l.2-.7c-.5.2-.9.2-1.2.2-1.6 0-3.7-.9-5.1-2-1.6-1.4-2.1-2.1-2.6-3.1l.1-.5c.7.1 1.2.1 1.6.1 2.8 0 5.5-.9 10.1-3.4.8-2.4 1.7-5.9 1.7-7 0-.3-.2-.6-.4-.6-.5 0-1.5.4-2.1.9h-.5c-.2-.5-.2-.9-.2-1.2 0-1.6 1.9-3 4.2-3 2.7 0 4.4 1.2 4.4 3.1 0 .7 0-.3-1 2-.4 1.7-.5 2-.9 3.5.2.1.4.2.5.2.2 0 .5-.1.8-.3 1.2-.6 1.5-.8 1.9-.8.8 0 4 1.2 4.8 1.9.9.7 1.5 1.5 1.5 2.1 0 1.2-1 1.8-5.6 3.6-3 1.2-3.7 1.5-6 2.9l-.3 1.9c.9-.3 1.5-.5 1.7-.6l2.7-1.2c.4-.2.7-.3.9-.3.7 0 3.1.9 3.6 1.3.7.6 1 1.2 1 2 0 .9-.6 1.5-2.7 2.4-1.2.5-2.7 1.6-5.5 3.4l1.2-.2c.5-.1.9-.1 1.1-.1l2.6-.2 1-.1 1.3-.1c.6-.1 6.8-.1 6.9-.1 1.7 0 3.6 1.6 3.6 3 0 1-.9 1.6-2.3 1.6l-9.5-.1c-1 0-1.9.1-5.2.2 3.2 1.7 4.8 3 10.5 8.1 4.9 4.8 13.1 9.9 21.1 13.3 2.2.9 3.8 2.5 3.8 3.6 0 1-1.3 1.3-5.6 1.3-2 0-6.3-.7-8.5-1.4-1.4-.4-1.4-.4-3.6-3.1-1.3-1.4-2.6-2.7-3.9-4.1-.4-.4-2-2.3-3.6-4.4-1.3-1.7-1.7-2.1-2.9-2.9.3 1.3.5 2.3.5 2.7l-.1 2.2.1 6.2c0 1.3-.3 6.8-.5 7.8-.5 3.7-2.4 7.1-3.9 7.1-1.1 0-1.1 0-3.8-6.5-.4-.9-.5-.9-1.2-.9-2.3 0-4.3.7-6.2 2.3-.2.2-.5.4-.7.4-.4 0-1.4-1-2.4-2.3-.9-1.2-1.6-1.9-1.7-2.1-.2-.2-.2-.3-.2-.4l.2-2.6-.2-.4c-.5-1.1-.7-2.3-.7-3.5 0-.9.1-1.8.2-2.9.1-.9.2-1.7.2-2.4 0-.8-.2-1.2-.7-1.2h-.2c-6.9 10.3-12.9 15.1-21.1 16.3l-.5-.2zm40.1-22.1c-.9-1-2.9-2.9-4.8-4-2.5-1.5-3.3-1.3-4.1-1.3-.2 0-1.6.1-2.2.2-.7.9-2.2 2.6-2.3 3-1.9 3.5-3.3 5-4.1 6.4 1.2.9 3.4 3.8 3.7 5.1.2.1.3.1.4.1.8 0 1.8-.4 4.2-1.5.5-.2 1-.4 1.3-.4 1.2 0 3 1.6 3 2.7 0 .3-.2.9-.5 1.2-.6.5-.6.5-4 1.3-.3.1-.9.3-2 .7-.5.2-.9.3-1.2.3-.2 0-.4-.1-.8-.2-.2.7-.4 2.3-.4 3.7 0 .4.4.8.7.8.2 0 .3-.1.5-.2 1.4-.6 4.1-1.3 5.1-1.3.7 0 1.3.4 2 1.3.5.4.9.6 1.3.6.9 0 1.4-1.3 1.2-3.6 0 0 0-1.6.1-3.1.1-1.4.2-3.1.2-4.6 0-3.6-.5-4.6-2.1-4.6-.9 0-1.6.2-2.8 1-2.4 1.5-3.7 2.1-4.3 2.1-.5 0-1.2-.2-2.4-.6-.5-.2-.6-.2-1-.9l.2-.3c1-.4 1-.4 2-1.4 2.5-2.4 5.7-4.3 7.5-4.3 1.2 0 2.4 0 4.6 1.1l1 .7z"/></g></g></switch></svg>