<svg version="1.1" id="svg2985" xmlns="http://www.w3.org/2000/svg" x="0" y="0" viewBox="-192 293.9 210 255" style="enable-background:new -192 293.9 210 255" xml:space="preserve"><style>.st3{fill:#fff}.st7{fill:#038249}.st8{fill:#bf3718}</style><switch><g><filter width="1.217" height="1.215" y="-.108" x="-.109" id="filter3970-5" color-interpolation-filters="sRGB"><feGaussianBlur stdDeviation=".128" id="feGaussianBlur3972-8"/></filter><g id="g4630" transform="matrix(1.0006 0 0 1 -1.376 203.406)" style="enable-background:new"><g id="g3062"><path id="rect4031" d="m-131.2 90.5 46.1.2 68.4-.2c22.9-.1 36.1 15.9 36.1 40.4v154.6c0 12.3-14 27.7-21.4 35.7s-22.1 24.3-33.6 24.3h-113c-22.9 0-41.3-5.6-41.3-30.2l-.3-162.3c0-6.4 17.3-24.3 24.8-32.4 7.4-8 22.7-30.2 34.2-30.1z"/><path id="rect3767" d="M-122.4 103.2h104.5c13.8 0 24.8 11.1 24.9 24.9l.9 152.4c0 2-12.6 32-25.8 32h-104.5c-13.8 0-24.9-11.1-24.9-24.9V128.1c0-13.8 11.1-24.9 24.9-24.9z" style="fill:#005f00"/><path id="rect3861" d="M-137.4 118.1h99.6c13.7 0 24.9 11.2 24.9 24.9v159.5c0 13.8-11.1 24.9-24.9 24.9h-99.6c-13.7 0-24.9-11.2-24.9-24.9V143.1c0-13.8 11.2-25 24.9-25z" style="fill:#cddacd"/><path id="rect3765" class="st3" d="M-147.3 133.1h104.5c13.7 0 24.9 11.2 24.9 24.9v149.5c0 13.8-11.1 24.9-24.9 24.9h-104.5c-13.7 0-24.9-11.2-24.9-24.9V158c0-13.7 11.1-24.9 24.9-24.9z"/><linearGradient id="rect3008_1_" gradientUnits="userSpaceOnUse" x1="-324.883" y1="569.587" x2="-324.883" y2="531.068" gradientTransform="matrix(4.9807 0 0 -4.9841 1515.62 2981.96)"><stop offset="0" style="stop-color:#d0e4cc"/><stop offset="1" style="stop-color:#fbffec"/></linearGradient><path id="rect3008" d="M-157.3 143.1h109.5c11 0 19.9 8.9 19.9 19.9v149.5c0 11-8.9 19.9-19.9 19.9h-109.5c-11 0-19.9-8.9-19.9-19.9V163c0-11 8.9-19.9 19.9-19.9z" style="fill:url(#rect3008_1_)"/><path id="path3932" class="st3" d="M2.2 115.7c0 1.5-1.3 2.8-2.8 2.8s-2.8-1.3-2.8-2.8 1.3-2.8 2.8-2.8 2.8 1.2 2.8 2.8z"/><g id="path3936" style="filter:url(#filter3970-5)"><linearGradient id="SVGID_1_" gradientUnits="userSpaceOnUse" x1="-315.771" y1="590.47" x2="-318.887" y2="587.001" gradientTransform="matrix(7.1013 0 0 -6.6887 2243.616 4061.265)"><stop offset="0" style="stop-color:#fff"/><stop offset="1" style="stop-color:#fff;stop-opacity:0"/></linearGradient><path style="fill:url(#SVGID_1_)" d="m-2.8 114.3-28.8 24.6 8.2 6 25.2-28.3z"/></g><path id="path3882" class="st3" d="M-15 137.6c0 4.8-3.9 8.7-8.7 8.7-4.8 0-8.7-3.9-8.7-8.7 0-4.8 3.9-8.7 8.7-8.7 4.7 0 8.7 3.9 8.7 8.7z"/></g></g><path class="st7" d="M-42.3 500.3c-4.5-1.9-9.2-2.2-14-.8-2.6.8-4.8 1.9-6.6 3.3l11.4 10.9-17.2-.9c-.2 2.1.1 4.1 1 6.3 1.6 4 4.7 7 9.2 8.9 4.5 1.8 9.2 2.1 14 .7 4.8-1.4 8.3-3.9 10.5-7.7s2.5-7.7.9-11.8c-1.6-4.1-4.7-7.1-9.2-8.9z"/><path class="st8" d="M-69.9 488.2c3.7-.1 9.9-2.6 18.7-7.4-.6-1-1.8-2.2-3.5-3.4 8.1-2.4 14.6-7.7 19.8-15.8-7.1-3.1-15.5-4.7-25.2-4.7 3.4-4 5.7-9.2 7.1-15.6h-4.8c-6.9 0-12 .6-15.5 1.8.4-6.4-.8-14.1-3.6-23.3-6.8 2.9-12.8 7-18 12.5-2-6.2-5.3-11.2-10.1-14.9-4.8 3.7-8.2 8.7-10.2 14.9-5.2-5.5-11.2-9.7-18-12.5-2.8 9.2-4 16.9-3.6 23.3-3.4-1.2-8.6-1.8-15.5-1.8h-4.8c1.4 6.4 3.8 11.6 7.1 15.6-9.7 0-18.1 1.6-25.2 4.7 5.1 8.1 11.7 13.4 19.8 15.8-1.8 1.2-2.9 2.4-3.5 3.4 8.8 4.8 15 7.2 18.7 7.4-2 4.2-3.4 11.2-4.4 20.8 19.9-.3 33.1-6.3 39.7-18.1 6.4 11.8 19.6 17.8 39.6 18.1-1.1-9.6-2.6-16.5-4.6-20.8zm29.1-24.8c-7.8 7.3-13.7 11.1-17.9 11.4-5.1-3-9.5-5.1-13.3-6.3 2.8-2 5.9-4.8 9.2-8.1 9.4 0 16.7 1 22 3zm-38.5-37.7c1.6 5.6 2.2 11.8 1.9 18.3-3.1.9-8 3.4-14.6 7.6.1-5.3-.4-10-1.4-13.8 3-5.3 7.8-9.3 14.1-12.1zm20.8 19.5c-5.2 10.7-11.4 18-18.7 21.9-5.1-.4-9.9-.4-14.4 0-.2-2.4-.9-5.5-2.1-9.3 11.6-8.3 23.3-12.4 35.2-12.6zm-32.6 24.7c1.9-.1 4.5-.1 7.8.1 8.3.4 16.8 3.7 25.5 9.9-6.5 3.4-14.7 5.2-24.5 5.2-2.9 0-7.8-.3-14.6-.8 3.6-3.1 5.5-7.9 5.8-14.4zm-23.1-20.2c0-10 3-19 9.1-26.9 6 7.9 9 16.9 9 26.9v3.4c-1.5-3-4.5-6.3-9-9.9-4.5 3.6-7.6 6.9-9.1 9.9v-3.4zm-16.7-24c6.3 2.8 11 6.8 14.2 12.1-1 3.9-1.5 8.5-1.4 13.8-6.6-4.2-11.5-6.7-14.6-7.6-.4-6.5.2-12.6 1.8-18.3zm-20.8 19.5c11.9.2 23.7 4.4 35.2 12.5-1.2 3.8-1.9 6.9-2.1 9.3-4.5-.4-9.3-.4-14.4 0-7.3-3.9-13.5-11.1-18.7-21.8zm-17.7 18.2c5.3-2 12.7-3 22-3 3.4 3.4 6.4 6.1 9.2 8.1-3.8 1.2-8.2 3.3-13.3 6.3-4.2-.3-10.2-4.2-17.9-11.4zm17 16.5c8.6-6.2 17.1-9.4 25.5-9.9 3.3-.2 5.9-.3 7.8-.1.3 6.5 2.2 11.3 5.8 14.4-6.8.5-11.7.8-14.6.8-9.8-.1-18-1.8-24.5-5.2zm29.8 20c-5 2.1-10.5 3.4-16.6 3.7.1-5.4 1.3-10.4 3.5-14.9h14.4c3.4 0 7.6-.4 12.6-1.2-2.4 5.3-7 9.4-13.9 12.4zm7.9-30.5c0-7.5 3.2-14.5 9.7-20.9 6.4 6.4 9.6 13.3 9.6 20.9 0 9.2-3.2 13.8-9.6 13.8-6.5.1-9.7-4.5-9.7-13.8zm27.1 30.5c-6.9-2.9-11.5-7.1-14-12.4 5.1.8 9.3 1.2 12.6 1.2h14.4c2.2 4.5 3.4 9.5 3.5 14.9-6-.4-11.5-1.6-16.5-3.7z"/><path class="st7" d="M-165.1 426c3.1 2 6.8 2.9 10.9 2.6 4.1-.2 7.6-1.5 10.3-3.8 2.7-2.3 3.9-5.1 3.5-8.1-.1-1.7-.7-3.2-1.8-4.5l-12.5 4.8 4.4-10c-1.9-.5-4-.7-6.2-.7-4.1.2-7.5 1.5-10.1 3.8-2.7 2.3-3.9 5.1-3.6 8.1.3 3.2 2 5.8 5.1 7.8zM-158.9 517l9.4-7.7c-1.6-1-3.5-1.6-5.6-2.1-4-.9-7.9-.7-11.8.7-3.8 1.4-6.4 3.5-7.7 6.3-1.3 2.8-1 5.5 1 8 2 2.6 5 4.4 9.1 5.3 4.1.9 8 .7 11.8-.7 3.8-1.4 6.3-3.5 7.6-6.3.7-1.5 1-2.9.7-4.4l-14.5.9z"/><g><path class="st8" d="M-86.3 359.7c.5.1.8.1 1.1.1 2.9 0 2.9 0 13.5-3.4l9-2.4c8.5-2.4 8.5-2.4 10.1-2.4 1.4 0 3.2.5 4.7 1.5 1 .7 1.6 1.5 1.6 2.6 0 .9-.9 1.9-1.7 1.9l-4.3-.1c-1.6 0-4.7 1.2-7.5 2.9 1.1.4 2 .8 2.4.9 3.8 1.6 5.1 2.9 5.1 5.1 0 .9-.1 2-.2 3.2-.3 1.8-.5 3.1-.5 3.7l-.1 10.1c0 .8-.5 2.6-1.4 4.8 1.9.5 2.6.9 3.4 2 .9 1.2 1.8 3 1.8 3.8 0 .7-.3 1.9-1 3.3-.8 1.6-1.2 2.6-2.2 5.1 11.8 4.6 13 5.3 14.4 8.1.6 1.3 2 5.8 2 6.5 0 .3-.1.5-.3.5-.5 0-1.9-.5-3.4-1.2-2.7-1.3-2.7-1.3-9.1-6-1.6-1.2-3.4-2-6.7-3.2-3 3.2-5.8 4.6-9.1 4.6-.9 0-2.5-.2-4.2-.5-1.3-.3-2.5-.5-3.4-.7-1.8-.3-2-.4-3.3-1.2l-.1-.3c9.6-.1 11.9-.7 15.8-4.5-6.5-2-7-2-10.3-2.3-1.9.9-3.1 2.2-6.9 6.7-1.4 2-2 2.6-3 2.6-1.2 0-1.9-1.2-1.9-3 0-2.3.4-2.9 3.6-5.5.8-.6 4.8-5.2 6.6-7.6 1.6-2.1 4.4-6.4 4.4-6.7 0-.2-.2-.2-.5-.2-.9 0-3 1-6 3-6.1 4-7.2 4.6-8.2 4.6-.5 0-1.2-.8-1.2-1.2l.2-2.3.1-1.6.5-.9.4-.2c3-.1 6.9-1.8 8.7-3.8-1.5-3.5-1.7-4.4-1.7-7 0-5.2.8-8.2 3.1-11.5 2.3-3.3 4.4-5.5 8.6-8.6l-1-.1c-1.4 0-2.4.4-5.9 2.3-2.6 1.4-3.5 2-4.7 2.8-2.1 1.6-4.1 2.5-5.2 2.5-.7 0-2.2-.7-3-1.4-1.8-1.6-3.4-3.7-3.4-4.5l.1-.4.2-.5zm15.7 23.5c1.3-.2 1.5-.4 2.7-1.5.8-.9 1.5-1.6 2.2-2.2.5-.5.8-.9.8-1.2 0-.2-.2-.2-.3-.2-.2 0-.3 0-.5.1h-1.9c-.9 0-1.2-.3-1.2-.9 0-.5.1-1 .2-1.7.1-.3.1-.3 1.2-1.2l1.6-1.2c1.7-1.6 1.7-1.6 1.7-1.9 0-.5-.6-.6-2.5-.6-1.1-.1-1.4-.2-2.3-.9-1.5 2.8-2.1 5.8-2.1 9.8 0 .8 0 1.5.2 2.1.1.5.2.9.2 1v.5zm11.1 6.4c-1-1.4-1.5-1.9-2-1.9-1.2 0-2.2 1.2-5.5 6.5 3.8-2.5 4.5-2.8 7.5-4.6zm0-7.5c.2 0 .4-.1.5-.2.5-.6 1-5.9 1-10.9 0-5.2-1.3-7-5.6-7.7-1.6.9-1.9 1.2-3 2.7.2.2.4.2.5.2h1.2c2.5 0 5.5 1.7 5.5 3.3 0 1.1-1.4 3-3 4-.5.4-.9.7-.9.9 0 .2.3.3 1 .6 1.4.6 2.5 1.8 2.5 2.8 0 .7-.1.8-1.9 1.3-.4.2-.5.2-2.6 1.6-2.4 1.8-2.4 1.8-2.4 2 0 .2.2.3.4.3s.5-.1.7-.2c2-1 2.5-1.2 3.9-1.2.8 0 .8 0 2 .5h.2zm-.5 17.7c.4.2 1.4.5 2.5.9 2-3.4 3.1-6.2 3.1-8 0-.6-.5-1.2-1-1.2-.3 0-.6.2-1 .5l-9.4 6.1c2.6.5 2.7.5 4.8 1.3l1 .4z"/></g><path d="m-157.2 373.9-2 1.6c-6.7 5.1-10.6 10.2-11.9 15.3v2.5h27.9l1.3-12.1h-3.3c-.8 5-2.7 7.5-5.7 7.5H-166c1.2-3.9 4.3-7.3 9.1-10.1l2.4-1.3c4.2-2.3 7.1-4.3 8.7-5.9 2-2 3-4.7 3-7.9 0-4.2-1.9-7.5-5.6-9.7-2.4-1.2-5.2-1.9-8.3-1.9-4.2 0-7.7 1.2-10.2 3.6-2.1 2.1-3.2 4.4-3.2 7.1 0 3.2 1.4 4.8 4.3 4.8 2.5 0 3.7-1.2 3.7-3.5 0-2.2-1-3.4-2.9-3.6 1.2-3.1 3.8-4.6 7.9-4.6 5.3 0 7.9 2.5 7.9 7.4.1 3.2-2.6 6.7-8 10.8z" style="fill:#2a3b92"/></g></switch></svg>